%TF.GenerationSoftware,KiCad,Pcbnew,8.0.8-8.0.8-0~ubuntu24.04.1*%
%TF.CreationDate,2025-04-25T21:20:39+02:00*%
%TF.ProjectId,LogicAnalyzer,4c6f6769-6341-46e6-916c-797a65722e6b,rev?*%
%TF.SameCoordinates,Original*%
%TF.FileFunction,Drillmap*%
%TF.FilePolarity,Positive*%
%FSLAX45Y45*%
G04 Gerber Fmt 4.5, Leading zero omitted, Abs format (unit mm)*
G04 Created by KiCad (PCBNEW 8.0.8-8.0.8-0~ubuntu24.04.1) date 2025-04-25 21:20:39*
%MOMM*%
%LPD*%
G01*
G04 APERTURE LIST*
%ADD10C,0.100000*%
%ADD11C,0.200000*%
%ADD12C,0.102000*%
G04 APERTURE END LIST*
D10*
X20650000Y-6450000D02*
G75*
G02*
X20950000Y-6750000I0J-300000D01*
G01*
X15450000Y-6750000D02*
X15450000Y-12650000D01*
X20950000Y-12650000D02*
G75*
G02*
X20650000Y-12950000I-300000J0D01*
G01*
X15450000Y-6750000D02*
G75*
G02*
X15750000Y-6450000I300000J0D01*
G01*
X20950000Y-12650000D02*
X20950000Y-6750000D01*
X20650000Y-6450000D02*
X15750000Y-6450000D01*
X15750000Y-12950000D02*
X20650000Y-12950000D01*
X15750000Y-12950000D02*
G75*
G02*
X15450000Y-12650000I0J300000D01*
G01*
D11*
D10*
X15529800Y-7274800D02*
X15559800Y-7304800D01*
X15559800Y-7274800D02*
X15529800Y-7304800D01*
X15529800Y-7528800D02*
X15559800Y-7558800D01*
X15559800Y-7528800D02*
X15529800Y-7558800D01*
X15529800Y-7782800D02*
X15559800Y-7812800D01*
X15559800Y-7782800D02*
X15529800Y-7812800D01*
X15529800Y-8240000D02*
X15559800Y-8270000D01*
X15559800Y-8240000D02*
X15529800Y-8270000D01*
X15529800Y-8494000D02*
X15559800Y-8524000D01*
X15559800Y-8494000D02*
X15529800Y-8524000D01*
X15529800Y-8748000D02*
X15559800Y-8778000D01*
X15559800Y-8748000D02*
X15529800Y-8778000D01*
X15529800Y-9002000D02*
X15559800Y-9032000D01*
X15559800Y-9002000D02*
X15529800Y-9032000D01*
X15529800Y-9256000D02*
X15559800Y-9286000D01*
X15559800Y-9256000D02*
X15529800Y-9286000D01*
X15529800Y-9510000D02*
X15559800Y-9540000D01*
X15559800Y-9510000D02*
X15529800Y-9540000D01*
X15529800Y-9764000D02*
X15559800Y-9794000D01*
X15559800Y-9764000D02*
X15529800Y-9794000D01*
X15529800Y-10018000D02*
X15559800Y-10048000D01*
X15559800Y-10018000D02*
X15529800Y-10048000D01*
X15529800Y-10272000D02*
X15559800Y-10302000D01*
X15559800Y-10272000D02*
X15529800Y-10302000D01*
X15529800Y-10526000D02*
X15559800Y-10556000D01*
X15559800Y-10526000D02*
X15529800Y-10556000D01*
X15529800Y-10780000D02*
X15559800Y-10810000D01*
X15559800Y-10780000D02*
X15529800Y-10810000D01*
X15529800Y-11034000D02*
X15559800Y-11064000D01*
X15559800Y-11034000D02*
X15529800Y-11064000D01*
X15529800Y-11288000D02*
X15559800Y-11318000D01*
X15559800Y-11288000D02*
X15529800Y-11318000D01*
X15529800Y-11542000D02*
X15559800Y-11572000D01*
X15559800Y-11542000D02*
X15529800Y-11572000D01*
X15529800Y-11796000D02*
X15559800Y-11826000D01*
X15559800Y-11796000D02*
X15529800Y-11826000D01*
X15529800Y-12050000D02*
X15559800Y-12080000D01*
X15559800Y-12050000D02*
X15529800Y-12080000D01*
X15563500Y-7055500D02*
X15593500Y-7085500D01*
X15593500Y-7055500D02*
X15563500Y-7085500D01*
X15563500Y-8071500D02*
X15593500Y-8101500D01*
X15593500Y-8071500D02*
X15563500Y-8101500D01*
X15563500Y-12389500D02*
X15593500Y-12419500D01*
X15593500Y-12389500D02*
X15563500Y-12419500D01*
X15817500Y-7055500D02*
X15847500Y-7085500D01*
X15847500Y-7055500D02*
X15817500Y-7085500D01*
X15817500Y-12389500D02*
X15847500Y-12419500D01*
X15847500Y-12389500D02*
X15817500Y-12419500D01*
X15975000Y-8635000D02*
X16005000Y-8665000D01*
X16005000Y-8635000D02*
X15975000Y-8665000D01*
X15985000Y-9185000D02*
X16015000Y-9215000D01*
X16015000Y-9185000D02*
X15985000Y-9215000D01*
X15985000Y-9445000D02*
X16015000Y-9475000D01*
X16015000Y-9445000D02*
X15985000Y-9475000D01*
X15985000Y-9705000D02*
X16015000Y-9735000D01*
X16015000Y-9705000D02*
X15985000Y-9735000D01*
X15985000Y-9955000D02*
X16015000Y-9985000D01*
X16015000Y-9955000D02*
X15985000Y-9985000D01*
X15985000Y-10215000D02*
X16015000Y-10245000D01*
X16015000Y-10215000D02*
X15985000Y-10245000D01*
X15985000Y-10465000D02*
X16015000Y-10495000D01*
X16015000Y-10465000D02*
X15985000Y-10495000D01*
X15985000Y-10715000D02*
X16015000Y-10745000D01*
X16015000Y-10715000D02*
X15985000Y-10745000D01*
X15985000Y-10975000D02*
X16015000Y-11005000D01*
X16015000Y-10975000D02*
X15985000Y-11005000D01*
X15985000Y-11235000D02*
X16015000Y-11265000D01*
X16015000Y-11235000D02*
X15985000Y-11265000D01*
X15985000Y-11475000D02*
X16015000Y-11505000D01*
X16015000Y-11475000D02*
X15985000Y-11505000D01*
X15985000Y-11735000D02*
X16015000Y-11765000D01*
X16015000Y-11735000D02*
X15985000Y-11765000D01*
X16071500Y-6547500D02*
X16101500Y-6577500D01*
X16101500Y-6547500D02*
X16071500Y-6577500D01*
X16071500Y-6801500D02*
X16101500Y-6831500D01*
X16101500Y-6801500D02*
X16071500Y-6831500D01*
X16071500Y-7055500D02*
X16101500Y-7085500D01*
X16101500Y-7055500D02*
X16071500Y-7085500D01*
X16071500Y-8071500D02*
X16101500Y-8101500D01*
X16101500Y-8071500D02*
X16071500Y-8101500D01*
X16071500Y-12643500D02*
X16101500Y-12673500D01*
X16101500Y-12643500D02*
X16071500Y-12673500D01*
X16235000Y-10705000D02*
X16265000Y-10735000D01*
X16265000Y-10705000D02*
X16235000Y-10735000D01*
X16241000Y-10449800D02*
X16271000Y-10479800D01*
X16271000Y-10449800D02*
X16241000Y-10479800D01*
X16241000Y-11643600D02*
X16271000Y-11673600D01*
X16271000Y-11643600D02*
X16241000Y-11673600D01*
X16255000Y-9755000D02*
X16285000Y-9785000D01*
X16285000Y-9755000D02*
X16255000Y-9785000D01*
X16265000Y-9985000D02*
X16295000Y-10015000D01*
X16295000Y-9985000D02*
X16265000Y-10015000D01*
X16315000Y-10255000D02*
X16345000Y-10285000D01*
X16345000Y-10255000D02*
X16315000Y-10285000D01*
X16315000Y-10865000D02*
X16345000Y-10895000D01*
X16345000Y-10865000D02*
X16315000Y-10895000D01*
X16315000Y-12505000D02*
X16345000Y-12535000D01*
X16345000Y-12505000D02*
X16315000Y-12535000D01*
X16317200Y-10576800D02*
X16347200Y-10606800D01*
X16347200Y-10576800D02*
X16317200Y-10606800D01*
X16325500Y-6547500D02*
X16355500Y-6577500D01*
X16355500Y-6547500D02*
X16325500Y-6577500D01*
X16325500Y-6801500D02*
X16355500Y-6831500D01*
X16355500Y-6801500D02*
X16325500Y-6831500D01*
X16325500Y-7055500D02*
X16355500Y-7085500D01*
X16355500Y-7055500D02*
X16325500Y-7085500D01*
X16345000Y-9635000D02*
X16375000Y-9665000D01*
X16375000Y-9635000D02*
X16345000Y-9665000D01*
X16495000Y-9154400D02*
X16525000Y-9184400D01*
X16525000Y-9154400D02*
X16495000Y-9184400D01*
X16495000Y-11385000D02*
X16525000Y-11415000D01*
X16525000Y-11385000D02*
X16495000Y-11415000D01*
X16545000Y-10435000D02*
X16575000Y-10465000D01*
X16575000Y-10435000D02*
X16545000Y-10465000D01*
X16579500Y-6547500D02*
X16609500Y-6577500D01*
X16609500Y-6547500D02*
X16579500Y-6577500D01*
X16579500Y-7055500D02*
X16609500Y-7085500D01*
X16609500Y-7055500D02*
X16579500Y-7085500D01*
X16579500Y-7309500D02*
X16609500Y-7339500D01*
X16609500Y-7309500D02*
X16579500Y-7339500D01*
X16579500Y-8071500D02*
X16609500Y-8101500D01*
X16609500Y-8071500D02*
X16579500Y-8101500D01*
X16579500Y-8579500D02*
X16609500Y-8609500D01*
X16609500Y-8579500D02*
X16579500Y-8609500D01*
X16595000Y-11475000D02*
X16625000Y-11505000D01*
X16625000Y-11475000D02*
X16595000Y-11505000D01*
X16622000Y-9941800D02*
X16652000Y-9971800D01*
X16652000Y-9941800D02*
X16622000Y-9971800D01*
X16635000Y-8985000D02*
X16665000Y-9015000D01*
X16665000Y-8985000D02*
X16635000Y-9015000D01*
X16655000Y-9655000D02*
X16685000Y-9685000D01*
X16685000Y-9655000D02*
X16655000Y-9685000D01*
X16665000Y-12195000D02*
X16695000Y-12225000D01*
X16695000Y-12195000D02*
X16665000Y-12225000D01*
X16685000Y-11585000D02*
X16715000Y-11615000D01*
X16715000Y-11585000D02*
X16685000Y-11615000D01*
X16685000Y-11660000D02*
X16715000Y-11690000D01*
X16715000Y-11660000D02*
X16685000Y-11690000D01*
X16685000Y-11735000D02*
X16715000Y-11765000D01*
X16715000Y-11735000D02*
X16685000Y-11765000D01*
X16685000Y-11801000D02*
X16715000Y-11831000D01*
X16715000Y-11801000D02*
X16685000Y-11831000D01*
X16723600Y-10856200D02*
X16753600Y-10886200D01*
X16753600Y-10856200D02*
X16723600Y-10886200D01*
X16725000Y-8755000D02*
X16755000Y-8785000D01*
X16755000Y-8755000D02*
X16725000Y-8785000D01*
X16725000Y-8821000D02*
X16755000Y-8851000D01*
X16755000Y-8821000D02*
X16725000Y-8851000D01*
X16725000Y-8887001D02*
X16755000Y-8917001D01*
X16755000Y-8887001D02*
X16725000Y-8917001D01*
X16725000Y-8955000D02*
X16755000Y-8985000D01*
X16755000Y-8955000D02*
X16725000Y-8985000D01*
X16725000Y-10165000D02*
X16755000Y-10195000D01*
X16755000Y-10165000D02*
X16725000Y-10195000D01*
X16725000Y-10231000D02*
X16755000Y-10261000D01*
X16755000Y-10231000D02*
X16725000Y-10261000D01*
X16725000Y-10297001D02*
X16755000Y-10327001D01*
X16755000Y-10297001D02*
X16725000Y-10327001D01*
X16725000Y-10363001D02*
X16755000Y-10393001D01*
X16755000Y-10363001D02*
X16725000Y-10393001D01*
X16799800Y-8519400D02*
X16829800Y-8549400D01*
X16829800Y-8519400D02*
X16799800Y-8549400D01*
X16799800Y-9230600D02*
X16829800Y-9260600D01*
X16829800Y-9230600D02*
X16799800Y-9260600D01*
X16799800Y-9941800D02*
X16829800Y-9971800D01*
X16829800Y-9941800D02*
X16799800Y-9971800D01*
X16799800Y-10653000D02*
X16829800Y-10683000D01*
X16829800Y-10653000D02*
X16799800Y-10683000D01*
X16799800Y-11364200D02*
X16829800Y-11394200D01*
X16829800Y-11364200D02*
X16799800Y-11394200D01*
X16799800Y-12075400D02*
X16829800Y-12105400D01*
X16829800Y-12075400D02*
X16799800Y-12105400D01*
X16833500Y-6547500D02*
X16863500Y-6577500D01*
X16863500Y-6547500D02*
X16833500Y-6577500D01*
X16833500Y-8071500D02*
X16863500Y-8101500D01*
X16863500Y-8071500D02*
X16833500Y-8101500D01*
X16833500Y-8325500D02*
X16863500Y-8355500D01*
X16863500Y-8325500D02*
X16833500Y-8355500D01*
X16876000Y-9129000D02*
X16906000Y-9159000D01*
X16906000Y-9129000D02*
X16876000Y-9159000D01*
X16876000Y-9840200D02*
X16906000Y-9870200D01*
X16906000Y-9840200D02*
X16876000Y-9870200D01*
X16876000Y-10551400D02*
X16906000Y-10581400D01*
X16906000Y-10551400D02*
X16876000Y-10581400D01*
X16876000Y-11262600D02*
X16906000Y-11292600D01*
X16906000Y-11262600D02*
X16876000Y-11292600D01*
X16876000Y-11973800D02*
X16906000Y-12003800D01*
X16906000Y-11973800D02*
X16876000Y-12003800D01*
X16876000Y-12685000D02*
X16906000Y-12715000D01*
X16906000Y-12685000D02*
X16876000Y-12715000D01*
X17003000Y-7351000D02*
X17033000Y-7381000D01*
X17033000Y-7351000D02*
X17003000Y-7381000D01*
X17003000Y-7630400D02*
X17033000Y-7660400D01*
X17033000Y-7630400D02*
X17003000Y-7660400D01*
X17003000Y-7884400D02*
X17033000Y-7914400D01*
X17033000Y-7884400D02*
X17003000Y-7914400D01*
X17028400Y-8748000D02*
X17058400Y-8778000D01*
X17058400Y-8748000D02*
X17028400Y-8778000D01*
X17028400Y-9459200D02*
X17058400Y-9489200D01*
X17058400Y-9459200D02*
X17028400Y-9489200D01*
X17028400Y-10170400D02*
X17058400Y-10200400D01*
X17058400Y-10170400D02*
X17028400Y-10200400D01*
X17028400Y-10881600D02*
X17058400Y-10911600D01*
X17058400Y-10881600D02*
X17028400Y-10911600D01*
X17028400Y-11592800D02*
X17058400Y-11622800D01*
X17058400Y-11592800D02*
X17028400Y-11622800D01*
X17028400Y-12304000D02*
X17058400Y-12334000D01*
X17058400Y-12304000D02*
X17028400Y-12334000D01*
X17087500Y-6547500D02*
X17117500Y-6577500D01*
X17117500Y-6547500D02*
X17087500Y-6577500D01*
X17087500Y-7309500D02*
X17117500Y-7339500D01*
X17117500Y-7309500D02*
X17087500Y-7339500D01*
X17087500Y-12643500D02*
X17117500Y-12673500D01*
X17117500Y-12643500D02*
X17087500Y-12673500D01*
X17282400Y-7401800D02*
X17312400Y-7431800D01*
X17312400Y-7401800D02*
X17282400Y-7431800D01*
X17339000Y-12705000D02*
X17369000Y-12735000D01*
X17369000Y-12705000D02*
X17339000Y-12735000D01*
X17341500Y-6547500D02*
X17371500Y-6577500D01*
X17371500Y-6547500D02*
X17341500Y-6577500D01*
X17341500Y-6801500D02*
X17371500Y-6831500D01*
X17371500Y-6801500D02*
X17341500Y-6831500D01*
X17341500Y-8071500D02*
X17371500Y-8101500D01*
X17371500Y-8071500D02*
X17341500Y-8101500D01*
X17409400Y-9154400D02*
X17439400Y-9184400D01*
X17439400Y-9154400D02*
X17409400Y-9184400D01*
X17409400Y-9306800D02*
X17439400Y-9336800D01*
X17439400Y-9306800D02*
X17409400Y-9336800D01*
X17409400Y-9865600D02*
X17439400Y-9895600D01*
X17439400Y-9865600D02*
X17409400Y-9895600D01*
X17409400Y-10018000D02*
X17439400Y-10048000D01*
X17439400Y-10018000D02*
X17409400Y-10048000D01*
X17409400Y-10576800D02*
X17439400Y-10606800D01*
X17439400Y-10576800D02*
X17409400Y-10606800D01*
X17409400Y-10729200D02*
X17439400Y-10759200D01*
X17439400Y-10729200D02*
X17409400Y-10759200D01*
X17409400Y-11288000D02*
X17439400Y-11318000D01*
X17439400Y-11288000D02*
X17409400Y-11318000D01*
X17409400Y-11440400D02*
X17439400Y-11470400D01*
X17439400Y-11440400D02*
X17409400Y-11470400D01*
X17409400Y-11999200D02*
X17439400Y-12029200D01*
X17439400Y-11999200D02*
X17409400Y-12029200D01*
X17409400Y-12151600D02*
X17439400Y-12181600D01*
X17439400Y-12151600D02*
X17409400Y-12181600D01*
X17511000Y-7630400D02*
X17541000Y-7660400D01*
X17541000Y-7630400D02*
X17511000Y-7660400D01*
X17561800Y-8519400D02*
X17591800Y-8549400D01*
X17591800Y-8519400D02*
X17561800Y-8549400D01*
X17561800Y-9230600D02*
X17591800Y-9260600D01*
X17591800Y-9230600D02*
X17561800Y-9260600D01*
X17561800Y-9941800D02*
X17591800Y-9971800D01*
X17591800Y-9941800D02*
X17561800Y-9971800D01*
X17561800Y-10653000D02*
X17591800Y-10683000D01*
X17591800Y-10653000D02*
X17561800Y-10683000D01*
X17561800Y-11364200D02*
X17591800Y-11394200D01*
X17591800Y-11364200D02*
X17561800Y-11394200D01*
X17561800Y-12075400D02*
X17591800Y-12105400D01*
X17591800Y-12075400D02*
X17561800Y-12105400D01*
X17593000Y-12705000D02*
X17623000Y-12735000D01*
X17623000Y-12705000D02*
X17593000Y-12735000D01*
X17595000Y-11485000D02*
X17625000Y-11515000D01*
X17625000Y-11485000D02*
X17595000Y-11515000D01*
X17595500Y-6547500D02*
X17625500Y-6577500D01*
X17625500Y-6547500D02*
X17595500Y-6577500D01*
X17595500Y-6801500D02*
X17625500Y-6831500D01*
X17625500Y-6801500D02*
X17595500Y-6831500D01*
X17595500Y-7309500D02*
X17625500Y-7339500D01*
X17625500Y-7309500D02*
X17595500Y-7339500D01*
X17595500Y-9087500D02*
X17625500Y-9117500D01*
X17625500Y-9087500D02*
X17595500Y-9117500D01*
X17625000Y-10145000D02*
X17655000Y-10175000D01*
X17655000Y-10145000D02*
X17625000Y-10175000D01*
X17625000Y-10225000D02*
X17655000Y-10255000D01*
X17655000Y-10225000D02*
X17625000Y-10255000D01*
X17625000Y-10295000D02*
X17655000Y-10325000D01*
X17655000Y-10295000D02*
X17625000Y-10325000D01*
X17625000Y-10361000D02*
X17655000Y-10391000D01*
X17655000Y-10361000D02*
X17625000Y-10391000D01*
X17645000Y-11575000D02*
X17675000Y-11605000D01*
X17675000Y-11575000D02*
X17645000Y-11605000D01*
X17645000Y-11645000D02*
X17675000Y-11675000D01*
X17675000Y-11645000D02*
X17645000Y-11675000D01*
X17645000Y-11715000D02*
X17675000Y-11745000D01*
X17675000Y-11715000D02*
X17645000Y-11745000D01*
X17645000Y-11781000D02*
X17675000Y-11811000D01*
X17675000Y-11781000D02*
X17645000Y-11811000D01*
X17675000Y-11885000D02*
X17705000Y-11915000D01*
X17705000Y-11885000D02*
X17675000Y-11915000D01*
X17685000Y-9455000D02*
X17715000Y-9485000D01*
X17715000Y-9455000D02*
X17685000Y-9485000D01*
X17695000Y-8875000D02*
X17725000Y-8905000D01*
X17725000Y-8875000D02*
X17695000Y-8905000D01*
X17695000Y-8941000D02*
X17725000Y-8971000D01*
X17725000Y-8941000D02*
X17695000Y-8971000D01*
X17695000Y-9235000D02*
X17725000Y-9265000D01*
X17725000Y-9235000D02*
X17695000Y-9265000D01*
X17705000Y-12496000D02*
X17735000Y-12526000D01*
X17735000Y-12496000D02*
X17705000Y-12526000D01*
X17739600Y-10348200D02*
X17769600Y-10378200D01*
X17769600Y-10348200D02*
X17739600Y-10378200D01*
X17795000Y-7725000D02*
X17825000Y-7755000D01*
X17825000Y-7725000D02*
X17795000Y-7755000D01*
X17825000Y-9675000D02*
X17855000Y-9705000D01*
X17855000Y-9675000D02*
X17825000Y-9705000D01*
X17825000Y-12425000D02*
X17855000Y-12455000D01*
X17855000Y-12425000D02*
X17825000Y-12455000D01*
X17835000Y-9425000D02*
X17865000Y-9455000D01*
X17865000Y-9425000D02*
X17835000Y-9455000D01*
X17847000Y-12705000D02*
X17877000Y-12735000D01*
X17877000Y-12705000D02*
X17847000Y-12735000D01*
X17849500Y-6547500D02*
X17879500Y-6577500D01*
X17879500Y-6547500D02*
X17849500Y-6577500D01*
X17849500Y-7055500D02*
X17879500Y-7085500D01*
X17879500Y-7055500D02*
X17849500Y-7085500D01*
X18015000Y-11065000D02*
X18045000Y-11095000D01*
X18045000Y-11065000D02*
X18015000Y-11095000D01*
X18045000Y-8015000D02*
X18075000Y-8045000D01*
X18075000Y-8015000D02*
X18045000Y-8045000D01*
X18065000Y-7715000D02*
X18095000Y-7745000D01*
X18095000Y-7715000D02*
X18065000Y-7745000D01*
X18101000Y-12705000D02*
X18131000Y-12735000D01*
X18131000Y-12705000D02*
X18101000Y-12735000D01*
X18103500Y-6547500D02*
X18133500Y-6577500D01*
X18133500Y-6547500D02*
X18103500Y-6577500D01*
X18103500Y-7055500D02*
X18133500Y-7085500D01*
X18133500Y-7055500D02*
X18103500Y-7085500D01*
X18103500Y-7563500D02*
X18133500Y-7593500D01*
X18133500Y-7563500D02*
X18103500Y-7593500D01*
X18103500Y-8325500D02*
X18133500Y-8355500D01*
X18133500Y-8325500D02*
X18103500Y-8355500D01*
X18146000Y-9713200D02*
X18176000Y-9743200D01*
X18176000Y-9713200D02*
X18146000Y-9743200D01*
X18349000Y-12705000D02*
X18379000Y-12735000D01*
X18379000Y-12705000D02*
X18349000Y-12735000D01*
X18355000Y-11605000D02*
X18385000Y-11635000D01*
X18385000Y-11605000D02*
X18355000Y-11635000D01*
X18357500Y-12135500D02*
X18387500Y-12165500D01*
X18387500Y-12135500D02*
X18357500Y-12165500D01*
X18603000Y-12705000D02*
X18633000Y-12735000D01*
X18633000Y-12705000D02*
X18603000Y-12735000D01*
X18603200Y-7122400D02*
X18633200Y-7152400D01*
X18633200Y-7122400D02*
X18603200Y-7152400D01*
X18603200Y-7376400D02*
X18633200Y-7406400D01*
X18633200Y-7376400D02*
X18603200Y-7406400D01*
X18603200Y-7630400D02*
X18633200Y-7660400D01*
X18633200Y-7630400D02*
X18603200Y-7660400D01*
X18603200Y-7884400D02*
X18633200Y-7914400D01*
X18633200Y-7884400D02*
X18603200Y-7914400D01*
X18603200Y-8646400D02*
X18633200Y-8676400D01*
X18633200Y-8646400D02*
X18603200Y-8676400D01*
X18603200Y-8900400D02*
X18633200Y-8930400D01*
X18633200Y-8900400D02*
X18603200Y-8930400D01*
X18603200Y-9154400D02*
X18633200Y-9184400D01*
X18633200Y-9154400D02*
X18603200Y-9184400D01*
X18603200Y-9408400D02*
X18633200Y-9438400D01*
X18633200Y-9408400D02*
X18603200Y-9438400D01*
X18603200Y-9662400D02*
X18633200Y-9692400D01*
X18633200Y-9662400D02*
X18603200Y-9692400D01*
X18603200Y-10424400D02*
X18633200Y-10454400D01*
X18633200Y-10424400D02*
X18603200Y-10454400D01*
X18603200Y-10678400D02*
X18633200Y-10708400D01*
X18633200Y-10678400D02*
X18603200Y-10708400D01*
X18603200Y-10932400D02*
X18633200Y-10962400D01*
X18633200Y-10932400D02*
X18603200Y-10962400D01*
X18603200Y-11186400D02*
X18633200Y-11216400D01*
X18633200Y-11186400D02*
X18603200Y-11216400D01*
X18603200Y-11440400D02*
X18633200Y-11470400D01*
X18633200Y-11440400D02*
X18603200Y-11470400D01*
X18611500Y-6547500D02*
X18641500Y-6577500D01*
X18641500Y-6547500D02*
X18611500Y-6577500D01*
X18611500Y-6801500D02*
X18641500Y-6831500D01*
X18641500Y-6801500D02*
X18611500Y-6831500D01*
X18611500Y-8071500D02*
X18641500Y-8101500D01*
X18641500Y-8071500D02*
X18611500Y-8101500D01*
X18611500Y-8325500D02*
X18641500Y-8355500D01*
X18641500Y-8325500D02*
X18611500Y-8355500D01*
X18611500Y-9849500D02*
X18641500Y-9879500D01*
X18641500Y-9849500D02*
X18611500Y-9879500D01*
X18611500Y-11627500D02*
X18641500Y-11657500D01*
X18641500Y-11627500D02*
X18611500Y-11657500D01*
X18611500Y-11881500D02*
X18641500Y-11911500D01*
X18641500Y-11881500D02*
X18611500Y-11911500D01*
X18611500Y-12135500D02*
X18641500Y-12165500D01*
X18641500Y-12135500D02*
X18611500Y-12165500D01*
X18645000Y-10175000D02*
X18675000Y-10205000D01*
X18675000Y-10175000D02*
X18645000Y-10205000D01*
X18857000Y-12705000D02*
X18887000Y-12735000D01*
X18887000Y-12705000D02*
X18857000Y-12735000D01*
X18865500Y-6547500D02*
X18895500Y-6577500D01*
X18895500Y-6547500D02*
X18865500Y-6577500D01*
X18865500Y-6801500D02*
X18895500Y-6831500D01*
X18895500Y-6801500D02*
X18865500Y-6831500D01*
X18865500Y-7309500D02*
X18895500Y-7339500D01*
X18895500Y-7309500D02*
X18865500Y-7339500D01*
X18865500Y-7817500D02*
X18895500Y-7847500D01*
X18895500Y-7817500D02*
X18865500Y-7847500D01*
X18865500Y-8071500D02*
X18895500Y-8101500D01*
X18895500Y-8071500D02*
X18865500Y-8101500D01*
X18865500Y-8325500D02*
X18895500Y-8355500D01*
X18895500Y-8325500D02*
X18865500Y-8355500D01*
X18865500Y-8833500D02*
X18895500Y-8863500D01*
X18895500Y-8833500D02*
X18865500Y-8863500D01*
X18865500Y-9849500D02*
X18895500Y-9879500D01*
X18895500Y-9849500D02*
X18865500Y-9879500D01*
X18865500Y-11119500D02*
X18895500Y-11149500D01*
X18895500Y-11119500D02*
X18865500Y-11149500D01*
X18865500Y-11373500D02*
X18895500Y-11403500D01*
X18895500Y-11373500D02*
X18865500Y-11403500D01*
X18865500Y-11627500D02*
X18895500Y-11657500D01*
X18895500Y-11627500D02*
X18865500Y-11657500D01*
X18865500Y-11881500D02*
X18895500Y-11911500D01*
X18895500Y-11881500D02*
X18865500Y-11911500D01*
X18865500Y-12135500D02*
X18895500Y-12165500D01*
X18895500Y-12135500D02*
X18865500Y-12165500D01*
X19111000Y-12705000D02*
X19141000Y-12735000D01*
X19141000Y-12705000D02*
X19111000Y-12735000D01*
X19119500Y-8071500D02*
X19149500Y-8101500D01*
X19149500Y-8071500D02*
X19119500Y-8101500D01*
X19119500Y-8325500D02*
X19149500Y-8355500D01*
X19149500Y-8325500D02*
X19119500Y-8355500D01*
X19119500Y-8579500D02*
X19149500Y-8609500D01*
X19149500Y-8579500D02*
X19119500Y-8609500D01*
X19119500Y-8833500D02*
X19149500Y-8863500D01*
X19149500Y-8833500D02*
X19119500Y-8863500D01*
X19119500Y-9087500D02*
X19149500Y-9117500D01*
X19149500Y-9087500D02*
X19119500Y-9117500D01*
X19119500Y-9341500D02*
X19149500Y-9371500D01*
X19149500Y-9341500D02*
X19119500Y-9371500D01*
X19119500Y-9849500D02*
X19149500Y-9879500D01*
X19149500Y-9849500D02*
X19119500Y-9879500D01*
X19119500Y-11119500D02*
X19149500Y-11149500D01*
X19149500Y-11119500D02*
X19119500Y-11149500D01*
X19119500Y-11881500D02*
X19149500Y-11911500D01*
X19149500Y-11881500D02*
X19119500Y-11911500D01*
X19119500Y-12135500D02*
X19149500Y-12165500D01*
X19149500Y-12135500D02*
X19119500Y-12165500D01*
X19315000Y-10175000D02*
X19345000Y-10205000D01*
X19345000Y-10175000D02*
X19315000Y-10205000D01*
X19365000Y-12705000D02*
X19395000Y-12735000D01*
X19395000Y-12705000D02*
X19365000Y-12735000D01*
X19373500Y-7309500D02*
X19403500Y-7339500D01*
X19403500Y-7309500D02*
X19373500Y-7339500D01*
X19373500Y-7817500D02*
X19403500Y-7847500D01*
X19403500Y-7817500D02*
X19373500Y-7847500D01*
X19373500Y-8071500D02*
X19403500Y-8101500D01*
X19403500Y-8071500D02*
X19373500Y-8101500D01*
X19373500Y-8325500D02*
X19403500Y-8355500D01*
X19403500Y-8325500D02*
X19373500Y-8355500D01*
X19373500Y-8579500D02*
X19403500Y-8609500D01*
X19403500Y-8579500D02*
X19373500Y-8609500D01*
X19373500Y-9341500D02*
X19403500Y-9371500D01*
X19403500Y-9341500D02*
X19373500Y-9371500D01*
X19373500Y-9849500D02*
X19403500Y-9879500D01*
X19403500Y-9849500D02*
X19373500Y-9879500D01*
X19373500Y-10357500D02*
X19403500Y-10387500D01*
X19403500Y-10357500D02*
X19373500Y-10387500D01*
X19373500Y-11119500D02*
X19403500Y-11149500D01*
X19403500Y-11119500D02*
X19373500Y-11149500D01*
X19373500Y-11881500D02*
X19403500Y-11911500D01*
X19403500Y-11881500D02*
X19373500Y-11911500D01*
X19627500Y-7309500D02*
X19657500Y-7339500D01*
X19657500Y-7309500D02*
X19627500Y-7339500D01*
X19627500Y-7817500D02*
X19657500Y-7847500D01*
X19657500Y-7817500D02*
X19627500Y-7847500D01*
X19627500Y-8071500D02*
X19657500Y-8101500D01*
X19657500Y-8071500D02*
X19627500Y-8101500D01*
X19627500Y-8325500D02*
X19657500Y-8355500D01*
X19657500Y-8325500D02*
X19627500Y-8355500D01*
X19627500Y-8579500D02*
X19657500Y-8609500D01*
X19657500Y-8579500D02*
X19627500Y-8609500D01*
X19627500Y-8833500D02*
X19657500Y-8863500D01*
X19657500Y-8833500D02*
X19627500Y-8863500D01*
X19627500Y-9087500D02*
X19657500Y-9117500D01*
X19657500Y-9087500D02*
X19627500Y-9117500D01*
X19627500Y-9341500D02*
X19657500Y-9371500D01*
X19657500Y-9341500D02*
X19627500Y-9371500D01*
X19627500Y-9595500D02*
X19657500Y-9625500D01*
X19657500Y-9595500D02*
X19627500Y-9625500D01*
X19627500Y-9849500D02*
X19657500Y-9879500D01*
X19657500Y-9849500D02*
X19627500Y-9879500D01*
X19627500Y-10357500D02*
X19657500Y-10387500D01*
X19657500Y-10357500D02*
X19627500Y-10387500D01*
X19627500Y-10611500D02*
X19657500Y-10641500D01*
X19657500Y-10611500D02*
X19627500Y-10641500D01*
X19627500Y-10865500D02*
X19657500Y-10895500D01*
X19657500Y-10865500D02*
X19627500Y-10895500D01*
X19627500Y-11119500D02*
X19657500Y-11149500D01*
X19657500Y-11119500D02*
X19627500Y-11149500D01*
X19627500Y-12389500D02*
X19657500Y-12419500D01*
X19657500Y-12389500D02*
X19627500Y-12419500D01*
X19627500Y-12643500D02*
X19657500Y-12673500D01*
X19657500Y-12643500D02*
X19627500Y-12673500D01*
X19881500Y-6547500D02*
X19911500Y-6577500D01*
X19911500Y-6547500D02*
X19881500Y-6577500D01*
X19881500Y-6801500D02*
X19911500Y-6831500D01*
X19911500Y-6801500D02*
X19881500Y-6831500D01*
X19881500Y-7309500D02*
X19911500Y-7339500D01*
X19911500Y-7309500D02*
X19881500Y-7339500D01*
X19881500Y-7817500D02*
X19911500Y-7847500D01*
X19911500Y-7817500D02*
X19881500Y-7847500D01*
X19881500Y-8071500D02*
X19911500Y-8101500D01*
X19911500Y-8071500D02*
X19881500Y-8101500D01*
X19881500Y-8325500D02*
X19911500Y-8355500D01*
X19911500Y-8325500D02*
X19881500Y-8355500D01*
X19881500Y-8579500D02*
X19911500Y-8609500D01*
X19911500Y-8579500D02*
X19881500Y-8609500D01*
X19881500Y-8833500D02*
X19911500Y-8863500D01*
X19911500Y-8833500D02*
X19881500Y-8863500D01*
X19881500Y-9087500D02*
X19911500Y-9117500D01*
X19911500Y-9087500D02*
X19881500Y-9117500D01*
X19881500Y-9341500D02*
X19911500Y-9371500D01*
X19911500Y-9341500D02*
X19881500Y-9371500D01*
X19881500Y-9595500D02*
X19911500Y-9625500D01*
X19911500Y-9595500D02*
X19881500Y-9625500D01*
X19881500Y-9849500D02*
X19911500Y-9879500D01*
X19911500Y-9849500D02*
X19881500Y-9879500D01*
X19881500Y-10357500D02*
X19911500Y-10387500D01*
X19911500Y-10357500D02*
X19881500Y-10387500D01*
X19881500Y-10611500D02*
X19911500Y-10641500D01*
X19911500Y-10611500D02*
X19881500Y-10641500D01*
X19881500Y-10865500D02*
X19911500Y-10895500D01*
X19911500Y-10865500D02*
X19881500Y-10895500D01*
X19881500Y-11119500D02*
X19911500Y-11149500D01*
X19911500Y-11119500D02*
X19881500Y-11149500D01*
X19881500Y-11373500D02*
X19911500Y-11403500D01*
X19911500Y-11373500D02*
X19881500Y-11403500D01*
X19881500Y-12135500D02*
X19911500Y-12165500D01*
X19911500Y-12135500D02*
X19881500Y-12165500D01*
X19881500Y-12389500D02*
X19911500Y-12419500D01*
X19911500Y-12389500D02*
X19881500Y-12419500D01*
X19881500Y-12643500D02*
X19911500Y-12673500D01*
X19911500Y-12643500D02*
X19881500Y-12673500D01*
X19945000Y-11595000D02*
X19975000Y-11625000D01*
X19975000Y-11595000D02*
X19945000Y-11625000D01*
X20075000Y-11465000D02*
X20105000Y-11495000D01*
X20105000Y-11465000D02*
X20075000Y-11495000D01*
X20076400Y-10043400D02*
X20106400Y-10073400D01*
X20106400Y-10043400D02*
X20076400Y-10073400D01*
X20135500Y-11881500D02*
X20165500Y-11911500D01*
X20165500Y-11881500D02*
X20135500Y-11911500D01*
X20135500Y-12389500D02*
X20165500Y-12419500D01*
X20165500Y-12389500D02*
X20135500Y-12419500D01*
X20135500Y-12643500D02*
X20165500Y-12673500D01*
X20165500Y-12643500D02*
X20135500Y-12673500D01*
X20175790Y-12174210D02*
X20205790Y-12204210D01*
X20205790Y-12174210D02*
X20175790Y-12204210D01*
X20389500Y-11627500D02*
X20419500Y-11657500D01*
X20419500Y-11627500D02*
X20389500Y-11657500D01*
X20389500Y-11881500D02*
X20419500Y-11911500D01*
X20419500Y-11881500D02*
X20389500Y-11911500D01*
X20389500Y-12135500D02*
X20419500Y-12165500D01*
X20419500Y-12135500D02*
X20389500Y-12165500D01*
X20389500Y-12389500D02*
X20419500Y-12419500D01*
X20419500Y-12389500D02*
X20389500Y-12419500D01*
X20389500Y-12643500D02*
X20419500Y-12673500D01*
X20419500Y-12643500D02*
X20389500Y-12673500D01*
X20643500Y-6547500D02*
X20673500Y-6577500D01*
X20673500Y-6547500D02*
X20643500Y-6577500D01*
X20643500Y-11881500D02*
X20673500Y-11911500D01*
X20673500Y-11881500D02*
X20643500Y-11911500D01*
X20643500Y-12135500D02*
X20673500Y-12165500D01*
X20673500Y-12135500D02*
X20643500Y-12165500D01*
X20643500Y-12389500D02*
X20673500Y-12419500D01*
X20673500Y-12389500D02*
X20643500Y-12419500D01*
X20735000Y-6777000D02*
X20765000Y-6807000D01*
X20765000Y-6777000D02*
X20735000Y-6807000D01*
X20735000Y-7031000D02*
X20765000Y-7061000D01*
X20765000Y-7031000D02*
X20735000Y-7061000D01*
X20735000Y-7285000D02*
X20765000Y-7315000D01*
X20765000Y-7285000D02*
X20735000Y-7315000D01*
X20735000Y-7539000D02*
X20765000Y-7569000D01*
X20765000Y-7539000D02*
X20735000Y-7569000D01*
X20735000Y-7793000D02*
X20765000Y-7823000D01*
X20765000Y-7793000D02*
X20735000Y-7823000D01*
X20735000Y-8047000D02*
X20765000Y-8077000D01*
X20765000Y-8047000D02*
X20735000Y-8077000D01*
X20735000Y-8301000D02*
X20765000Y-8331000D01*
X20765000Y-8301000D02*
X20735000Y-8331000D01*
X20735000Y-8555000D02*
X20765000Y-8585000D01*
X20765000Y-8555000D02*
X20735000Y-8585000D01*
X20735000Y-8809000D02*
X20765000Y-8839000D01*
X20765000Y-8809000D02*
X20735000Y-8839000D01*
X20735000Y-9063000D02*
X20765000Y-9093000D01*
X20765000Y-9063000D02*
X20735000Y-9093000D01*
X20735000Y-9317000D02*
X20765000Y-9347000D01*
X20765000Y-9317000D02*
X20735000Y-9347000D01*
X20735000Y-9571000D02*
X20765000Y-9601000D01*
X20765000Y-9571000D02*
X20735000Y-9601000D01*
X20735000Y-9825000D02*
X20765000Y-9855000D01*
X20765000Y-9825000D02*
X20735000Y-9855000D01*
X20735000Y-10079000D02*
X20765000Y-10109000D01*
X20765000Y-10079000D02*
X20735000Y-10109000D01*
X20735000Y-10333000D02*
X20765000Y-10363000D01*
X20765000Y-10333000D02*
X20735000Y-10363000D01*
X20735000Y-10587000D02*
X20765000Y-10617000D01*
X20765000Y-10587000D02*
X20735000Y-10617000D01*
X20735000Y-10839000D02*
X20765000Y-10869000D01*
X20765000Y-10839000D02*
X20735000Y-10869000D01*
X20735000Y-11093000D02*
X20765000Y-11123000D01*
X20765000Y-11093000D02*
X20735000Y-11123000D01*
X20735000Y-11347000D02*
X20765000Y-11377000D01*
X20765000Y-11347000D02*
X20735000Y-11377000D01*
X20735000Y-11601000D02*
X20765000Y-11631000D01*
X20765000Y-11601000D02*
X20735000Y-11631000D01*
X17165000Y-8432800D02*
G75*
G02*
X17125000Y-8432800I-20000J0D01*
G01*
X17125000Y-8432800D02*
G75*
G02*
X17165000Y-8432800I20000J0D01*
G01*
X17266600Y-8432800D02*
G75*
G02*
X17226600Y-8432800I-20000J0D01*
G01*
X17226600Y-8432800D02*
G75*
G02*
X17266600Y-8432800I20000J0D01*
G01*
X15875000Y-7239800D02*
X15875000Y-7339800D01*
X15825000Y-7289800D02*
X15925000Y-7289800D01*
X15875000Y-7493800D02*
X15875000Y-7593800D01*
X15825000Y-7543800D02*
X15925000Y-7543800D01*
X15875000Y-7747800D02*
X15875000Y-7847800D01*
X15825000Y-7797800D02*
X15925000Y-7797800D01*
X15875000Y-8205000D02*
X15875000Y-8305000D01*
X15825000Y-8255000D02*
X15925000Y-8255000D01*
X15875000Y-8459000D02*
X15875000Y-8559000D01*
X15825000Y-8509000D02*
X15925000Y-8509000D01*
X15875000Y-8713000D02*
X15875000Y-8813000D01*
X15825000Y-8763000D02*
X15925000Y-8763000D01*
X15875000Y-8967000D02*
X15875000Y-9067000D01*
X15825000Y-9017000D02*
X15925000Y-9017000D01*
X15875000Y-9221000D02*
X15875000Y-9321000D01*
X15825000Y-9271000D02*
X15925000Y-9271000D01*
X15875000Y-9475000D02*
X15875000Y-9575000D01*
X15825000Y-9525000D02*
X15925000Y-9525000D01*
X15875000Y-9729000D02*
X15875000Y-9829000D01*
X15825000Y-9779000D02*
X15925000Y-9779000D01*
X15875000Y-9983000D02*
X15875000Y-10083000D01*
X15825000Y-10033000D02*
X15925000Y-10033000D01*
X15875000Y-10237000D02*
X15875000Y-10337000D01*
X15825000Y-10287000D02*
X15925000Y-10287000D01*
X15875000Y-10491000D02*
X15875000Y-10591000D01*
X15825000Y-10541000D02*
X15925000Y-10541000D01*
X15875000Y-10745000D02*
X15875000Y-10845000D01*
X15825000Y-10795000D02*
X15925000Y-10795000D01*
X15875000Y-10999000D02*
X15875000Y-11099000D01*
X15825000Y-11049000D02*
X15925000Y-11049000D01*
X15875000Y-11253000D02*
X15875000Y-11353000D01*
X15825000Y-11303000D02*
X15925000Y-11303000D01*
X15875000Y-11507000D02*
X15875000Y-11607000D01*
X15825000Y-11557000D02*
X15925000Y-11557000D01*
X15875000Y-11761000D02*
X15875000Y-11861000D01*
X15825000Y-11811000D02*
X15925000Y-11811000D01*
X15875000Y-12015000D02*
X15875000Y-12115000D01*
X15825000Y-12065000D02*
X15925000Y-12065000D01*
X16129000Y-7239800D02*
X16129000Y-7339800D01*
X16079000Y-7289800D02*
X16179000Y-7289800D01*
X16129000Y-7493800D02*
X16129000Y-7593800D01*
X16079000Y-7543800D02*
X16179000Y-7543800D01*
X16129000Y-7747800D02*
X16129000Y-7847800D01*
X16079000Y-7797800D02*
X16179000Y-7797800D01*
X16129000Y-8205000D02*
X16129000Y-8305000D01*
X16079000Y-8255000D02*
X16179000Y-8255000D01*
X16129000Y-8459000D02*
X16129000Y-8559000D01*
X16079000Y-8509000D02*
X16179000Y-8509000D01*
X16129000Y-8713000D02*
X16129000Y-8813000D01*
X16079000Y-8763000D02*
X16179000Y-8763000D01*
X16129000Y-8967000D02*
X16129000Y-9067000D01*
X16079000Y-9017000D02*
X16179000Y-9017000D01*
X16129000Y-9221000D02*
X16129000Y-9321000D01*
X16079000Y-9271000D02*
X16179000Y-9271000D01*
X16129000Y-9475000D02*
X16129000Y-9575000D01*
X16079000Y-9525000D02*
X16179000Y-9525000D01*
X16129000Y-9729000D02*
X16129000Y-9829000D01*
X16079000Y-9779000D02*
X16179000Y-9779000D01*
X16129000Y-9983000D02*
X16129000Y-10083000D01*
X16079000Y-10033000D02*
X16179000Y-10033000D01*
X16129000Y-10237000D02*
X16129000Y-10337000D01*
X16079000Y-10287000D02*
X16179000Y-10287000D01*
X16129000Y-10491000D02*
X16129000Y-10591000D01*
X16079000Y-10541000D02*
X16179000Y-10541000D01*
X16129000Y-10745000D02*
X16129000Y-10845000D01*
X16079000Y-10795000D02*
X16179000Y-10795000D01*
X16129000Y-10999000D02*
X16129000Y-11099000D01*
X16079000Y-11049000D02*
X16179000Y-11049000D01*
X16129000Y-11253000D02*
X16129000Y-11353000D01*
X16079000Y-11303000D02*
X16179000Y-11303000D01*
X16129000Y-11507000D02*
X16129000Y-11607000D01*
X16079000Y-11557000D02*
X16179000Y-11557000D01*
X16129000Y-11761000D02*
X16129000Y-11861000D01*
X16079000Y-11811000D02*
X16179000Y-11811000D01*
X16129000Y-12015000D02*
X16129000Y-12115000D01*
X16079000Y-12065000D02*
X16179000Y-12065000D01*
X16687800Y-6808000D02*
X16687800Y-6908000D01*
X16637800Y-6858000D02*
X16737800Y-6858000D01*
X16941800Y-6808000D02*
X16941800Y-6908000D01*
X16891800Y-6858000D02*
X16991800Y-6858000D01*
X17195800Y-6808000D02*
X17195800Y-6908000D01*
X17145800Y-6858000D02*
X17245800Y-6858000D01*
D12*
X18501863Y-6665463D02*
X18501863Y-6593337D01*
X18429737Y-6593337D01*
X18429737Y-6665463D01*
X18501863Y-6665463D01*
X18501863Y-6919463D02*
X18501863Y-6847337D01*
X18429737Y-6847337D01*
X18429737Y-6919463D01*
X18501863Y-6919463D01*
X18501863Y-7173463D02*
X18501863Y-7101337D01*
X18429737Y-7101337D01*
X18429737Y-7173463D01*
X18501863Y-7173463D01*
X18501863Y-7427463D02*
X18501863Y-7355337D01*
X18429737Y-7355337D01*
X18429737Y-7427463D01*
X18501863Y-7427463D01*
X18501863Y-7681463D02*
X18501863Y-7609337D01*
X18429737Y-7609337D01*
X18429737Y-7681463D01*
X18501863Y-7681463D01*
X18501863Y-7935463D02*
X18501863Y-7863337D01*
X18429737Y-7863337D01*
X18429737Y-7935463D01*
X18501863Y-7935463D01*
X18501863Y-8189463D02*
X18501863Y-8117337D01*
X18429737Y-8117337D01*
X18429737Y-8189463D01*
X18501863Y-8189463D01*
X18501863Y-8443463D02*
X18501863Y-8371337D01*
X18429737Y-8371337D01*
X18429737Y-8443463D01*
X18501863Y-8443463D01*
X18501863Y-8697463D02*
X18501863Y-8625337D01*
X18429737Y-8625337D01*
X18429737Y-8697463D01*
X18501863Y-8697463D01*
X18501863Y-8951463D02*
X18501863Y-8879337D01*
X18429737Y-8879337D01*
X18429737Y-8951463D01*
X18501863Y-8951463D01*
X18501863Y-9205463D02*
X18501863Y-9133337D01*
X18429737Y-9133337D01*
X18429737Y-9205463D01*
X18501863Y-9205463D01*
X18501863Y-9459463D02*
X18501863Y-9387337D01*
X18429737Y-9387337D01*
X18429737Y-9459463D01*
X18501863Y-9459463D01*
X18501863Y-9713463D02*
X18501863Y-9641337D01*
X18429737Y-9641337D01*
X18429737Y-9713463D01*
X18501863Y-9713463D01*
X18501863Y-9967463D02*
X18501863Y-9895337D01*
X18429737Y-9895337D01*
X18429737Y-9967463D01*
X18501863Y-9967463D01*
X18501863Y-10221463D02*
X18501863Y-10149337D01*
X18429737Y-10149337D01*
X18429737Y-10221463D01*
X18501863Y-10221463D01*
X18501863Y-10475463D02*
X18501863Y-10403337D01*
X18429737Y-10403337D01*
X18429737Y-10475463D01*
X18501863Y-10475463D01*
X18501863Y-10729463D02*
X18501863Y-10657337D01*
X18429737Y-10657337D01*
X18429737Y-10729463D01*
X18501863Y-10729463D01*
X18501863Y-10983463D02*
X18501863Y-10911337D01*
X18429737Y-10911337D01*
X18429737Y-10983463D01*
X18501863Y-10983463D01*
X18501863Y-11237463D02*
X18501863Y-11165337D01*
X18429737Y-11165337D01*
X18429737Y-11237463D01*
X18501863Y-11237463D01*
X18501863Y-11491463D02*
X18501863Y-11419337D01*
X18429737Y-11419337D01*
X18429737Y-11491463D01*
X18501863Y-11491463D01*
X19136863Y-11468463D02*
X19136863Y-11396337D01*
X19064737Y-11396337D01*
X19064737Y-11468463D01*
X19136863Y-11468463D01*
X19390863Y-11468463D02*
X19390863Y-11396337D01*
X19318737Y-11396337D01*
X19318737Y-11468463D01*
X19390863Y-11468463D01*
X19644863Y-11468463D02*
X19644863Y-11396337D01*
X19572737Y-11396337D01*
X19572737Y-11468463D01*
X19644863Y-11468463D01*
X20279863Y-6665463D02*
X20279863Y-6593337D01*
X20207737Y-6593337D01*
X20207737Y-6665463D01*
X20279863Y-6665463D01*
X20279863Y-6919463D02*
X20279863Y-6847337D01*
X20207737Y-6847337D01*
X20207737Y-6919463D01*
X20279863Y-6919463D01*
X20279863Y-7173463D02*
X20279863Y-7101337D01*
X20207737Y-7101337D01*
X20207737Y-7173463D01*
X20279863Y-7173463D01*
X20279863Y-7427463D02*
X20279863Y-7355337D01*
X20207737Y-7355337D01*
X20207737Y-7427463D01*
X20279863Y-7427463D01*
X20279863Y-7681463D02*
X20279863Y-7609337D01*
X20207737Y-7609337D01*
X20207737Y-7681463D01*
X20279863Y-7681463D01*
X20279863Y-7935463D02*
X20279863Y-7863337D01*
X20207737Y-7863337D01*
X20207737Y-7935463D01*
X20279863Y-7935463D01*
X20279863Y-8189463D02*
X20279863Y-8117337D01*
X20207737Y-8117337D01*
X20207737Y-8189463D01*
X20279863Y-8189463D01*
X20279863Y-8443463D02*
X20279863Y-8371337D01*
X20207737Y-8371337D01*
X20207737Y-8443463D01*
X20279863Y-8443463D01*
X20279863Y-8697463D02*
X20279863Y-8625337D01*
X20207737Y-8625337D01*
X20207737Y-8697463D01*
X20279863Y-8697463D01*
X20279863Y-8951463D02*
X20279863Y-8879337D01*
X20207737Y-8879337D01*
X20207737Y-8951463D01*
X20279863Y-8951463D01*
X20279863Y-9205463D02*
X20279863Y-9133337D01*
X20207737Y-9133337D01*
X20207737Y-9205463D01*
X20279863Y-9205463D01*
X20279863Y-9459463D02*
X20279863Y-9387337D01*
X20207737Y-9387337D01*
X20207737Y-9459463D01*
X20279863Y-9459463D01*
X20279863Y-9713463D02*
X20279863Y-9641337D01*
X20207737Y-9641337D01*
X20207737Y-9713463D01*
X20279863Y-9713463D01*
X20279863Y-9967463D02*
X20279863Y-9895337D01*
X20207737Y-9895337D01*
X20207737Y-9967463D01*
X20279863Y-9967463D01*
X20279863Y-10221463D02*
X20279863Y-10149337D01*
X20207737Y-10149337D01*
X20207737Y-10221463D01*
X20279863Y-10221463D01*
X20279863Y-10475463D02*
X20279863Y-10403337D01*
X20207737Y-10403337D01*
X20207737Y-10475463D01*
X20279863Y-10475463D01*
X20279863Y-10729463D02*
X20279863Y-10657337D01*
X20207737Y-10657337D01*
X20207737Y-10729463D01*
X20279863Y-10729463D01*
X20279863Y-10983463D02*
X20279863Y-10911337D01*
X20207737Y-10911337D01*
X20207737Y-10983463D01*
X20279863Y-10983463D01*
X20279863Y-11237463D02*
X20279863Y-11165337D01*
X20207737Y-11165337D01*
X20207737Y-11237463D01*
X20279863Y-11237463D01*
X20279863Y-11491463D02*
X20279863Y-11419337D01*
X20207737Y-11419337D01*
X20207737Y-11491463D01*
X20279863Y-11491463D01*
D11*
X15705777Y-13266484D02*
X15705777Y-13066484D01*
X15705777Y-13066484D02*
X15753396Y-13066484D01*
X15753396Y-13066484D02*
X15781967Y-13076008D01*
X15781967Y-13076008D02*
X15801015Y-13095055D01*
X15801015Y-13095055D02*
X15810539Y-13114103D01*
X15810539Y-13114103D02*
X15820062Y-13152198D01*
X15820062Y-13152198D02*
X15820062Y-13180769D01*
X15820062Y-13180769D02*
X15810539Y-13218865D01*
X15810539Y-13218865D02*
X15801015Y-13237912D01*
X15801015Y-13237912D02*
X15781967Y-13256960D01*
X15781967Y-13256960D02*
X15753396Y-13266484D01*
X15753396Y-13266484D02*
X15705777Y-13266484D01*
X15905777Y-13266484D02*
X15905777Y-13133150D01*
X15905777Y-13171246D02*
X15915301Y-13152198D01*
X15915301Y-13152198D02*
X15924824Y-13142674D01*
X15924824Y-13142674D02*
X15943872Y-13133150D01*
X15943872Y-13133150D02*
X15962920Y-13133150D01*
X16029586Y-13266484D02*
X16029586Y-13133150D01*
X16029586Y-13066484D02*
X16020062Y-13076008D01*
X16020062Y-13076008D02*
X16029586Y-13085531D01*
X16029586Y-13085531D02*
X16039110Y-13076008D01*
X16039110Y-13076008D02*
X16029586Y-13066484D01*
X16029586Y-13066484D02*
X16029586Y-13085531D01*
X16153396Y-13266484D02*
X16134348Y-13256960D01*
X16134348Y-13256960D02*
X16124824Y-13237912D01*
X16124824Y-13237912D02*
X16124824Y-13066484D01*
X16258158Y-13266484D02*
X16239110Y-13256960D01*
X16239110Y-13256960D02*
X16229586Y-13237912D01*
X16229586Y-13237912D02*
X16229586Y-13066484D01*
X16486729Y-13266484D02*
X16486729Y-13066484D01*
X16486729Y-13066484D02*
X16553396Y-13209341D01*
X16553396Y-13209341D02*
X16620062Y-13066484D01*
X16620062Y-13066484D02*
X16620062Y-13266484D01*
X16801015Y-13266484D02*
X16801015Y-13161722D01*
X16801015Y-13161722D02*
X16791491Y-13142674D01*
X16791491Y-13142674D02*
X16772443Y-13133150D01*
X16772443Y-13133150D02*
X16734348Y-13133150D01*
X16734348Y-13133150D02*
X16715301Y-13142674D01*
X16801015Y-13256960D02*
X16781967Y-13266484D01*
X16781967Y-13266484D02*
X16734348Y-13266484D01*
X16734348Y-13266484D02*
X16715301Y-13256960D01*
X16715301Y-13256960D02*
X16705777Y-13237912D01*
X16705777Y-13237912D02*
X16705777Y-13218865D01*
X16705777Y-13218865D02*
X16715301Y-13199817D01*
X16715301Y-13199817D02*
X16734348Y-13190293D01*
X16734348Y-13190293D02*
X16781967Y-13190293D01*
X16781967Y-13190293D02*
X16801015Y-13180769D01*
X16896253Y-13133150D02*
X16896253Y-13333150D01*
X16896253Y-13142674D02*
X16915301Y-13133150D01*
X16915301Y-13133150D02*
X16953396Y-13133150D01*
X16953396Y-13133150D02*
X16972444Y-13142674D01*
X16972444Y-13142674D02*
X16981967Y-13152198D01*
X16981967Y-13152198D02*
X16991491Y-13171246D01*
X16991491Y-13171246D02*
X16991491Y-13228388D01*
X16991491Y-13228388D02*
X16981967Y-13247436D01*
X16981967Y-13247436D02*
X16972444Y-13256960D01*
X16972444Y-13256960D02*
X16953396Y-13266484D01*
X16953396Y-13266484D02*
X16915301Y-13266484D01*
X16915301Y-13266484D02*
X16896253Y-13256960D01*
X17077205Y-13247436D02*
X17086729Y-13256960D01*
X17086729Y-13256960D02*
X17077205Y-13266484D01*
X17077205Y-13266484D02*
X17067682Y-13256960D01*
X17067682Y-13256960D02*
X17077205Y-13247436D01*
X17077205Y-13247436D02*
X17077205Y-13266484D01*
X17077205Y-13142674D02*
X17086729Y-13152198D01*
X17086729Y-13152198D02*
X17077205Y-13161722D01*
X17077205Y-13161722D02*
X17067682Y-13152198D01*
X17067682Y-13152198D02*
X17077205Y-13142674D01*
X17077205Y-13142674D02*
X17077205Y-13161722D01*
D10*
X15415000Y-13580000D02*
X15445000Y-13610000D01*
X15445000Y-13580000D02*
X15415000Y-13610000D01*
D11*
X15743872Y-13486484D02*
X15762920Y-13486484D01*
X15762920Y-13486484D02*
X15781967Y-13496008D01*
X15781967Y-13496008D02*
X15791491Y-13505531D01*
X15791491Y-13505531D02*
X15801015Y-13524579D01*
X15801015Y-13524579D02*
X15810539Y-13562674D01*
X15810539Y-13562674D02*
X15810539Y-13610293D01*
X15810539Y-13610293D02*
X15801015Y-13648388D01*
X15801015Y-13648388D02*
X15791491Y-13667436D01*
X15791491Y-13667436D02*
X15781967Y-13676960D01*
X15781967Y-13676960D02*
X15762920Y-13686484D01*
X15762920Y-13686484D02*
X15743872Y-13686484D01*
X15743872Y-13686484D02*
X15724824Y-13676960D01*
X15724824Y-13676960D02*
X15715301Y-13667436D01*
X15715301Y-13667436D02*
X15705777Y-13648388D01*
X15705777Y-13648388D02*
X15696253Y-13610293D01*
X15696253Y-13610293D02*
X15696253Y-13562674D01*
X15696253Y-13562674D02*
X15705777Y-13524579D01*
X15705777Y-13524579D02*
X15715301Y-13505531D01*
X15715301Y-13505531D02*
X15724824Y-13496008D01*
X15724824Y-13496008D02*
X15743872Y-13486484D01*
X15896253Y-13667436D02*
X15905777Y-13676960D01*
X15905777Y-13676960D02*
X15896253Y-13686484D01*
X15896253Y-13686484D02*
X15886729Y-13676960D01*
X15886729Y-13676960D02*
X15896253Y-13667436D01*
X15896253Y-13667436D02*
X15896253Y-13686484D01*
X15972443Y-13486484D02*
X16096253Y-13486484D01*
X16096253Y-13486484D02*
X16029586Y-13562674D01*
X16029586Y-13562674D02*
X16058158Y-13562674D01*
X16058158Y-13562674D02*
X16077205Y-13572198D01*
X16077205Y-13572198D02*
X16086729Y-13581722D01*
X16086729Y-13581722D02*
X16096253Y-13600769D01*
X16096253Y-13600769D02*
X16096253Y-13648388D01*
X16096253Y-13648388D02*
X16086729Y-13667436D01*
X16086729Y-13667436D02*
X16077205Y-13676960D01*
X16077205Y-13676960D02*
X16058158Y-13686484D01*
X16058158Y-13686484D02*
X16001015Y-13686484D01*
X16001015Y-13686484D02*
X15981967Y-13676960D01*
X15981967Y-13676960D02*
X15972443Y-13667436D01*
X16220062Y-13486484D02*
X16239110Y-13486484D01*
X16239110Y-13486484D02*
X16258158Y-13496008D01*
X16258158Y-13496008D02*
X16267682Y-13505531D01*
X16267682Y-13505531D02*
X16277205Y-13524579D01*
X16277205Y-13524579D02*
X16286729Y-13562674D01*
X16286729Y-13562674D02*
X16286729Y-13610293D01*
X16286729Y-13610293D02*
X16277205Y-13648388D01*
X16277205Y-13648388D02*
X16267682Y-13667436D01*
X16267682Y-13667436D02*
X16258158Y-13676960D01*
X16258158Y-13676960D02*
X16239110Y-13686484D01*
X16239110Y-13686484D02*
X16220062Y-13686484D01*
X16220062Y-13686484D02*
X16201015Y-13676960D01*
X16201015Y-13676960D02*
X16191491Y-13667436D01*
X16191491Y-13667436D02*
X16181967Y-13648388D01*
X16181967Y-13648388D02*
X16172443Y-13610293D01*
X16172443Y-13610293D02*
X16172443Y-13562674D01*
X16172443Y-13562674D02*
X16181967Y-13524579D01*
X16181967Y-13524579D02*
X16191491Y-13505531D01*
X16191491Y-13505531D02*
X16201015Y-13496008D01*
X16201015Y-13496008D02*
X16220062Y-13486484D01*
X16410539Y-13486484D02*
X16429586Y-13486484D01*
X16429586Y-13486484D02*
X16448634Y-13496008D01*
X16448634Y-13496008D02*
X16458158Y-13505531D01*
X16458158Y-13505531D02*
X16467682Y-13524579D01*
X16467682Y-13524579D02*
X16477205Y-13562674D01*
X16477205Y-13562674D02*
X16477205Y-13610293D01*
X16477205Y-13610293D02*
X16467682Y-13648388D01*
X16467682Y-13648388D02*
X16458158Y-13667436D01*
X16458158Y-13667436D02*
X16448634Y-13676960D01*
X16448634Y-13676960D02*
X16429586Y-13686484D01*
X16429586Y-13686484D02*
X16410539Y-13686484D01*
X16410539Y-13686484D02*
X16391491Y-13676960D01*
X16391491Y-13676960D02*
X16381967Y-13667436D01*
X16381967Y-13667436D02*
X16372443Y-13648388D01*
X16372443Y-13648388D02*
X16362920Y-13610293D01*
X16362920Y-13610293D02*
X16362920Y-13562674D01*
X16362920Y-13562674D02*
X16372443Y-13524579D01*
X16372443Y-13524579D02*
X16381967Y-13505531D01*
X16381967Y-13505531D02*
X16391491Y-13496008D01*
X16391491Y-13496008D02*
X16410539Y-13486484D01*
X16562920Y-13686484D02*
X16562920Y-13553150D01*
X16562920Y-13572198D02*
X16572443Y-13562674D01*
X16572443Y-13562674D02*
X16591491Y-13553150D01*
X16591491Y-13553150D02*
X16620063Y-13553150D01*
X16620063Y-13553150D02*
X16639110Y-13562674D01*
X16639110Y-13562674D02*
X16648634Y-13581722D01*
X16648634Y-13581722D02*
X16648634Y-13686484D01*
X16648634Y-13581722D02*
X16658158Y-13562674D01*
X16658158Y-13562674D02*
X16677205Y-13553150D01*
X16677205Y-13553150D02*
X16705777Y-13553150D01*
X16705777Y-13553150D02*
X16724824Y-13562674D01*
X16724824Y-13562674D02*
X16734348Y-13581722D01*
X16734348Y-13581722D02*
X16734348Y-13686484D01*
X16829586Y-13686484D02*
X16829586Y-13553150D01*
X16829586Y-13572198D02*
X16839110Y-13562674D01*
X16839110Y-13562674D02*
X16858158Y-13553150D01*
X16858158Y-13553150D02*
X16886729Y-13553150D01*
X16886729Y-13553150D02*
X16905777Y-13562674D01*
X16905777Y-13562674D02*
X16915301Y-13581722D01*
X16915301Y-13581722D02*
X16915301Y-13686484D01*
X16915301Y-13581722D02*
X16924825Y-13562674D01*
X16924825Y-13562674D02*
X16943872Y-13553150D01*
X16943872Y-13553150D02*
X16972444Y-13553150D01*
X16972444Y-13553150D02*
X16991491Y-13562674D01*
X16991491Y-13562674D02*
X17001015Y-13581722D01*
X17001015Y-13581722D02*
X17001015Y-13686484D01*
X17391491Y-13476960D02*
X17220063Y-13734103D01*
X17648634Y-13486484D02*
X17667682Y-13486484D01*
X17667682Y-13486484D02*
X17686729Y-13496008D01*
X17686729Y-13496008D02*
X17696253Y-13505531D01*
X17696253Y-13505531D02*
X17705777Y-13524579D01*
X17705777Y-13524579D02*
X17715301Y-13562674D01*
X17715301Y-13562674D02*
X17715301Y-13610293D01*
X17715301Y-13610293D02*
X17705777Y-13648388D01*
X17705777Y-13648388D02*
X17696253Y-13667436D01*
X17696253Y-13667436D02*
X17686729Y-13676960D01*
X17686729Y-13676960D02*
X17667682Y-13686484D01*
X17667682Y-13686484D02*
X17648634Y-13686484D01*
X17648634Y-13686484D02*
X17629587Y-13676960D01*
X17629587Y-13676960D02*
X17620063Y-13667436D01*
X17620063Y-13667436D02*
X17610539Y-13648388D01*
X17610539Y-13648388D02*
X17601015Y-13610293D01*
X17601015Y-13610293D02*
X17601015Y-13562674D01*
X17601015Y-13562674D02*
X17610539Y-13524579D01*
X17610539Y-13524579D02*
X17620063Y-13505531D01*
X17620063Y-13505531D02*
X17629587Y-13496008D01*
X17629587Y-13496008D02*
X17648634Y-13486484D01*
X17801015Y-13667436D02*
X17810539Y-13676960D01*
X17810539Y-13676960D02*
X17801015Y-13686484D01*
X17801015Y-13686484D02*
X17791491Y-13676960D01*
X17791491Y-13676960D02*
X17801015Y-13667436D01*
X17801015Y-13667436D02*
X17801015Y-13686484D01*
X17934348Y-13486484D02*
X17953396Y-13486484D01*
X17953396Y-13486484D02*
X17972444Y-13496008D01*
X17972444Y-13496008D02*
X17981968Y-13505531D01*
X17981968Y-13505531D02*
X17991491Y-13524579D01*
X17991491Y-13524579D02*
X18001015Y-13562674D01*
X18001015Y-13562674D02*
X18001015Y-13610293D01*
X18001015Y-13610293D02*
X17991491Y-13648388D01*
X17991491Y-13648388D02*
X17981968Y-13667436D01*
X17981968Y-13667436D02*
X17972444Y-13676960D01*
X17972444Y-13676960D02*
X17953396Y-13686484D01*
X17953396Y-13686484D02*
X17934348Y-13686484D01*
X17934348Y-13686484D02*
X17915301Y-13676960D01*
X17915301Y-13676960D02*
X17905777Y-13667436D01*
X17905777Y-13667436D02*
X17896253Y-13648388D01*
X17896253Y-13648388D02*
X17886729Y-13610293D01*
X17886729Y-13610293D02*
X17886729Y-13562674D01*
X17886729Y-13562674D02*
X17896253Y-13524579D01*
X17896253Y-13524579D02*
X17905777Y-13505531D01*
X17905777Y-13505531D02*
X17915301Y-13496008D01*
X17915301Y-13496008D02*
X17934348Y-13486484D01*
X18191491Y-13686484D02*
X18077206Y-13686484D01*
X18134348Y-13686484D02*
X18134348Y-13486484D01*
X18134348Y-13486484D02*
X18115301Y-13515055D01*
X18115301Y-13515055D02*
X18096253Y-13534103D01*
X18096253Y-13534103D02*
X18077206Y-13543627D01*
X18381968Y-13686484D02*
X18267682Y-13686484D01*
X18324825Y-13686484D02*
X18324825Y-13486484D01*
X18324825Y-13486484D02*
X18305777Y-13515055D01*
X18305777Y-13515055D02*
X18286729Y-13534103D01*
X18286729Y-13534103D02*
X18267682Y-13543627D01*
X18496253Y-13572198D02*
X18477206Y-13562674D01*
X18477206Y-13562674D02*
X18467682Y-13553150D01*
X18467682Y-13553150D02*
X18458158Y-13534103D01*
X18458158Y-13534103D02*
X18458158Y-13524579D01*
X18458158Y-13524579D02*
X18467682Y-13505531D01*
X18467682Y-13505531D02*
X18477206Y-13496008D01*
X18477206Y-13496008D02*
X18496253Y-13486484D01*
X18496253Y-13486484D02*
X18534349Y-13486484D01*
X18534349Y-13486484D02*
X18553396Y-13496008D01*
X18553396Y-13496008D02*
X18562920Y-13505531D01*
X18562920Y-13505531D02*
X18572444Y-13524579D01*
X18572444Y-13524579D02*
X18572444Y-13534103D01*
X18572444Y-13534103D02*
X18562920Y-13553150D01*
X18562920Y-13553150D02*
X18553396Y-13562674D01*
X18553396Y-13562674D02*
X18534349Y-13572198D01*
X18534349Y-13572198D02*
X18496253Y-13572198D01*
X18496253Y-13572198D02*
X18477206Y-13581722D01*
X18477206Y-13581722D02*
X18467682Y-13591246D01*
X18467682Y-13591246D02*
X18458158Y-13610293D01*
X18458158Y-13610293D02*
X18458158Y-13648388D01*
X18458158Y-13648388D02*
X18467682Y-13667436D01*
X18467682Y-13667436D02*
X18477206Y-13676960D01*
X18477206Y-13676960D02*
X18496253Y-13686484D01*
X18496253Y-13686484D02*
X18534349Y-13686484D01*
X18534349Y-13686484D02*
X18553396Y-13676960D01*
X18553396Y-13676960D02*
X18562920Y-13667436D01*
X18562920Y-13667436D02*
X18572444Y-13648388D01*
X18572444Y-13648388D02*
X18572444Y-13610293D01*
X18572444Y-13610293D02*
X18562920Y-13591246D01*
X18562920Y-13591246D02*
X18553396Y-13581722D01*
X18553396Y-13581722D02*
X18534349Y-13572198D01*
X18648634Y-13486484D02*
X18648634Y-13524579D01*
X18724825Y-13486484D02*
X18724825Y-13524579D01*
X19020063Y-13762674D02*
X19010539Y-13753150D01*
X19010539Y-13753150D02*
X18991491Y-13724579D01*
X18991491Y-13724579D02*
X18981968Y-13705531D01*
X18981968Y-13705531D02*
X18972444Y-13676960D01*
X18972444Y-13676960D02*
X18962920Y-13629341D01*
X18962920Y-13629341D02*
X18962920Y-13591246D01*
X18962920Y-13591246D02*
X18972444Y-13543627D01*
X18972444Y-13543627D02*
X18981968Y-13515055D01*
X18981968Y-13515055D02*
X18991491Y-13496008D01*
X18991491Y-13496008D02*
X19010539Y-13467436D01*
X19010539Y-13467436D02*
X19020063Y-13457912D01*
X19077206Y-13486484D02*
X19201015Y-13486484D01*
X19201015Y-13486484D02*
X19134349Y-13562674D01*
X19134349Y-13562674D02*
X19162920Y-13562674D01*
X19162920Y-13562674D02*
X19181968Y-13572198D01*
X19181968Y-13572198D02*
X19191491Y-13581722D01*
X19191491Y-13581722D02*
X19201015Y-13600769D01*
X19201015Y-13600769D02*
X19201015Y-13648388D01*
X19201015Y-13648388D02*
X19191491Y-13667436D01*
X19191491Y-13667436D02*
X19181968Y-13676960D01*
X19181968Y-13676960D02*
X19162920Y-13686484D01*
X19162920Y-13686484D02*
X19105777Y-13686484D01*
X19105777Y-13686484D02*
X19086730Y-13676960D01*
X19086730Y-13676960D02*
X19077206Y-13667436D01*
X19324825Y-13486484D02*
X19343872Y-13486484D01*
X19343872Y-13486484D02*
X19362920Y-13496008D01*
X19362920Y-13496008D02*
X19372444Y-13505531D01*
X19372444Y-13505531D02*
X19381968Y-13524579D01*
X19381968Y-13524579D02*
X19391491Y-13562674D01*
X19391491Y-13562674D02*
X19391491Y-13610293D01*
X19391491Y-13610293D02*
X19381968Y-13648388D01*
X19381968Y-13648388D02*
X19372444Y-13667436D01*
X19372444Y-13667436D02*
X19362920Y-13676960D01*
X19362920Y-13676960D02*
X19343872Y-13686484D01*
X19343872Y-13686484D02*
X19324825Y-13686484D01*
X19324825Y-13686484D02*
X19305777Y-13676960D01*
X19305777Y-13676960D02*
X19296253Y-13667436D01*
X19296253Y-13667436D02*
X19286730Y-13648388D01*
X19286730Y-13648388D02*
X19277206Y-13610293D01*
X19277206Y-13610293D02*
X19277206Y-13562674D01*
X19277206Y-13562674D02*
X19286730Y-13524579D01*
X19286730Y-13524579D02*
X19296253Y-13505531D01*
X19296253Y-13505531D02*
X19305777Y-13496008D01*
X19305777Y-13496008D02*
X19324825Y-13486484D01*
X19467682Y-13505531D02*
X19477206Y-13496008D01*
X19477206Y-13496008D02*
X19496253Y-13486484D01*
X19496253Y-13486484D02*
X19543872Y-13486484D01*
X19543872Y-13486484D02*
X19562920Y-13496008D01*
X19562920Y-13496008D02*
X19572444Y-13505531D01*
X19572444Y-13505531D02*
X19581968Y-13524579D01*
X19581968Y-13524579D02*
X19581968Y-13543627D01*
X19581968Y-13543627D02*
X19572444Y-13572198D01*
X19572444Y-13572198D02*
X19458158Y-13686484D01*
X19458158Y-13686484D02*
X19581968Y-13686484D01*
X19820063Y-13686484D02*
X19820063Y-13486484D01*
X19905777Y-13686484D02*
X19905777Y-13581722D01*
X19905777Y-13581722D02*
X19896253Y-13562674D01*
X19896253Y-13562674D02*
X19877206Y-13553150D01*
X19877206Y-13553150D02*
X19848634Y-13553150D01*
X19848634Y-13553150D02*
X19829587Y-13562674D01*
X19829587Y-13562674D02*
X19820063Y-13572198D01*
X20029587Y-13686484D02*
X20010539Y-13676960D01*
X20010539Y-13676960D02*
X20001015Y-13667436D01*
X20001015Y-13667436D02*
X19991492Y-13648388D01*
X19991492Y-13648388D02*
X19991492Y-13591246D01*
X19991492Y-13591246D02*
X20001015Y-13572198D01*
X20001015Y-13572198D02*
X20010539Y-13562674D01*
X20010539Y-13562674D02*
X20029587Y-13553150D01*
X20029587Y-13553150D02*
X20058158Y-13553150D01*
X20058158Y-13553150D02*
X20077206Y-13562674D01*
X20077206Y-13562674D02*
X20086730Y-13572198D01*
X20086730Y-13572198D02*
X20096253Y-13591246D01*
X20096253Y-13591246D02*
X20096253Y-13648388D01*
X20096253Y-13648388D02*
X20086730Y-13667436D01*
X20086730Y-13667436D02*
X20077206Y-13676960D01*
X20077206Y-13676960D02*
X20058158Y-13686484D01*
X20058158Y-13686484D02*
X20029587Y-13686484D01*
X20210539Y-13686484D02*
X20191492Y-13676960D01*
X20191492Y-13676960D02*
X20181968Y-13657912D01*
X20181968Y-13657912D02*
X20181968Y-13486484D01*
X20362920Y-13676960D02*
X20343873Y-13686484D01*
X20343873Y-13686484D02*
X20305777Y-13686484D01*
X20305777Y-13686484D02*
X20286730Y-13676960D01*
X20286730Y-13676960D02*
X20277206Y-13657912D01*
X20277206Y-13657912D02*
X20277206Y-13581722D01*
X20277206Y-13581722D02*
X20286730Y-13562674D01*
X20286730Y-13562674D02*
X20305777Y-13553150D01*
X20305777Y-13553150D02*
X20343873Y-13553150D01*
X20343873Y-13553150D02*
X20362920Y-13562674D01*
X20362920Y-13562674D02*
X20372444Y-13581722D01*
X20372444Y-13581722D02*
X20372444Y-13600769D01*
X20372444Y-13600769D02*
X20277206Y-13619817D01*
X20448634Y-13676960D02*
X20467682Y-13686484D01*
X20467682Y-13686484D02*
X20505777Y-13686484D01*
X20505777Y-13686484D02*
X20524825Y-13676960D01*
X20524825Y-13676960D02*
X20534349Y-13657912D01*
X20534349Y-13657912D02*
X20534349Y-13648388D01*
X20534349Y-13648388D02*
X20524825Y-13629341D01*
X20524825Y-13629341D02*
X20505777Y-13619817D01*
X20505777Y-13619817D02*
X20477206Y-13619817D01*
X20477206Y-13619817D02*
X20458158Y-13610293D01*
X20458158Y-13610293D02*
X20448634Y-13591246D01*
X20448634Y-13591246D02*
X20448634Y-13581722D01*
X20448634Y-13581722D02*
X20458158Y-13562674D01*
X20458158Y-13562674D02*
X20477206Y-13553150D01*
X20477206Y-13553150D02*
X20505777Y-13553150D01*
X20505777Y-13553150D02*
X20524825Y-13562674D01*
X20601015Y-13762674D02*
X20610539Y-13753150D01*
X20610539Y-13753150D02*
X20629587Y-13724579D01*
X20629587Y-13724579D02*
X20639111Y-13705531D01*
X20639111Y-13705531D02*
X20648634Y-13676960D01*
X20648634Y-13676960D02*
X20658158Y-13629341D01*
X20658158Y-13629341D02*
X20658158Y-13591246D01*
X20658158Y-13591246D02*
X20648634Y-13543627D01*
X20648634Y-13543627D02*
X20639111Y-13515055D01*
X20639111Y-13515055D02*
X20629587Y-13496008D01*
X20629587Y-13496008D02*
X20610539Y-13467436D01*
X20610539Y-13467436D02*
X20601015Y-13457912D01*
D10*
X15445000Y-13859000D02*
G75*
G02*
X15405000Y-13859000I-20000J0D01*
G01*
X15405000Y-13859000D02*
G75*
G02*
X15445000Y-13859000I20000J0D01*
G01*
D11*
X15743872Y-13750484D02*
X15762920Y-13750484D01*
X15762920Y-13750484D02*
X15781967Y-13760008D01*
X15781967Y-13760008D02*
X15791491Y-13769531D01*
X15791491Y-13769531D02*
X15801015Y-13788579D01*
X15801015Y-13788579D02*
X15810539Y-13826674D01*
X15810539Y-13826674D02*
X15810539Y-13874293D01*
X15810539Y-13874293D02*
X15801015Y-13912388D01*
X15801015Y-13912388D02*
X15791491Y-13931436D01*
X15791491Y-13931436D02*
X15781967Y-13940960D01*
X15781967Y-13940960D02*
X15762920Y-13950484D01*
X15762920Y-13950484D02*
X15743872Y-13950484D01*
X15743872Y-13950484D02*
X15724824Y-13940960D01*
X15724824Y-13940960D02*
X15715301Y-13931436D01*
X15715301Y-13931436D02*
X15705777Y-13912388D01*
X15705777Y-13912388D02*
X15696253Y-13874293D01*
X15696253Y-13874293D02*
X15696253Y-13826674D01*
X15696253Y-13826674D02*
X15705777Y-13788579D01*
X15705777Y-13788579D02*
X15715301Y-13769531D01*
X15715301Y-13769531D02*
X15724824Y-13760008D01*
X15724824Y-13760008D02*
X15743872Y-13750484D01*
X15896253Y-13931436D02*
X15905777Y-13940960D01*
X15905777Y-13940960D02*
X15896253Y-13950484D01*
X15896253Y-13950484D02*
X15886729Y-13940960D01*
X15886729Y-13940960D02*
X15896253Y-13931436D01*
X15896253Y-13931436D02*
X15896253Y-13950484D01*
X16077205Y-13817150D02*
X16077205Y-13950484D01*
X16029586Y-13740960D02*
X15981967Y-13883817D01*
X15981967Y-13883817D02*
X16105777Y-13883817D01*
X16220062Y-13750484D02*
X16239110Y-13750484D01*
X16239110Y-13750484D02*
X16258158Y-13760008D01*
X16258158Y-13760008D02*
X16267682Y-13769531D01*
X16267682Y-13769531D02*
X16277205Y-13788579D01*
X16277205Y-13788579D02*
X16286729Y-13826674D01*
X16286729Y-13826674D02*
X16286729Y-13874293D01*
X16286729Y-13874293D02*
X16277205Y-13912388D01*
X16277205Y-13912388D02*
X16267682Y-13931436D01*
X16267682Y-13931436D02*
X16258158Y-13940960D01*
X16258158Y-13940960D02*
X16239110Y-13950484D01*
X16239110Y-13950484D02*
X16220062Y-13950484D01*
X16220062Y-13950484D02*
X16201015Y-13940960D01*
X16201015Y-13940960D02*
X16191491Y-13931436D01*
X16191491Y-13931436D02*
X16181967Y-13912388D01*
X16181967Y-13912388D02*
X16172443Y-13874293D01*
X16172443Y-13874293D02*
X16172443Y-13826674D01*
X16172443Y-13826674D02*
X16181967Y-13788579D01*
X16181967Y-13788579D02*
X16191491Y-13769531D01*
X16191491Y-13769531D02*
X16201015Y-13760008D01*
X16201015Y-13760008D02*
X16220062Y-13750484D01*
X16410539Y-13750484D02*
X16429586Y-13750484D01*
X16429586Y-13750484D02*
X16448634Y-13760008D01*
X16448634Y-13760008D02*
X16458158Y-13769531D01*
X16458158Y-13769531D02*
X16467682Y-13788579D01*
X16467682Y-13788579D02*
X16477205Y-13826674D01*
X16477205Y-13826674D02*
X16477205Y-13874293D01*
X16477205Y-13874293D02*
X16467682Y-13912388D01*
X16467682Y-13912388D02*
X16458158Y-13931436D01*
X16458158Y-13931436D02*
X16448634Y-13940960D01*
X16448634Y-13940960D02*
X16429586Y-13950484D01*
X16429586Y-13950484D02*
X16410539Y-13950484D01*
X16410539Y-13950484D02*
X16391491Y-13940960D01*
X16391491Y-13940960D02*
X16381967Y-13931436D01*
X16381967Y-13931436D02*
X16372443Y-13912388D01*
X16372443Y-13912388D02*
X16362920Y-13874293D01*
X16362920Y-13874293D02*
X16362920Y-13826674D01*
X16362920Y-13826674D02*
X16372443Y-13788579D01*
X16372443Y-13788579D02*
X16381967Y-13769531D01*
X16381967Y-13769531D02*
X16391491Y-13760008D01*
X16391491Y-13760008D02*
X16410539Y-13750484D01*
X16562920Y-13950484D02*
X16562920Y-13817150D01*
X16562920Y-13836198D02*
X16572443Y-13826674D01*
X16572443Y-13826674D02*
X16591491Y-13817150D01*
X16591491Y-13817150D02*
X16620063Y-13817150D01*
X16620063Y-13817150D02*
X16639110Y-13826674D01*
X16639110Y-13826674D02*
X16648634Y-13845722D01*
X16648634Y-13845722D02*
X16648634Y-13950484D01*
X16648634Y-13845722D02*
X16658158Y-13826674D01*
X16658158Y-13826674D02*
X16677205Y-13817150D01*
X16677205Y-13817150D02*
X16705777Y-13817150D01*
X16705777Y-13817150D02*
X16724824Y-13826674D01*
X16724824Y-13826674D02*
X16734348Y-13845722D01*
X16734348Y-13845722D02*
X16734348Y-13950484D01*
X16829586Y-13950484D02*
X16829586Y-13817150D01*
X16829586Y-13836198D02*
X16839110Y-13826674D01*
X16839110Y-13826674D02*
X16858158Y-13817150D01*
X16858158Y-13817150D02*
X16886729Y-13817150D01*
X16886729Y-13817150D02*
X16905777Y-13826674D01*
X16905777Y-13826674D02*
X16915301Y-13845722D01*
X16915301Y-13845722D02*
X16915301Y-13950484D01*
X16915301Y-13845722D02*
X16924825Y-13826674D01*
X16924825Y-13826674D02*
X16943872Y-13817150D01*
X16943872Y-13817150D02*
X16972444Y-13817150D01*
X16972444Y-13817150D02*
X16991491Y-13826674D01*
X16991491Y-13826674D02*
X17001015Y-13845722D01*
X17001015Y-13845722D02*
X17001015Y-13950484D01*
X17391491Y-13740960D02*
X17220063Y-13998103D01*
X17648634Y-13750484D02*
X17667682Y-13750484D01*
X17667682Y-13750484D02*
X17686729Y-13760008D01*
X17686729Y-13760008D02*
X17696253Y-13769531D01*
X17696253Y-13769531D02*
X17705777Y-13788579D01*
X17705777Y-13788579D02*
X17715301Y-13826674D01*
X17715301Y-13826674D02*
X17715301Y-13874293D01*
X17715301Y-13874293D02*
X17705777Y-13912388D01*
X17705777Y-13912388D02*
X17696253Y-13931436D01*
X17696253Y-13931436D02*
X17686729Y-13940960D01*
X17686729Y-13940960D02*
X17667682Y-13950484D01*
X17667682Y-13950484D02*
X17648634Y-13950484D01*
X17648634Y-13950484D02*
X17629587Y-13940960D01*
X17629587Y-13940960D02*
X17620063Y-13931436D01*
X17620063Y-13931436D02*
X17610539Y-13912388D01*
X17610539Y-13912388D02*
X17601015Y-13874293D01*
X17601015Y-13874293D02*
X17601015Y-13826674D01*
X17601015Y-13826674D02*
X17610539Y-13788579D01*
X17610539Y-13788579D02*
X17620063Y-13769531D01*
X17620063Y-13769531D02*
X17629587Y-13760008D01*
X17629587Y-13760008D02*
X17648634Y-13750484D01*
X17801015Y-13931436D02*
X17810539Y-13940960D01*
X17810539Y-13940960D02*
X17801015Y-13950484D01*
X17801015Y-13950484D02*
X17791491Y-13940960D01*
X17791491Y-13940960D02*
X17801015Y-13931436D01*
X17801015Y-13931436D02*
X17801015Y-13950484D01*
X17934348Y-13750484D02*
X17953396Y-13750484D01*
X17953396Y-13750484D02*
X17972444Y-13760008D01*
X17972444Y-13760008D02*
X17981968Y-13769531D01*
X17981968Y-13769531D02*
X17991491Y-13788579D01*
X17991491Y-13788579D02*
X18001015Y-13826674D01*
X18001015Y-13826674D02*
X18001015Y-13874293D01*
X18001015Y-13874293D02*
X17991491Y-13912388D01*
X17991491Y-13912388D02*
X17981968Y-13931436D01*
X17981968Y-13931436D02*
X17972444Y-13940960D01*
X17972444Y-13940960D02*
X17953396Y-13950484D01*
X17953396Y-13950484D02*
X17934348Y-13950484D01*
X17934348Y-13950484D02*
X17915301Y-13940960D01*
X17915301Y-13940960D02*
X17905777Y-13931436D01*
X17905777Y-13931436D02*
X17896253Y-13912388D01*
X17896253Y-13912388D02*
X17886729Y-13874293D01*
X17886729Y-13874293D02*
X17886729Y-13826674D01*
X17886729Y-13826674D02*
X17896253Y-13788579D01*
X17896253Y-13788579D02*
X17905777Y-13769531D01*
X17905777Y-13769531D02*
X17915301Y-13760008D01*
X17915301Y-13760008D02*
X17934348Y-13750484D01*
X18191491Y-13950484D02*
X18077206Y-13950484D01*
X18134348Y-13950484D02*
X18134348Y-13750484D01*
X18134348Y-13750484D02*
X18115301Y-13779055D01*
X18115301Y-13779055D02*
X18096253Y-13798103D01*
X18096253Y-13798103D02*
X18077206Y-13807627D01*
X18372444Y-13750484D02*
X18277206Y-13750484D01*
X18277206Y-13750484D02*
X18267682Y-13845722D01*
X18267682Y-13845722D02*
X18277206Y-13836198D01*
X18277206Y-13836198D02*
X18296253Y-13826674D01*
X18296253Y-13826674D02*
X18343872Y-13826674D01*
X18343872Y-13826674D02*
X18362920Y-13836198D01*
X18362920Y-13836198D02*
X18372444Y-13845722D01*
X18372444Y-13845722D02*
X18381968Y-13864769D01*
X18381968Y-13864769D02*
X18381968Y-13912388D01*
X18381968Y-13912388D02*
X18372444Y-13931436D01*
X18372444Y-13931436D02*
X18362920Y-13940960D01*
X18362920Y-13940960D02*
X18343872Y-13950484D01*
X18343872Y-13950484D02*
X18296253Y-13950484D01*
X18296253Y-13950484D02*
X18277206Y-13940960D01*
X18277206Y-13940960D02*
X18267682Y-13931436D01*
X18448634Y-13750484D02*
X18581968Y-13750484D01*
X18581968Y-13750484D02*
X18496253Y-13950484D01*
X18648634Y-13750484D02*
X18648634Y-13788579D01*
X18724825Y-13750484D02*
X18724825Y-13788579D01*
X19020063Y-14026674D02*
X19010539Y-14017150D01*
X19010539Y-14017150D02*
X18991491Y-13988579D01*
X18991491Y-13988579D02*
X18981968Y-13969531D01*
X18981968Y-13969531D02*
X18972444Y-13940960D01*
X18972444Y-13940960D02*
X18962920Y-13893341D01*
X18962920Y-13893341D02*
X18962920Y-13855246D01*
X18962920Y-13855246D02*
X18972444Y-13807627D01*
X18972444Y-13807627D02*
X18981968Y-13779055D01*
X18981968Y-13779055D02*
X18991491Y-13760008D01*
X18991491Y-13760008D02*
X19010539Y-13731436D01*
X19010539Y-13731436D02*
X19020063Y-13721912D01*
X19086730Y-13769531D02*
X19096253Y-13760008D01*
X19096253Y-13760008D02*
X19115301Y-13750484D01*
X19115301Y-13750484D02*
X19162920Y-13750484D01*
X19162920Y-13750484D02*
X19181968Y-13760008D01*
X19181968Y-13760008D02*
X19191491Y-13769531D01*
X19191491Y-13769531D02*
X19201015Y-13788579D01*
X19201015Y-13788579D02*
X19201015Y-13807627D01*
X19201015Y-13807627D02*
X19191491Y-13836198D01*
X19191491Y-13836198D02*
X19077206Y-13950484D01*
X19077206Y-13950484D02*
X19201015Y-13950484D01*
X19439111Y-13950484D02*
X19439111Y-13750484D01*
X19524825Y-13950484D02*
X19524825Y-13845722D01*
X19524825Y-13845722D02*
X19515301Y-13826674D01*
X19515301Y-13826674D02*
X19496253Y-13817150D01*
X19496253Y-13817150D02*
X19467682Y-13817150D01*
X19467682Y-13817150D02*
X19448634Y-13826674D01*
X19448634Y-13826674D02*
X19439111Y-13836198D01*
X19648634Y-13950484D02*
X19629587Y-13940960D01*
X19629587Y-13940960D02*
X19620063Y-13931436D01*
X19620063Y-13931436D02*
X19610539Y-13912388D01*
X19610539Y-13912388D02*
X19610539Y-13855246D01*
X19610539Y-13855246D02*
X19620063Y-13836198D01*
X19620063Y-13836198D02*
X19629587Y-13826674D01*
X19629587Y-13826674D02*
X19648634Y-13817150D01*
X19648634Y-13817150D02*
X19677206Y-13817150D01*
X19677206Y-13817150D02*
X19696253Y-13826674D01*
X19696253Y-13826674D02*
X19705777Y-13836198D01*
X19705777Y-13836198D02*
X19715301Y-13855246D01*
X19715301Y-13855246D02*
X19715301Y-13912388D01*
X19715301Y-13912388D02*
X19705777Y-13931436D01*
X19705777Y-13931436D02*
X19696253Y-13940960D01*
X19696253Y-13940960D02*
X19677206Y-13950484D01*
X19677206Y-13950484D02*
X19648634Y-13950484D01*
X19829587Y-13950484D02*
X19810539Y-13940960D01*
X19810539Y-13940960D02*
X19801015Y-13921912D01*
X19801015Y-13921912D02*
X19801015Y-13750484D01*
X19981968Y-13940960D02*
X19962920Y-13950484D01*
X19962920Y-13950484D02*
X19924825Y-13950484D01*
X19924825Y-13950484D02*
X19905777Y-13940960D01*
X19905777Y-13940960D02*
X19896253Y-13921912D01*
X19896253Y-13921912D02*
X19896253Y-13845722D01*
X19896253Y-13845722D02*
X19905777Y-13826674D01*
X19905777Y-13826674D02*
X19924825Y-13817150D01*
X19924825Y-13817150D02*
X19962920Y-13817150D01*
X19962920Y-13817150D02*
X19981968Y-13826674D01*
X19981968Y-13826674D02*
X19991492Y-13845722D01*
X19991492Y-13845722D02*
X19991492Y-13864769D01*
X19991492Y-13864769D02*
X19896253Y-13883817D01*
X20067682Y-13940960D02*
X20086730Y-13950484D01*
X20086730Y-13950484D02*
X20124825Y-13950484D01*
X20124825Y-13950484D02*
X20143873Y-13940960D01*
X20143873Y-13940960D02*
X20153396Y-13921912D01*
X20153396Y-13921912D02*
X20153396Y-13912388D01*
X20153396Y-13912388D02*
X20143873Y-13893341D01*
X20143873Y-13893341D02*
X20124825Y-13883817D01*
X20124825Y-13883817D02*
X20096253Y-13883817D01*
X20096253Y-13883817D02*
X20077206Y-13874293D01*
X20077206Y-13874293D02*
X20067682Y-13855246D01*
X20067682Y-13855246D02*
X20067682Y-13845722D01*
X20067682Y-13845722D02*
X20077206Y-13826674D01*
X20077206Y-13826674D02*
X20096253Y-13817150D01*
X20096253Y-13817150D02*
X20124825Y-13817150D01*
X20124825Y-13817150D02*
X20143873Y-13826674D01*
X20220063Y-14026674D02*
X20229587Y-14017150D01*
X20229587Y-14017150D02*
X20248634Y-13988579D01*
X20248634Y-13988579D02*
X20258158Y-13969531D01*
X20258158Y-13969531D02*
X20267682Y-13940960D01*
X20267682Y-13940960D02*
X20277206Y-13893341D01*
X20277206Y-13893341D02*
X20277206Y-13855246D01*
X20277206Y-13855246D02*
X20267682Y-13807627D01*
X20267682Y-13807627D02*
X20258158Y-13779055D01*
X20258158Y-13779055D02*
X20248634Y-13760008D01*
X20248634Y-13760008D02*
X20229587Y-13731436D01*
X20229587Y-13731436D02*
X20220063Y-13721912D01*
D10*
X15395000Y-14073000D02*
X15395000Y-14173000D01*
X15345000Y-14123000D02*
X15445000Y-14123000D01*
D11*
X15810539Y-14214484D02*
X15696253Y-14214484D01*
X15753396Y-14214484D02*
X15753396Y-14014484D01*
X15753396Y-14014484D02*
X15734348Y-14043055D01*
X15734348Y-14043055D02*
X15715301Y-14062103D01*
X15715301Y-14062103D02*
X15696253Y-14071627D01*
X15896253Y-14195436D02*
X15905777Y-14204960D01*
X15905777Y-14204960D02*
X15896253Y-14214484D01*
X15896253Y-14214484D02*
X15886729Y-14204960D01*
X15886729Y-14204960D02*
X15896253Y-14195436D01*
X15896253Y-14195436D02*
X15896253Y-14214484D01*
X16029586Y-14014484D02*
X16048634Y-14014484D01*
X16048634Y-14014484D02*
X16067682Y-14024008D01*
X16067682Y-14024008D02*
X16077205Y-14033531D01*
X16077205Y-14033531D02*
X16086729Y-14052579D01*
X16086729Y-14052579D02*
X16096253Y-14090674D01*
X16096253Y-14090674D02*
X16096253Y-14138293D01*
X16096253Y-14138293D02*
X16086729Y-14176388D01*
X16086729Y-14176388D02*
X16077205Y-14195436D01*
X16077205Y-14195436D02*
X16067682Y-14204960D01*
X16067682Y-14204960D02*
X16048634Y-14214484D01*
X16048634Y-14214484D02*
X16029586Y-14214484D01*
X16029586Y-14214484D02*
X16010539Y-14204960D01*
X16010539Y-14204960D02*
X16001015Y-14195436D01*
X16001015Y-14195436D02*
X15991491Y-14176388D01*
X15991491Y-14176388D02*
X15981967Y-14138293D01*
X15981967Y-14138293D02*
X15981967Y-14090674D01*
X15981967Y-14090674D02*
X15991491Y-14052579D01*
X15991491Y-14052579D02*
X16001015Y-14033531D01*
X16001015Y-14033531D02*
X16010539Y-14024008D01*
X16010539Y-14024008D02*
X16029586Y-14014484D01*
X16220062Y-14014484D02*
X16239110Y-14014484D01*
X16239110Y-14014484D02*
X16258158Y-14024008D01*
X16258158Y-14024008D02*
X16267682Y-14033531D01*
X16267682Y-14033531D02*
X16277205Y-14052579D01*
X16277205Y-14052579D02*
X16286729Y-14090674D01*
X16286729Y-14090674D02*
X16286729Y-14138293D01*
X16286729Y-14138293D02*
X16277205Y-14176388D01*
X16277205Y-14176388D02*
X16267682Y-14195436D01*
X16267682Y-14195436D02*
X16258158Y-14204960D01*
X16258158Y-14204960D02*
X16239110Y-14214484D01*
X16239110Y-14214484D02*
X16220062Y-14214484D01*
X16220062Y-14214484D02*
X16201015Y-14204960D01*
X16201015Y-14204960D02*
X16191491Y-14195436D01*
X16191491Y-14195436D02*
X16181967Y-14176388D01*
X16181967Y-14176388D02*
X16172443Y-14138293D01*
X16172443Y-14138293D02*
X16172443Y-14090674D01*
X16172443Y-14090674D02*
X16181967Y-14052579D01*
X16181967Y-14052579D02*
X16191491Y-14033531D01*
X16191491Y-14033531D02*
X16201015Y-14024008D01*
X16201015Y-14024008D02*
X16220062Y-14014484D01*
X16410539Y-14014484D02*
X16429586Y-14014484D01*
X16429586Y-14014484D02*
X16448634Y-14024008D01*
X16448634Y-14024008D02*
X16458158Y-14033531D01*
X16458158Y-14033531D02*
X16467682Y-14052579D01*
X16467682Y-14052579D02*
X16477205Y-14090674D01*
X16477205Y-14090674D02*
X16477205Y-14138293D01*
X16477205Y-14138293D02*
X16467682Y-14176388D01*
X16467682Y-14176388D02*
X16458158Y-14195436D01*
X16458158Y-14195436D02*
X16448634Y-14204960D01*
X16448634Y-14204960D02*
X16429586Y-14214484D01*
X16429586Y-14214484D02*
X16410539Y-14214484D01*
X16410539Y-14214484D02*
X16391491Y-14204960D01*
X16391491Y-14204960D02*
X16381967Y-14195436D01*
X16381967Y-14195436D02*
X16372443Y-14176388D01*
X16372443Y-14176388D02*
X16362920Y-14138293D01*
X16362920Y-14138293D02*
X16362920Y-14090674D01*
X16362920Y-14090674D02*
X16372443Y-14052579D01*
X16372443Y-14052579D02*
X16381967Y-14033531D01*
X16381967Y-14033531D02*
X16391491Y-14024008D01*
X16391491Y-14024008D02*
X16410539Y-14014484D01*
X16562920Y-14214484D02*
X16562920Y-14081150D01*
X16562920Y-14100198D02*
X16572443Y-14090674D01*
X16572443Y-14090674D02*
X16591491Y-14081150D01*
X16591491Y-14081150D02*
X16620063Y-14081150D01*
X16620063Y-14081150D02*
X16639110Y-14090674D01*
X16639110Y-14090674D02*
X16648634Y-14109722D01*
X16648634Y-14109722D02*
X16648634Y-14214484D01*
X16648634Y-14109722D02*
X16658158Y-14090674D01*
X16658158Y-14090674D02*
X16677205Y-14081150D01*
X16677205Y-14081150D02*
X16705777Y-14081150D01*
X16705777Y-14081150D02*
X16724824Y-14090674D01*
X16724824Y-14090674D02*
X16734348Y-14109722D01*
X16734348Y-14109722D02*
X16734348Y-14214484D01*
X16829586Y-14214484D02*
X16829586Y-14081150D01*
X16829586Y-14100198D02*
X16839110Y-14090674D01*
X16839110Y-14090674D02*
X16858158Y-14081150D01*
X16858158Y-14081150D02*
X16886729Y-14081150D01*
X16886729Y-14081150D02*
X16905777Y-14090674D01*
X16905777Y-14090674D02*
X16915301Y-14109722D01*
X16915301Y-14109722D02*
X16915301Y-14214484D01*
X16915301Y-14109722D02*
X16924825Y-14090674D01*
X16924825Y-14090674D02*
X16943872Y-14081150D01*
X16943872Y-14081150D02*
X16972444Y-14081150D01*
X16972444Y-14081150D02*
X16991491Y-14090674D01*
X16991491Y-14090674D02*
X17001015Y-14109722D01*
X17001015Y-14109722D02*
X17001015Y-14214484D01*
X17391491Y-14004960D02*
X17220063Y-14262103D01*
X17648634Y-14014484D02*
X17667682Y-14014484D01*
X17667682Y-14014484D02*
X17686729Y-14024008D01*
X17686729Y-14024008D02*
X17696253Y-14033531D01*
X17696253Y-14033531D02*
X17705777Y-14052579D01*
X17705777Y-14052579D02*
X17715301Y-14090674D01*
X17715301Y-14090674D02*
X17715301Y-14138293D01*
X17715301Y-14138293D02*
X17705777Y-14176388D01*
X17705777Y-14176388D02*
X17696253Y-14195436D01*
X17696253Y-14195436D02*
X17686729Y-14204960D01*
X17686729Y-14204960D02*
X17667682Y-14214484D01*
X17667682Y-14214484D02*
X17648634Y-14214484D01*
X17648634Y-14214484D02*
X17629587Y-14204960D01*
X17629587Y-14204960D02*
X17620063Y-14195436D01*
X17620063Y-14195436D02*
X17610539Y-14176388D01*
X17610539Y-14176388D02*
X17601015Y-14138293D01*
X17601015Y-14138293D02*
X17601015Y-14090674D01*
X17601015Y-14090674D02*
X17610539Y-14052579D01*
X17610539Y-14052579D02*
X17620063Y-14033531D01*
X17620063Y-14033531D02*
X17629587Y-14024008D01*
X17629587Y-14024008D02*
X17648634Y-14014484D01*
X17801015Y-14195436D02*
X17810539Y-14204960D01*
X17810539Y-14204960D02*
X17801015Y-14214484D01*
X17801015Y-14214484D02*
X17791491Y-14204960D01*
X17791491Y-14204960D02*
X17801015Y-14195436D01*
X17801015Y-14195436D02*
X17801015Y-14214484D01*
X17934348Y-14014484D02*
X17953396Y-14014484D01*
X17953396Y-14014484D02*
X17972444Y-14024008D01*
X17972444Y-14024008D02*
X17981968Y-14033531D01*
X17981968Y-14033531D02*
X17991491Y-14052579D01*
X17991491Y-14052579D02*
X18001015Y-14090674D01*
X18001015Y-14090674D02*
X18001015Y-14138293D01*
X18001015Y-14138293D02*
X17991491Y-14176388D01*
X17991491Y-14176388D02*
X17981968Y-14195436D01*
X17981968Y-14195436D02*
X17972444Y-14204960D01*
X17972444Y-14204960D02*
X17953396Y-14214484D01*
X17953396Y-14214484D02*
X17934348Y-14214484D01*
X17934348Y-14214484D02*
X17915301Y-14204960D01*
X17915301Y-14204960D02*
X17905777Y-14195436D01*
X17905777Y-14195436D02*
X17896253Y-14176388D01*
X17896253Y-14176388D02*
X17886729Y-14138293D01*
X17886729Y-14138293D02*
X17886729Y-14090674D01*
X17886729Y-14090674D02*
X17896253Y-14052579D01*
X17896253Y-14052579D02*
X17905777Y-14033531D01*
X17905777Y-14033531D02*
X17915301Y-14024008D01*
X17915301Y-14024008D02*
X17934348Y-14014484D01*
X18067682Y-14014484D02*
X18191491Y-14014484D01*
X18191491Y-14014484D02*
X18124825Y-14090674D01*
X18124825Y-14090674D02*
X18153396Y-14090674D01*
X18153396Y-14090674D02*
X18172444Y-14100198D01*
X18172444Y-14100198D02*
X18181968Y-14109722D01*
X18181968Y-14109722D02*
X18191491Y-14128769D01*
X18191491Y-14128769D02*
X18191491Y-14176388D01*
X18191491Y-14176388D02*
X18181968Y-14195436D01*
X18181968Y-14195436D02*
X18172444Y-14204960D01*
X18172444Y-14204960D02*
X18153396Y-14214484D01*
X18153396Y-14214484D02*
X18096253Y-14214484D01*
X18096253Y-14214484D02*
X18077206Y-14204960D01*
X18077206Y-14204960D02*
X18067682Y-14195436D01*
X18286729Y-14214484D02*
X18324825Y-14214484D01*
X18324825Y-14214484D02*
X18343872Y-14204960D01*
X18343872Y-14204960D02*
X18353396Y-14195436D01*
X18353396Y-14195436D02*
X18372444Y-14166865D01*
X18372444Y-14166865D02*
X18381968Y-14128769D01*
X18381968Y-14128769D02*
X18381968Y-14052579D01*
X18381968Y-14052579D02*
X18372444Y-14033531D01*
X18372444Y-14033531D02*
X18362920Y-14024008D01*
X18362920Y-14024008D02*
X18343872Y-14014484D01*
X18343872Y-14014484D02*
X18305777Y-14014484D01*
X18305777Y-14014484D02*
X18286729Y-14024008D01*
X18286729Y-14024008D02*
X18277206Y-14033531D01*
X18277206Y-14033531D02*
X18267682Y-14052579D01*
X18267682Y-14052579D02*
X18267682Y-14100198D01*
X18267682Y-14100198D02*
X18277206Y-14119246D01*
X18277206Y-14119246D02*
X18286729Y-14128769D01*
X18286729Y-14128769D02*
X18305777Y-14138293D01*
X18305777Y-14138293D02*
X18343872Y-14138293D01*
X18343872Y-14138293D02*
X18362920Y-14128769D01*
X18362920Y-14128769D02*
X18372444Y-14119246D01*
X18372444Y-14119246D02*
X18381968Y-14100198D01*
X18553396Y-14081150D02*
X18553396Y-14214484D01*
X18505777Y-14004960D02*
X18458158Y-14147817D01*
X18458158Y-14147817D02*
X18581968Y-14147817D01*
X18648634Y-14014484D02*
X18648634Y-14052579D01*
X18724825Y-14014484D02*
X18724825Y-14052579D01*
X19020063Y-14290674D02*
X19010539Y-14281150D01*
X19010539Y-14281150D02*
X18991491Y-14252579D01*
X18991491Y-14252579D02*
X18981968Y-14233531D01*
X18981968Y-14233531D02*
X18972444Y-14204960D01*
X18972444Y-14204960D02*
X18962920Y-14157341D01*
X18962920Y-14157341D02*
X18962920Y-14119246D01*
X18962920Y-14119246D02*
X18972444Y-14071627D01*
X18972444Y-14071627D02*
X18981968Y-14043055D01*
X18981968Y-14043055D02*
X18991491Y-14024008D01*
X18991491Y-14024008D02*
X19010539Y-13995436D01*
X19010539Y-13995436D02*
X19020063Y-13985912D01*
X19181968Y-14081150D02*
X19181968Y-14214484D01*
X19134349Y-14004960D02*
X19086730Y-14147817D01*
X19086730Y-14147817D02*
X19210539Y-14147817D01*
X19391491Y-14214484D02*
X19277206Y-14214484D01*
X19334349Y-14214484D02*
X19334349Y-14014484D01*
X19334349Y-14014484D02*
X19315301Y-14043055D01*
X19315301Y-14043055D02*
X19296253Y-14062103D01*
X19296253Y-14062103D02*
X19277206Y-14071627D01*
X19629587Y-14214484D02*
X19629587Y-14014484D01*
X19715301Y-14214484D02*
X19715301Y-14109722D01*
X19715301Y-14109722D02*
X19705777Y-14090674D01*
X19705777Y-14090674D02*
X19686730Y-14081150D01*
X19686730Y-14081150D02*
X19658158Y-14081150D01*
X19658158Y-14081150D02*
X19639111Y-14090674D01*
X19639111Y-14090674D02*
X19629587Y-14100198D01*
X19839111Y-14214484D02*
X19820063Y-14204960D01*
X19820063Y-14204960D02*
X19810539Y-14195436D01*
X19810539Y-14195436D02*
X19801015Y-14176388D01*
X19801015Y-14176388D02*
X19801015Y-14119246D01*
X19801015Y-14119246D02*
X19810539Y-14100198D01*
X19810539Y-14100198D02*
X19820063Y-14090674D01*
X19820063Y-14090674D02*
X19839111Y-14081150D01*
X19839111Y-14081150D02*
X19867682Y-14081150D01*
X19867682Y-14081150D02*
X19886730Y-14090674D01*
X19886730Y-14090674D02*
X19896253Y-14100198D01*
X19896253Y-14100198D02*
X19905777Y-14119246D01*
X19905777Y-14119246D02*
X19905777Y-14176388D01*
X19905777Y-14176388D02*
X19896253Y-14195436D01*
X19896253Y-14195436D02*
X19886730Y-14204960D01*
X19886730Y-14204960D02*
X19867682Y-14214484D01*
X19867682Y-14214484D02*
X19839111Y-14214484D01*
X20020063Y-14214484D02*
X20001015Y-14204960D01*
X20001015Y-14204960D02*
X19991492Y-14185912D01*
X19991492Y-14185912D02*
X19991492Y-14014484D01*
X20172444Y-14204960D02*
X20153396Y-14214484D01*
X20153396Y-14214484D02*
X20115301Y-14214484D01*
X20115301Y-14214484D02*
X20096253Y-14204960D01*
X20096253Y-14204960D02*
X20086730Y-14185912D01*
X20086730Y-14185912D02*
X20086730Y-14109722D01*
X20086730Y-14109722D02*
X20096253Y-14090674D01*
X20096253Y-14090674D02*
X20115301Y-14081150D01*
X20115301Y-14081150D02*
X20153396Y-14081150D01*
X20153396Y-14081150D02*
X20172444Y-14090674D01*
X20172444Y-14090674D02*
X20181968Y-14109722D01*
X20181968Y-14109722D02*
X20181968Y-14128769D01*
X20181968Y-14128769D02*
X20086730Y-14147817D01*
X20258158Y-14204960D02*
X20277206Y-14214484D01*
X20277206Y-14214484D02*
X20315301Y-14214484D01*
X20315301Y-14214484D02*
X20334349Y-14204960D01*
X20334349Y-14204960D02*
X20343873Y-14185912D01*
X20343873Y-14185912D02*
X20343873Y-14176388D01*
X20343873Y-14176388D02*
X20334349Y-14157341D01*
X20334349Y-14157341D02*
X20315301Y-14147817D01*
X20315301Y-14147817D02*
X20286730Y-14147817D01*
X20286730Y-14147817D02*
X20267682Y-14138293D01*
X20267682Y-14138293D02*
X20258158Y-14119246D01*
X20258158Y-14119246D02*
X20258158Y-14109722D01*
X20258158Y-14109722D02*
X20267682Y-14090674D01*
X20267682Y-14090674D02*
X20286730Y-14081150D01*
X20286730Y-14081150D02*
X20315301Y-14081150D01*
X20315301Y-14081150D02*
X20334349Y-14090674D01*
X20410539Y-14290674D02*
X20420063Y-14281150D01*
X20420063Y-14281150D02*
X20439111Y-14252579D01*
X20439111Y-14252579D02*
X20448634Y-14233531D01*
X20448634Y-14233531D02*
X20458158Y-14204960D01*
X20458158Y-14204960D02*
X20467682Y-14157341D01*
X20467682Y-14157341D02*
X20467682Y-14119246D01*
X20467682Y-14119246D02*
X20458158Y-14071627D01*
X20458158Y-14071627D02*
X20448634Y-14043055D01*
X20448634Y-14043055D02*
X20439111Y-14024008D01*
X20439111Y-14024008D02*
X20420063Y-13995436D01*
X20420063Y-13995436D02*
X20410539Y-13985912D01*
D12*
X15430063Y-14423063D02*
X15430063Y-14350937D01*
X15357937Y-14350937D01*
X15357937Y-14423063D01*
X15430063Y-14423063D01*
D11*
X15810539Y-14478484D02*
X15696253Y-14478484D01*
X15753396Y-14478484D02*
X15753396Y-14278484D01*
X15753396Y-14278484D02*
X15734348Y-14307055D01*
X15734348Y-14307055D02*
X15715301Y-14326103D01*
X15715301Y-14326103D02*
X15696253Y-14335627D01*
X15896253Y-14459436D02*
X15905777Y-14468960D01*
X15905777Y-14468960D02*
X15896253Y-14478484D01*
X15896253Y-14478484D02*
X15886729Y-14468960D01*
X15886729Y-14468960D02*
X15896253Y-14459436D01*
X15896253Y-14459436D02*
X15896253Y-14478484D01*
X16029586Y-14278484D02*
X16048634Y-14278484D01*
X16048634Y-14278484D02*
X16067682Y-14288008D01*
X16067682Y-14288008D02*
X16077205Y-14297531D01*
X16077205Y-14297531D02*
X16086729Y-14316579D01*
X16086729Y-14316579D02*
X16096253Y-14354674D01*
X16096253Y-14354674D02*
X16096253Y-14402293D01*
X16096253Y-14402293D02*
X16086729Y-14440388D01*
X16086729Y-14440388D02*
X16077205Y-14459436D01*
X16077205Y-14459436D02*
X16067682Y-14468960D01*
X16067682Y-14468960D02*
X16048634Y-14478484D01*
X16048634Y-14478484D02*
X16029586Y-14478484D01*
X16029586Y-14478484D02*
X16010539Y-14468960D01*
X16010539Y-14468960D02*
X16001015Y-14459436D01*
X16001015Y-14459436D02*
X15991491Y-14440388D01*
X15991491Y-14440388D02*
X15981967Y-14402293D01*
X15981967Y-14402293D02*
X15981967Y-14354674D01*
X15981967Y-14354674D02*
X15991491Y-14316579D01*
X15991491Y-14316579D02*
X16001015Y-14297531D01*
X16001015Y-14297531D02*
X16010539Y-14288008D01*
X16010539Y-14288008D02*
X16029586Y-14278484D01*
X16172443Y-14297531D02*
X16181967Y-14288008D01*
X16181967Y-14288008D02*
X16201015Y-14278484D01*
X16201015Y-14278484D02*
X16248634Y-14278484D01*
X16248634Y-14278484D02*
X16267682Y-14288008D01*
X16267682Y-14288008D02*
X16277205Y-14297531D01*
X16277205Y-14297531D02*
X16286729Y-14316579D01*
X16286729Y-14316579D02*
X16286729Y-14335627D01*
X16286729Y-14335627D02*
X16277205Y-14364198D01*
X16277205Y-14364198D02*
X16162920Y-14478484D01*
X16162920Y-14478484D02*
X16286729Y-14478484D01*
X16410539Y-14278484D02*
X16429586Y-14278484D01*
X16429586Y-14278484D02*
X16448634Y-14288008D01*
X16448634Y-14288008D02*
X16458158Y-14297531D01*
X16458158Y-14297531D02*
X16467682Y-14316579D01*
X16467682Y-14316579D02*
X16477205Y-14354674D01*
X16477205Y-14354674D02*
X16477205Y-14402293D01*
X16477205Y-14402293D02*
X16467682Y-14440388D01*
X16467682Y-14440388D02*
X16458158Y-14459436D01*
X16458158Y-14459436D02*
X16448634Y-14468960D01*
X16448634Y-14468960D02*
X16429586Y-14478484D01*
X16429586Y-14478484D02*
X16410539Y-14478484D01*
X16410539Y-14478484D02*
X16391491Y-14468960D01*
X16391491Y-14468960D02*
X16381967Y-14459436D01*
X16381967Y-14459436D02*
X16372443Y-14440388D01*
X16372443Y-14440388D02*
X16362920Y-14402293D01*
X16362920Y-14402293D02*
X16362920Y-14354674D01*
X16362920Y-14354674D02*
X16372443Y-14316579D01*
X16372443Y-14316579D02*
X16381967Y-14297531D01*
X16381967Y-14297531D02*
X16391491Y-14288008D01*
X16391491Y-14288008D02*
X16410539Y-14278484D01*
X16562920Y-14478484D02*
X16562920Y-14345150D01*
X16562920Y-14364198D02*
X16572443Y-14354674D01*
X16572443Y-14354674D02*
X16591491Y-14345150D01*
X16591491Y-14345150D02*
X16620063Y-14345150D01*
X16620063Y-14345150D02*
X16639110Y-14354674D01*
X16639110Y-14354674D02*
X16648634Y-14373722D01*
X16648634Y-14373722D02*
X16648634Y-14478484D01*
X16648634Y-14373722D02*
X16658158Y-14354674D01*
X16658158Y-14354674D02*
X16677205Y-14345150D01*
X16677205Y-14345150D02*
X16705777Y-14345150D01*
X16705777Y-14345150D02*
X16724824Y-14354674D01*
X16724824Y-14354674D02*
X16734348Y-14373722D01*
X16734348Y-14373722D02*
X16734348Y-14478484D01*
X16829586Y-14478484D02*
X16829586Y-14345150D01*
X16829586Y-14364198D02*
X16839110Y-14354674D01*
X16839110Y-14354674D02*
X16858158Y-14345150D01*
X16858158Y-14345150D02*
X16886729Y-14345150D01*
X16886729Y-14345150D02*
X16905777Y-14354674D01*
X16905777Y-14354674D02*
X16915301Y-14373722D01*
X16915301Y-14373722D02*
X16915301Y-14478484D01*
X16915301Y-14373722D02*
X16924825Y-14354674D01*
X16924825Y-14354674D02*
X16943872Y-14345150D01*
X16943872Y-14345150D02*
X16972444Y-14345150D01*
X16972444Y-14345150D02*
X16991491Y-14354674D01*
X16991491Y-14354674D02*
X17001015Y-14373722D01*
X17001015Y-14373722D02*
X17001015Y-14478484D01*
X17391491Y-14268960D02*
X17220063Y-14526103D01*
X17648634Y-14278484D02*
X17667682Y-14278484D01*
X17667682Y-14278484D02*
X17686729Y-14288008D01*
X17686729Y-14288008D02*
X17696253Y-14297531D01*
X17696253Y-14297531D02*
X17705777Y-14316579D01*
X17705777Y-14316579D02*
X17715301Y-14354674D01*
X17715301Y-14354674D02*
X17715301Y-14402293D01*
X17715301Y-14402293D02*
X17705777Y-14440388D01*
X17705777Y-14440388D02*
X17696253Y-14459436D01*
X17696253Y-14459436D02*
X17686729Y-14468960D01*
X17686729Y-14468960D02*
X17667682Y-14478484D01*
X17667682Y-14478484D02*
X17648634Y-14478484D01*
X17648634Y-14478484D02*
X17629587Y-14468960D01*
X17629587Y-14468960D02*
X17620063Y-14459436D01*
X17620063Y-14459436D02*
X17610539Y-14440388D01*
X17610539Y-14440388D02*
X17601015Y-14402293D01*
X17601015Y-14402293D02*
X17601015Y-14354674D01*
X17601015Y-14354674D02*
X17610539Y-14316579D01*
X17610539Y-14316579D02*
X17620063Y-14297531D01*
X17620063Y-14297531D02*
X17629587Y-14288008D01*
X17629587Y-14288008D02*
X17648634Y-14278484D01*
X17801015Y-14459436D02*
X17810539Y-14468960D01*
X17810539Y-14468960D02*
X17801015Y-14478484D01*
X17801015Y-14478484D02*
X17791491Y-14468960D01*
X17791491Y-14468960D02*
X17801015Y-14459436D01*
X17801015Y-14459436D02*
X17801015Y-14478484D01*
X17934348Y-14278484D02*
X17953396Y-14278484D01*
X17953396Y-14278484D02*
X17972444Y-14288008D01*
X17972444Y-14288008D02*
X17981968Y-14297531D01*
X17981968Y-14297531D02*
X17991491Y-14316579D01*
X17991491Y-14316579D02*
X18001015Y-14354674D01*
X18001015Y-14354674D02*
X18001015Y-14402293D01*
X18001015Y-14402293D02*
X17991491Y-14440388D01*
X17991491Y-14440388D02*
X17981968Y-14459436D01*
X17981968Y-14459436D02*
X17972444Y-14468960D01*
X17972444Y-14468960D02*
X17953396Y-14478484D01*
X17953396Y-14478484D02*
X17934348Y-14478484D01*
X17934348Y-14478484D02*
X17915301Y-14468960D01*
X17915301Y-14468960D02*
X17905777Y-14459436D01*
X17905777Y-14459436D02*
X17896253Y-14440388D01*
X17896253Y-14440388D02*
X17886729Y-14402293D01*
X17886729Y-14402293D02*
X17886729Y-14354674D01*
X17886729Y-14354674D02*
X17896253Y-14316579D01*
X17896253Y-14316579D02*
X17905777Y-14297531D01*
X17905777Y-14297531D02*
X17915301Y-14288008D01*
X17915301Y-14288008D02*
X17934348Y-14278484D01*
X18172444Y-14345150D02*
X18172444Y-14478484D01*
X18124825Y-14268960D02*
X18077206Y-14411817D01*
X18077206Y-14411817D02*
X18201015Y-14411817D01*
X18315301Y-14278484D02*
X18334349Y-14278484D01*
X18334349Y-14278484D02*
X18353396Y-14288008D01*
X18353396Y-14288008D02*
X18362920Y-14297531D01*
X18362920Y-14297531D02*
X18372444Y-14316579D01*
X18372444Y-14316579D02*
X18381968Y-14354674D01*
X18381968Y-14354674D02*
X18381968Y-14402293D01*
X18381968Y-14402293D02*
X18372444Y-14440388D01*
X18372444Y-14440388D02*
X18362920Y-14459436D01*
X18362920Y-14459436D02*
X18353396Y-14468960D01*
X18353396Y-14468960D02*
X18334349Y-14478484D01*
X18334349Y-14478484D02*
X18315301Y-14478484D01*
X18315301Y-14478484D02*
X18296253Y-14468960D01*
X18296253Y-14468960D02*
X18286729Y-14459436D01*
X18286729Y-14459436D02*
X18277206Y-14440388D01*
X18277206Y-14440388D02*
X18267682Y-14402293D01*
X18267682Y-14402293D02*
X18267682Y-14354674D01*
X18267682Y-14354674D02*
X18277206Y-14316579D01*
X18277206Y-14316579D02*
X18286729Y-14297531D01*
X18286729Y-14297531D02*
X18296253Y-14288008D01*
X18296253Y-14288008D02*
X18315301Y-14278484D01*
X18458158Y-14297531D02*
X18467682Y-14288008D01*
X18467682Y-14288008D02*
X18486729Y-14278484D01*
X18486729Y-14278484D02*
X18534349Y-14278484D01*
X18534349Y-14278484D02*
X18553396Y-14288008D01*
X18553396Y-14288008D02*
X18562920Y-14297531D01*
X18562920Y-14297531D02*
X18572444Y-14316579D01*
X18572444Y-14316579D02*
X18572444Y-14335627D01*
X18572444Y-14335627D02*
X18562920Y-14364198D01*
X18562920Y-14364198D02*
X18448634Y-14478484D01*
X18448634Y-14478484D02*
X18572444Y-14478484D01*
X18648634Y-14278484D02*
X18648634Y-14316579D01*
X18724825Y-14278484D02*
X18724825Y-14316579D01*
X19020063Y-14554674D02*
X19010539Y-14545150D01*
X19010539Y-14545150D02*
X18991491Y-14516579D01*
X18991491Y-14516579D02*
X18981968Y-14497531D01*
X18981968Y-14497531D02*
X18972444Y-14468960D01*
X18972444Y-14468960D02*
X18962920Y-14421341D01*
X18962920Y-14421341D02*
X18962920Y-14383246D01*
X18962920Y-14383246D02*
X18972444Y-14335627D01*
X18972444Y-14335627D02*
X18981968Y-14307055D01*
X18981968Y-14307055D02*
X18991491Y-14288008D01*
X18991491Y-14288008D02*
X19010539Y-14259436D01*
X19010539Y-14259436D02*
X19020063Y-14249912D01*
X19181968Y-14345150D02*
X19181968Y-14478484D01*
X19134349Y-14268960D02*
X19086730Y-14411817D01*
X19086730Y-14411817D02*
X19210539Y-14411817D01*
X19267682Y-14278484D02*
X19391491Y-14278484D01*
X19391491Y-14278484D02*
X19324825Y-14354674D01*
X19324825Y-14354674D02*
X19353396Y-14354674D01*
X19353396Y-14354674D02*
X19372444Y-14364198D01*
X19372444Y-14364198D02*
X19381968Y-14373722D01*
X19381968Y-14373722D02*
X19391491Y-14392769D01*
X19391491Y-14392769D02*
X19391491Y-14440388D01*
X19391491Y-14440388D02*
X19381968Y-14459436D01*
X19381968Y-14459436D02*
X19372444Y-14468960D01*
X19372444Y-14468960D02*
X19353396Y-14478484D01*
X19353396Y-14478484D02*
X19296253Y-14478484D01*
X19296253Y-14478484D02*
X19277206Y-14468960D01*
X19277206Y-14468960D02*
X19267682Y-14459436D01*
X19629587Y-14478484D02*
X19629587Y-14278484D01*
X19715301Y-14478484D02*
X19715301Y-14373722D01*
X19715301Y-14373722D02*
X19705777Y-14354674D01*
X19705777Y-14354674D02*
X19686730Y-14345150D01*
X19686730Y-14345150D02*
X19658158Y-14345150D01*
X19658158Y-14345150D02*
X19639111Y-14354674D01*
X19639111Y-14354674D02*
X19629587Y-14364198D01*
X19839111Y-14478484D02*
X19820063Y-14468960D01*
X19820063Y-14468960D02*
X19810539Y-14459436D01*
X19810539Y-14459436D02*
X19801015Y-14440388D01*
X19801015Y-14440388D02*
X19801015Y-14383246D01*
X19801015Y-14383246D02*
X19810539Y-14364198D01*
X19810539Y-14364198D02*
X19820063Y-14354674D01*
X19820063Y-14354674D02*
X19839111Y-14345150D01*
X19839111Y-14345150D02*
X19867682Y-14345150D01*
X19867682Y-14345150D02*
X19886730Y-14354674D01*
X19886730Y-14354674D02*
X19896253Y-14364198D01*
X19896253Y-14364198D02*
X19905777Y-14383246D01*
X19905777Y-14383246D02*
X19905777Y-14440388D01*
X19905777Y-14440388D02*
X19896253Y-14459436D01*
X19896253Y-14459436D02*
X19886730Y-14468960D01*
X19886730Y-14468960D02*
X19867682Y-14478484D01*
X19867682Y-14478484D02*
X19839111Y-14478484D01*
X20020063Y-14478484D02*
X20001015Y-14468960D01*
X20001015Y-14468960D02*
X19991492Y-14449912D01*
X19991492Y-14449912D02*
X19991492Y-14278484D01*
X20172444Y-14468960D02*
X20153396Y-14478484D01*
X20153396Y-14478484D02*
X20115301Y-14478484D01*
X20115301Y-14478484D02*
X20096253Y-14468960D01*
X20096253Y-14468960D02*
X20086730Y-14449912D01*
X20086730Y-14449912D02*
X20086730Y-14373722D01*
X20086730Y-14373722D02*
X20096253Y-14354674D01*
X20096253Y-14354674D02*
X20115301Y-14345150D01*
X20115301Y-14345150D02*
X20153396Y-14345150D01*
X20153396Y-14345150D02*
X20172444Y-14354674D01*
X20172444Y-14354674D02*
X20181968Y-14373722D01*
X20181968Y-14373722D02*
X20181968Y-14392769D01*
X20181968Y-14392769D02*
X20086730Y-14411817D01*
X20258158Y-14468960D02*
X20277206Y-14478484D01*
X20277206Y-14478484D02*
X20315301Y-14478484D01*
X20315301Y-14478484D02*
X20334349Y-14468960D01*
X20334349Y-14468960D02*
X20343873Y-14449912D01*
X20343873Y-14449912D02*
X20343873Y-14440388D01*
X20343873Y-14440388D02*
X20334349Y-14421341D01*
X20334349Y-14421341D02*
X20315301Y-14411817D01*
X20315301Y-14411817D02*
X20286730Y-14411817D01*
X20286730Y-14411817D02*
X20267682Y-14402293D01*
X20267682Y-14402293D02*
X20258158Y-14383246D01*
X20258158Y-14383246D02*
X20258158Y-14373722D01*
X20258158Y-14373722D02*
X20267682Y-14354674D01*
X20267682Y-14354674D02*
X20286730Y-14345150D01*
X20286730Y-14345150D02*
X20315301Y-14345150D01*
X20315301Y-14345150D02*
X20334349Y-14354674D01*
X20410539Y-14554674D02*
X20420063Y-14545150D01*
X20420063Y-14545150D02*
X20439111Y-14516579D01*
X20439111Y-14516579D02*
X20448634Y-14497531D01*
X20448634Y-14497531D02*
X20458158Y-14468960D01*
X20458158Y-14468960D02*
X20467682Y-14421341D01*
X20467682Y-14421341D02*
X20467682Y-14383246D01*
X20467682Y-14383246D02*
X20458158Y-14335627D01*
X20458158Y-14335627D02*
X20448634Y-14307055D01*
X20448634Y-14307055D02*
X20439111Y-14288008D01*
X20439111Y-14288008D02*
X20420063Y-14259436D01*
X20420063Y-14259436D02*
X20410539Y-14249912D01*
M02*
