M48
; DRILL file {KiCad 8.0.8-8.0.8-0~ubuntu24.04.1} date 2025-04-25T21:20:38+0200
; FORMAT={-:-/ absolute / metric / decimal}
; #@! TF.CreationDate,2025-04-25T21:20:38+02:00
; #@! TF.GenerationSoftware,Kicad,Pcbnew,8.0.8-8.0.8-0~ubuntu24.04.1
; #@! TF.FileFunction,Plated,1,4,PTH
FMAT,2
METRIC
; #@! TA.AperFunction,Plated,PTH,ViaDrill
T1C0.300
; #@! TA.AperFunction,Plated,PTH,ViaDrill
T2C0.400
; #@! TA.AperFunction,Plated,PTH,ComponentDrill
T3C1.000
; #@! TA.AperFunction,Plated,PTH,ComponentDrill
T4C1.020
%
G90
G05
T1
X155.448Y-72.898
X155.448Y-75.438
X155.448Y-77.978
X155.448Y-82.55
X155.448Y-85.09
X155.448Y-87.63
X155.448Y-90.17
X155.448Y-92.71
X155.448Y-95.25
X155.448Y-97.79
X155.448Y-100.33
X155.448Y-102.87
X155.448Y-105.41
X155.448Y-107.95
X155.448Y-110.49
X155.448Y-113.03
X155.448Y-115.57
X155.448Y-118.11
X155.448Y-120.65
X155.785Y-70.705
X155.785Y-80.865
X155.785Y-124.045
X158.325Y-70.705
X158.325Y-124.045
X159.9Y-86.5
X160.0Y-92.0
X160.0Y-94.6
X160.0Y-97.2
X160.0Y-99.7
X160.0Y-102.3
X160.0Y-104.8
X160.0Y-107.3
X160.0Y-109.9
X160.0Y-112.5
X160.0Y-114.9
X160.0Y-117.5
X160.865Y-65.625
X160.865Y-68.165
X160.865Y-70.705
X160.865Y-80.865
X160.865Y-126.585
X162.5Y-107.2
X162.56Y-104.648
X162.56Y-116.586
X162.7Y-97.7
X162.8Y-100.0
X163.3Y-102.7
X163.3Y-108.8
X163.3Y-125.2
X163.322Y-105.918
X163.405Y-65.625
X163.405Y-68.165
X163.405Y-70.705
X163.6Y-96.5
X165.1Y-91.694
X165.1Y-114.0
X165.6Y-104.5
X165.945Y-65.625
X165.945Y-70.705
X165.945Y-73.245
X165.945Y-80.865
X165.945Y-85.945
X166.1Y-114.9
X166.37Y-99.568
X166.5Y-90.0
X166.7Y-96.7
X166.8Y-122.1
X167.0Y-116.0
X167.0Y-116.75
X167.0Y-117.5
X167.0Y-118.16
X167.386Y-108.712
X167.4Y-87.7
X167.4Y-88.36
X167.4Y-89.02
X167.4Y-89.7
X167.4Y-101.8
X167.4Y-102.46
X167.4Y-103.12
X167.4Y-103.78
X168.148Y-85.344
X168.148Y-92.456
X168.148Y-99.568
X168.148Y-106.68
X168.148Y-113.792
X168.148Y-120.904
X168.485Y-65.625
X168.485Y-80.865
X168.485Y-83.405
X168.91Y-91.44
X168.91Y-98.552
X168.91Y-105.664
X168.91Y-112.776
X168.91Y-119.888
X168.91Y-127.0
X170.18Y-73.66
X170.18Y-76.454
X170.18Y-78.994
X170.434Y-87.63
X170.434Y-94.742
X170.434Y-101.854
X170.434Y-108.966
X170.434Y-116.078
X170.434Y-123.19
X171.025Y-65.625
X171.025Y-73.245
X171.025Y-126.585
X172.974Y-74.168
X173.54Y-127.2
X173.565Y-65.625
X173.565Y-68.165
X173.565Y-80.865
X174.244Y-91.694
X174.244Y-93.218
X174.244Y-98.806
X174.244Y-100.33
X174.244Y-105.918
X174.244Y-107.442
X174.244Y-113.03
X174.244Y-114.554
X174.244Y-120.142
X174.244Y-121.666
X175.26Y-76.454
X175.768Y-85.344
X175.768Y-92.456
X175.768Y-99.568
X175.768Y-106.68
X175.768Y-113.792
X175.768Y-120.904
X176.08Y-127.2
X176.1Y-115.0
X176.105Y-65.625
X176.105Y-68.165
X176.105Y-73.245
X176.105Y-91.025
X176.4Y-101.6
X176.4Y-102.4
X176.4Y-103.1
X176.4Y-103.76
X176.6Y-115.9
X176.6Y-116.6
X176.6Y-117.3
X176.6Y-117.96
X176.9Y-119.0
X177.0Y-94.7
X177.1Y-88.9
X177.1Y-89.56
X177.1Y-92.5
X177.2Y-125.11
X177.546Y-103.632
X178.1Y-77.4
X178.4Y-96.9
X178.4Y-124.4
X178.5Y-94.4
X178.62Y-127.2
X178.645Y-65.625
X178.645Y-70.705
X180.3Y-110.8
X180.6Y-80.3
X180.8Y-77.3
X181.16Y-127.2
X181.185Y-65.625
X181.185Y-70.705
X181.185Y-75.785
X181.185Y-83.405
X181.61Y-97.282
X183.64Y-127.2
X183.7Y-116.2
X183.725Y-121.505
X186.18Y-127.2
X186.182Y-71.374
X186.182Y-73.914
X186.182Y-76.454
X186.182Y-78.994
X186.182Y-86.614
X186.182Y-89.154
X186.182Y-91.694
X186.182Y-94.234
X186.182Y-96.774
X186.182Y-104.394
X186.182Y-106.934
X186.182Y-109.474
X186.182Y-112.014
X186.182Y-114.554
X186.265Y-65.625
X186.265Y-68.165
X186.265Y-80.865
X186.265Y-83.405
X186.265Y-98.645
X186.265Y-116.425
X186.265Y-118.965
X186.265Y-121.505
X186.6Y-101.9
X188.72Y-127.2
X188.805Y-65.625
X188.805Y-68.165
X188.805Y-73.245
X188.805Y-78.325
X188.805Y-80.865
X188.805Y-83.405
X188.805Y-88.485
X188.805Y-98.645
X188.805Y-111.345
X188.805Y-113.885
X188.805Y-116.425
X188.805Y-118.965
X188.805Y-121.505
X191.26Y-127.2
X191.345Y-80.865
X191.345Y-83.405
X191.345Y-85.945
X191.345Y-88.485
X191.345Y-91.025
X191.345Y-93.565
X191.345Y-98.645
X191.345Y-111.345
X191.345Y-118.965
X191.345Y-121.505
X193.3Y-101.9
X193.8Y-127.2
X193.885Y-73.245
X193.885Y-78.325
X193.885Y-80.865
X193.885Y-83.405
X193.885Y-85.945
X193.885Y-93.565
X193.885Y-98.645
X193.885Y-103.725
X193.885Y-111.345
X193.885Y-118.965
X196.425Y-73.245
X196.425Y-78.325
X196.425Y-80.865
X196.425Y-83.405
X196.425Y-85.945
X196.425Y-88.485
X196.425Y-91.025
X196.425Y-93.565
X196.425Y-96.105
X196.425Y-98.645
X196.425Y-103.725
X196.425Y-106.265
X196.425Y-108.805
X196.425Y-111.345
X196.425Y-124.045
X196.425Y-126.585
X198.965Y-65.625
X198.965Y-68.165
X198.965Y-73.245
X198.965Y-78.325
X198.965Y-80.865
X198.965Y-83.405
X198.965Y-85.945
X198.965Y-88.485
X198.965Y-91.025
X198.965Y-93.565
X198.965Y-96.105
X198.965Y-98.645
X198.965Y-103.725
X198.965Y-106.265
X198.965Y-108.805
X198.965Y-111.345
X198.965Y-113.885
X198.965Y-121.505
X198.965Y-124.045
X198.965Y-126.585
X199.6Y-116.1
X200.9Y-114.8
X200.914Y-100.584
X201.505Y-118.965
X201.505Y-124.045
X201.505Y-126.585
X201.908Y-121.892
X204.045Y-116.425
X204.045Y-118.965
X204.045Y-121.505
X204.045Y-124.045
X204.045Y-126.585
X206.585Y-65.625
X206.585Y-118.965
X206.585Y-121.505
X206.585Y-124.045
X207.5Y-67.92
X207.5Y-70.46
X207.5Y-73.0
X207.5Y-75.54
X207.5Y-78.08
X207.5Y-80.62
X207.5Y-83.16
X207.5Y-85.7
X207.5Y-88.24
X207.5Y-90.78
X207.5Y-93.32
X207.5Y-95.86
X207.5Y-98.4
X207.5Y-100.94
X207.5Y-103.48
X207.5Y-106.02
X207.5Y-108.54
X207.5Y-111.08
X207.5Y-113.62
X207.5Y-116.16
T2
X171.45Y-84.328
X172.466Y-84.328
T3
X158.75Y-72.898
X158.75Y-75.438
X158.75Y-77.978
X158.75Y-82.55
X158.75Y-85.09
X158.75Y-87.63
X158.75Y-90.17
X158.75Y-92.71
X158.75Y-95.25
X158.75Y-97.79
X158.75Y-100.33
X158.75Y-102.87
X158.75Y-105.41
X158.75Y-107.95
X158.75Y-110.49
X158.75Y-113.03
X158.75Y-115.57
X158.75Y-118.11
X158.75Y-120.65
X161.29Y-72.898
X161.29Y-75.438
X161.29Y-77.978
X161.29Y-82.55
X161.29Y-85.09
X161.29Y-87.63
X161.29Y-90.17
X161.29Y-92.71
X161.29Y-95.25
X161.29Y-97.79
X161.29Y-100.33
X161.29Y-102.87
X161.29Y-105.41
X161.29Y-107.95
X161.29Y-110.49
X161.29Y-113.03
X161.29Y-115.57
X161.29Y-118.11
X161.29Y-120.65
X166.878Y-68.58
X169.418Y-68.58
X171.958Y-68.58
T4
X184.658Y-66.294
X184.658Y-68.834
X184.658Y-71.374
X184.658Y-73.914
X184.658Y-76.454
X184.658Y-78.994
X184.658Y-81.534
X184.658Y-84.074
X184.658Y-86.614
X184.658Y-89.154
X184.658Y-91.694
X184.658Y-94.234
X184.658Y-96.774
X184.658Y-99.314
X184.658Y-101.854
X184.658Y-104.394
X184.658Y-106.934
X184.658Y-109.474
X184.658Y-112.014
X184.658Y-114.554
X191.008Y-114.324
X193.548Y-114.324
X196.088Y-114.324
X202.438Y-66.294
X202.438Y-68.834
X202.438Y-71.374
X202.438Y-73.914
X202.438Y-76.454
X202.438Y-78.994
X202.438Y-81.534
X202.438Y-84.074
X202.438Y-86.614
X202.438Y-89.154
X202.438Y-91.694
X202.438Y-94.234
X202.438Y-96.774
X202.438Y-99.314
X202.438Y-101.854
X202.438Y-104.394
X202.438Y-106.934
X202.438Y-109.474
X202.438Y-112.014
X202.438Y-114.554
M30
