%TF.GenerationSoftware,KiCad,Pcbnew,8.0.8-8.0.8-0~ubuntu24.04.1*%
%TF.CreationDate,2025-04-25T21:20:39+02:00*%
%TF.ProjectId,LogicAnalyzer,4c6f6769-6341-46e6-916c-797a65722e6b,rev?*%
%TF.SameCoordinates,Original*%
%TF.FileFunction,Drillmap*%
%TF.FilePolarity,Positive*%
%FSLAX45Y45*%
G04 Gerber Fmt 4.5, Leading zero omitted, Abs format (unit mm)*
G04 Created by KiCad (PCBNEW 8.0.8-8.0.8-0~ubuntu24.04.1) date 2025-04-25 21:20:39*
%MOMM*%
%LPD*%
G01*
G04 APERTURE LIST*
%ADD10C,0.100000*%
%ADD11C,0.200000*%
%ADD12C,0.150000*%
%ADD13C,0.180000*%
%ADD14C,0.320000*%
G04 APERTURE END LIST*
D10*
X20650000Y-6450000D02*
G75*
G02*
X20950000Y-6750000I0J-300000D01*
G01*
X15450000Y-6750000D02*
X15450000Y-12650000D01*
X20950000Y-12650000D02*
G75*
G02*
X20650000Y-12950000I-300000J0D01*
G01*
X15450000Y-6750000D02*
G75*
G02*
X15750000Y-6450000I300000J0D01*
G01*
X20950000Y-12650000D02*
X20950000Y-6750000D01*
X20650000Y-6450000D02*
X15750000Y-6450000D01*
X15750000Y-12950000D02*
X20650000Y-12950000D01*
X15750000Y-12950000D02*
G75*
G02*
X15450000Y-12650000I0J300000D01*
G01*
D11*
D12*
X19037300Y-6870400D02*
X19187300Y-7020400D01*
X19187300Y-6870400D02*
X19037300Y-7020400D01*
X19522300Y-6870400D02*
X19672300Y-7020400D01*
X19672300Y-6870400D02*
X19522300Y-7020400D01*
D13*
X19172300Y-6642400D02*
G75*
G02*
X18992300Y-6642400I-90000J0D01*
G01*
X18992300Y-6642400D02*
G75*
G02*
X19172300Y-6642400I90000J0D01*
G01*
X19717300Y-6642400D02*
G75*
G02*
X19537300Y-6642400I-90000J0D01*
G01*
X19537300Y-6642400D02*
G75*
G02*
X19717300Y-6642400I90000J0D01*
G01*
D14*
X15750196Y-12489303D02*
X15750196Y-12809303D01*
X15590196Y-12649303D02*
X15910196Y-12649303D01*
X15750719Y-6588432D02*
X15750719Y-6908432D01*
X15590719Y-6748432D02*
X15910719Y-6748432D01*
X20650570Y-12489432D02*
X20650570Y-12809432D01*
X20490570Y-12649432D02*
X20810570Y-12649432D01*
D11*
X15705777Y-13266484D02*
X15705777Y-13066484D01*
X15705777Y-13066484D02*
X15753396Y-13066484D01*
X15753396Y-13066484D02*
X15781967Y-13076008D01*
X15781967Y-13076008D02*
X15801015Y-13095055D01*
X15801015Y-13095055D02*
X15810539Y-13114103D01*
X15810539Y-13114103D02*
X15820062Y-13152198D01*
X15820062Y-13152198D02*
X15820062Y-13180769D01*
X15820062Y-13180769D02*
X15810539Y-13218865D01*
X15810539Y-13218865D02*
X15801015Y-13237912D01*
X15801015Y-13237912D02*
X15781967Y-13256960D01*
X15781967Y-13256960D02*
X15753396Y-13266484D01*
X15753396Y-13266484D02*
X15705777Y-13266484D01*
X15905777Y-13266484D02*
X15905777Y-13133150D01*
X15905777Y-13171246D02*
X15915301Y-13152198D01*
X15915301Y-13152198D02*
X15924824Y-13142674D01*
X15924824Y-13142674D02*
X15943872Y-13133150D01*
X15943872Y-13133150D02*
X15962920Y-13133150D01*
X16029586Y-13266484D02*
X16029586Y-13133150D01*
X16029586Y-13066484D02*
X16020062Y-13076008D01*
X16020062Y-13076008D02*
X16029586Y-13085531D01*
X16029586Y-13085531D02*
X16039110Y-13076008D01*
X16039110Y-13076008D02*
X16029586Y-13066484D01*
X16029586Y-13066484D02*
X16029586Y-13085531D01*
X16153396Y-13266484D02*
X16134348Y-13256960D01*
X16134348Y-13256960D02*
X16124824Y-13237912D01*
X16124824Y-13237912D02*
X16124824Y-13066484D01*
X16258158Y-13266484D02*
X16239110Y-13256960D01*
X16239110Y-13256960D02*
X16229586Y-13237912D01*
X16229586Y-13237912D02*
X16229586Y-13066484D01*
X16486729Y-13266484D02*
X16486729Y-13066484D01*
X16486729Y-13066484D02*
X16553396Y-13209341D01*
X16553396Y-13209341D02*
X16620062Y-13066484D01*
X16620062Y-13066484D02*
X16620062Y-13266484D01*
X16801015Y-13266484D02*
X16801015Y-13161722D01*
X16801015Y-13161722D02*
X16791491Y-13142674D01*
X16791491Y-13142674D02*
X16772443Y-13133150D01*
X16772443Y-13133150D02*
X16734348Y-13133150D01*
X16734348Y-13133150D02*
X16715301Y-13142674D01*
X16801015Y-13256960D02*
X16781967Y-13266484D01*
X16781967Y-13266484D02*
X16734348Y-13266484D01*
X16734348Y-13266484D02*
X16715301Y-13256960D01*
X16715301Y-13256960D02*
X16705777Y-13237912D01*
X16705777Y-13237912D02*
X16705777Y-13218865D01*
X16705777Y-13218865D02*
X16715301Y-13199817D01*
X16715301Y-13199817D02*
X16734348Y-13190293D01*
X16734348Y-13190293D02*
X16781967Y-13190293D01*
X16781967Y-13190293D02*
X16801015Y-13180769D01*
X16896253Y-13133150D02*
X16896253Y-13333150D01*
X16896253Y-13142674D02*
X16915301Y-13133150D01*
X16915301Y-13133150D02*
X16953396Y-13133150D01*
X16953396Y-13133150D02*
X16972444Y-13142674D01*
X16972444Y-13142674D02*
X16981967Y-13152198D01*
X16981967Y-13152198D02*
X16991491Y-13171246D01*
X16991491Y-13171246D02*
X16991491Y-13228388D01*
X16991491Y-13228388D02*
X16981967Y-13247436D01*
X16981967Y-13247436D02*
X16972444Y-13256960D01*
X16972444Y-13256960D02*
X16953396Y-13266484D01*
X16953396Y-13266484D02*
X16915301Y-13266484D01*
X16915301Y-13266484D02*
X16896253Y-13256960D01*
X17077205Y-13247436D02*
X17086729Y-13256960D01*
X17086729Y-13256960D02*
X17077205Y-13266484D01*
X17077205Y-13266484D02*
X17067682Y-13256960D01*
X17067682Y-13256960D02*
X17077205Y-13247436D01*
X17077205Y-13247436D02*
X17077205Y-13266484D01*
X17077205Y-13142674D02*
X17086729Y-13152198D01*
X17086729Y-13152198D02*
X17077205Y-13161722D01*
X17077205Y-13161722D02*
X17067682Y-13152198D01*
X17067682Y-13152198D02*
X17077205Y-13142674D01*
X17077205Y-13142674D02*
X17077205Y-13161722D01*
D12*
X15295000Y-13520000D02*
X15445000Y-13670000D01*
X15445000Y-13520000D02*
X15295000Y-13670000D01*
D11*
X15810539Y-13686484D02*
X15696253Y-13686484D01*
X15753396Y-13686484D02*
X15753396Y-13486484D01*
X15753396Y-13486484D02*
X15734348Y-13515055D01*
X15734348Y-13515055D02*
X15715301Y-13534103D01*
X15715301Y-13534103D02*
X15696253Y-13543627D01*
X15896253Y-13667436D02*
X15905777Y-13676960D01*
X15905777Y-13676960D02*
X15896253Y-13686484D01*
X15896253Y-13686484D02*
X15886729Y-13676960D01*
X15886729Y-13676960D02*
X15896253Y-13667436D01*
X15896253Y-13667436D02*
X15896253Y-13686484D01*
X16086729Y-13486484D02*
X15991491Y-13486484D01*
X15991491Y-13486484D02*
X15981967Y-13581722D01*
X15981967Y-13581722D02*
X15991491Y-13572198D01*
X15991491Y-13572198D02*
X16010539Y-13562674D01*
X16010539Y-13562674D02*
X16058158Y-13562674D01*
X16058158Y-13562674D02*
X16077205Y-13572198D01*
X16077205Y-13572198D02*
X16086729Y-13581722D01*
X16086729Y-13581722D02*
X16096253Y-13600769D01*
X16096253Y-13600769D02*
X16096253Y-13648388D01*
X16096253Y-13648388D02*
X16086729Y-13667436D01*
X16086729Y-13667436D02*
X16077205Y-13676960D01*
X16077205Y-13676960D02*
X16058158Y-13686484D01*
X16058158Y-13686484D02*
X16010539Y-13686484D01*
X16010539Y-13686484D02*
X15991491Y-13676960D01*
X15991491Y-13676960D02*
X15981967Y-13667436D01*
X16220062Y-13486484D02*
X16239110Y-13486484D01*
X16239110Y-13486484D02*
X16258158Y-13496008D01*
X16258158Y-13496008D02*
X16267682Y-13505531D01*
X16267682Y-13505531D02*
X16277205Y-13524579D01*
X16277205Y-13524579D02*
X16286729Y-13562674D01*
X16286729Y-13562674D02*
X16286729Y-13610293D01*
X16286729Y-13610293D02*
X16277205Y-13648388D01*
X16277205Y-13648388D02*
X16267682Y-13667436D01*
X16267682Y-13667436D02*
X16258158Y-13676960D01*
X16258158Y-13676960D02*
X16239110Y-13686484D01*
X16239110Y-13686484D02*
X16220062Y-13686484D01*
X16220062Y-13686484D02*
X16201015Y-13676960D01*
X16201015Y-13676960D02*
X16191491Y-13667436D01*
X16191491Y-13667436D02*
X16181967Y-13648388D01*
X16181967Y-13648388D02*
X16172443Y-13610293D01*
X16172443Y-13610293D02*
X16172443Y-13562674D01*
X16172443Y-13562674D02*
X16181967Y-13524579D01*
X16181967Y-13524579D02*
X16191491Y-13505531D01*
X16191491Y-13505531D02*
X16201015Y-13496008D01*
X16201015Y-13496008D02*
X16220062Y-13486484D01*
X16410539Y-13486484D02*
X16429586Y-13486484D01*
X16429586Y-13486484D02*
X16448634Y-13496008D01*
X16448634Y-13496008D02*
X16458158Y-13505531D01*
X16458158Y-13505531D02*
X16467682Y-13524579D01*
X16467682Y-13524579D02*
X16477205Y-13562674D01*
X16477205Y-13562674D02*
X16477205Y-13610293D01*
X16477205Y-13610293D02*
X16467682Y-13648388D01*
X16467682Y-13648388D02*
X16458158Y-13667436D01*
X16458158Y-13667436D02*
X16448634Y-13676960D01*
X16448634Y-13676960D02*
X16429586Y-13686484D01*
X16429586Y-13686484D02*
X16410539Y-13686484D01*
X16410539Y-13686484D02*
X16391491Y-13676960D01*
X16391491Y-13676960D02*
X16381967Y-13667436D01*
X16381967Y-13667436D02*
X16372443Y-13648388D01*
X16372443Y-13648388D02*
X16362920Y-13610293D01*
X16362920Y-13610293D02*
X16362920Y-13562674D01*
X16362920Y-13562674D02*
X16372443Y-13524579D01*
X16372443Y-13524579D02*
X16381967Y-13505531D01*
X16381967Y-13505531D02*
X16391491Y-13496008D01*
X16391491Y-13496008D02*
X16410539Y-13486484D01*
X16562920Y-13686484D02*
X16562920Y-13553150D01*
X16562920Y-13572198D02*
X16572443Y-13562674D01*
X16572443Y-13562674D02*
X16591491Y-13553150D01*
X16591491Y-13553150D02*
X16620063Y-13553150D01*
X16620063Y-13553150D02*
X16639110Y-13562674D01*
X16639110Y-13562674D02*
X16648634Y-13581722D01*
X16648634Y-13581722D02*
X16648634Y-13686484D01*
X16648634Y-13581722D02*
X16658158Y-13562674D01*
X16658158Y-13562674D02*
X16677205Y-13553150D01*
X16677205Y-13553150D02*
X16705777Y-13553150D01*
X16705777Y-13553150D02*
X16724824Y-13562674D01*
X16724824Y-13562674D02*
X16734348Y-13581722D01*
X16734348Y-13581722D02*
X16734348Y-13686484D01*
X16829586Y-13686484D02*
X16829586Y-13553150D01*
X16829586Y-13572198D02*
X16839110Y-13562674D01*
X16839110Y-13562674D02*
X16858158Y-13553150D01*
X16858158Y-13553150D02*
X16886729Y-13553150D01*
X16886729Y-13553150D02*
X16905777Y-13562674D01*
X16905777Y-13562674D02*
X16915301Y-13581722D01*
X16915301Y-13581722D02*
X16915301Y-13686484D01*
X16915301Y-13581722D02*
X16924825Y-13562674D01*
X16924825Y-13562674D02*
X16943872Y-13553150D01*
X16943872Y-13553150D02*
X16972444Y-13553150D01*
X16972444Y-13553150D02*
X16991491Y-13562674D01*
X16991491Y-13562674D02*
X17001015Y-13581722D01*
X17001015Y-13581722D02*
X17001015Y-13686484D01*
X17391491Y-13476960D02*
X17220063Y-13734103D01*
X17648634Y-13486484D02*
X17667682Y-13486484D01*
X17667682Y-13486484D02*
X17686729Y-13496008D01*
X17686729Y-13496008D02*
X17696253Y-13505531D01*
X17696253Y-13505531D02*
X17705777Y-13524579D01*
X17705777Y-13524579D02*
X17715301Y-13562674D01*
X17715301Y-13562674D02*
X17715301Y-13610293D01*
X17715301Y-13610293D02*
X17705777Y-13648388D01*
X17705777Y-13648388D02*
X17696253Y-13667436D01*
X17696253Y-13667436D02*
X17686729Y-13676960D01*
X17686729Y-13676960D02*
X17667682Y-13686484D01*
X17667682Y-13686484D02*
X17648634Y-13686484D01*
X17648634Y-13686484D02*
X17629587Y-13676960D01*
X17629587Y-13676960D02*
X17620063Y-13667436D01*
X17620063Y-13667436D02*
X17610539Y-13648388D01*
X17610539Y-13648388D02*
X17601015Y-13610293D01*
X17601015Y-13610293D02*
X17601015Y-13562674D01*
X17601015Y-13562674D02*
X17610539Y-13524579D01*
X17610539Y-13524579D02*
X17620063Y-13505531D01*
X17620063Y-13505531D02*
X17629587Y-13496008D01*
X17629587Y-13496008D02*
X17648634Y-13486484D01*
X17801015Y-13667436D02*
X17810539Y-13676960D01*
X17810539Y-13676960D02*
X17801015Y-13686484D01*
X17801015Y-13686484D02*
X17791491Y-13676960D01*
X17791491Y-13676960D02*
X17801015Y-13667436D01*
X17801015Y-13667436D02*
X17801015Y-13686484D01*
X17934348Y-13486484D02*
X17953396Y-13486484D01*
X17953396Y-13486484D02*
X17972444Y-13496008D01*
X17972444Y-13496008D02*
X17981968Y-13505531D01*
X17981968Y-13505531D02*
X17991491Y-13524579D01*
X17991491Y-13524579D02*
X18001015Y-13562674D01*
X18001015Y-13562674D02*
X18001015Y-13610293D01*
X18001015Y-13610293D02*
X17991491Y-13648388D01*
X17991491Y-13648388D02*
X17981968Y-13667436D01*
X17981968Y-13667436D02*
X17972444Y-13676960D01*
X17972444Y-13676960D02*
X17953396Y-13686484D01*
X17953396Y-13686484D02*
X17934348Y-13686484D01*
X17934348Y-13686484D02*
X17915301Y-13676960D01*
X17915301Y-13676960D02*
X17905777Y-13667436D01*
X17905777Y-13667436D02*
X17896253Y-13648388D01*
X17896253Y-13648388D02*
X17886729Y-13610293D01*
X17886729Y-13610293D02*
X17886729Y-13562674D01*
X17886729Y-13562674D02*
X17896253Y-13524579D01*
X17896253Y-13524579D02*
X17905777Y-13505531D01*
X17905777Y-13505531D02*
X17915301Y-13496008D01*
X17915301Y-13496008D02*
X17934348Y-13486484D01*
X18181968Y-13486484D02*
X18086729Y-13486484D01*
X18086729Y-13486484D02*
X18077206Y-13581722D01*
X18077206Y-13581722D02*
X18086729Y-13572198D01*
X18086729Y-13572198D02*
X18105777Y-13562674D01*
X18105777Y-13562674D02*
X18153396Y-13562674D01*
X18153396Y-13562674D02*
X18172444Y-13572198D01*
X18172444Y-13572198D02*
X18181968Y-13581722D01*
X18181968Y-13581722D02*
X18191491Y-13600769D01*
X18191491Y-13600769D02*
X18191491Y-13648388D01*
X18191491Y-13648388D02*
X18181968Y-13667436D01*
X18181968Y-13667436D02*
X18172444Y-13676960D01*
X18172444Y-13676960D02*
X18153396Y-13686484D01*
X18153396Y-13686484D02*
X18105777Y-13686484D01*
X18105777Y-13686484D02*
X18086729Y-13676960D01*
X18086729Y-13676960D02*
X18077206Y-13667436D01*
X18286729Y-13686484D02*
X18324825Y-13686484D01*
X18324825Y-13686484D02*
X18343872Y-13676960D01*
X18343872Y-13676960D02*
X18353396Y-13667436D01*
X18353396Y-13667436D02*
X18372444Y-13638865D01*
X18372444Y-13638865D02*
X18381968Y-13600769D01*
X18381968Y-13600769D02*
X18381968Y-13524579D01*
X18381968Y-13524579D02*
X18372444Y-13505531D01*
X18372444Y-13505531D02*
X18362920Y-13496008D01*
X18362920Y-13496008D02*
X18343872Y-13486484D01*
X18343872Y-13486484D02*
X18305777Y-13486484D01*
X18305777Y-13486484D02*
X18286729Y-13496008D01*
X18286729Y-13496008D02*
X18277206Y-13505531D01*
X18277206Y-13505531D02*
X18267682Y-13524579D01*
X18267682Y-13524579D02*
X18267682Y-13572198D01*
X18267682Y-13572198D02*
X18277206Y-13591246D01*
X18277206Y-13591246D02*
X18286729Y-13600769D01*
X18286729Y-13600769D02*
X18305777Y-13610293D01*
X18305777Y-13610293D02*
X18343872Y-13610293D01*
X18343872Y-13610293D02*
X18362920Y-13600769D01*
X18362920Y-13600769D02*
X18372444Y-13591246D01*
X18372444Y-13591246D02*
X18381968Y-13572198D01*
X18572444Y-13686484D02*
X18458158Y-13686484D01*
X18515301Y-13686484D02*
X18515301Y-13486484D01*
X18515301Y-13486484D02*
X18496253Y-13515055D01*
X18496253Y-13515055D02*
X18477206Y-13534103D01*
X18477206Y-13534103D02*
X18458158Y-13543627D01*
X18648634Y-13486484D02*
X18648634Y-13524579D01*
X18724825Y-13486484D02*
X18724825Y-13524579D01*
X19020063Y-13762674D02*
X19010539Y-13753150D01*
X19010539Y-13753150D02*
X18991491Y-13724579D01*
X18991491Y-13724579D02*
X18981968Y-13705531D01*
X18981968Y-13705531D02*
X18972444Y-13676960D01*
X18972444Y-13676960D02*
X18962920Y-13629341D01*
X18962920Y-13629341D02*
X18962920Y-13591246D01*
X18962920Y-13591246D02*
X18972444Y-13543627D01*
X18972444Y-13543627D02*
X18981968Y-13515055D01*
X18981968Y-13515055D02*
X18991491Y-13496008D01*
X18991491Y-13496008D02*
X19010539Y-13467436D01*
X19010539Y-13467436D02*
X19020063Y-13457912D01*
X19086730Y-13505531D02*
X19096253Y-13496008D01*
X19096253Y-13496008D02*
X19115301Y-13486484D01*
X19115301Y-13486484D02*
X19162920Y-13486484D01*
X19162920Y-13486484D02*
X19181968Y-13496008D01*
X19181968Y-13496008D02*
X19191491Y-13505531D01*
X19191491Y-13505531D02*
X19201015Y-13524579D01*
X19201015Y-13524579D02*
X19201015Y-13543627D01*
X19201015Y-13543627D02*
X19191491Y-13572198D01*
X19191491Y-13572198D02*
X19077206Y-13686484D01*
X19077206Y-13686484D02*
X19201015Y-13686484D01*
X19439111Y-13686484D02*
X19439111Y-13486484D01*
X19524825Y-13686484D02*
X19524825Y-13581722D01*
X19524825Y-13581722D02*
X19515301Y-13562674D01*
X19515301Y-13562674D02*
X19496253Y-13553150D01*
X19496253Y-13553150D02*
X19467682Y-13553150D01*
X19467682Y-13553150D02*
X19448634Y-13562674D01*
X19448634Y-13562674D02*
X19439111Y-13572198D01*
X19648634Y-13686484D02*
X19629587Y-13676960D01*
X19629587Y-13676960D02*
X19620063Y-13667436D01*
X19620063Y-13667436D02*
X19610539Y-13648388D01*
X19610539Y-13648388D02*
X19610539Y-13591246D01*
X19610539Y-13591246D02*
X19620063Y-13572198D01*
X19620063Y-13572198D02*
X19629587Y-13562674D01*
X19629587Y-13562674D02*
X19648634Y-13553150D01*
X19648634Y-13553150D02*
X19677206Y-13553150D01*
X19677206Y-13553150D02*
X19696253Y-13562674D01*
X19696253Y-13562674D02*
X19705777Y-13572198D01*
X19705777Y-13572198D02*
X19715301Y-13591246D01*
X19715301Y-13591246D02*
X19715301Y-13648388D01*
X19715301Y-13648388D02*
X19705777Y-13667436D01*
X19705777Y-13667436D02*
X19696253Y-13676960D01*
X19696253Y-13676960D02*
X19677206Y-13686484D01*
X19677206Y-13686484D02*
X19648634Y-13686484D01*
X19829587Y-13686484D02*
X19810539Y-13676960D01*
X19810539Y-13676960D02*
X19801015Y-13657912D01*
X19801015Y-13657912D02*
X19801015Y-13486484D01*
X19981968Y-13676960D02*
X19962920Y-13686484D01*
X19962920Y-13686484D02*
X19924825Y-13686484D01*
X19924825Y-13686484D02*
X19905777Y-13676960D01*
X19905777Y-13676960D02*
X19896253Y-13657912D01*
X19896253Y-13657912D02*
X19896253Y-13581722D01*
X19896253Y-13581722D02*
X19905777Y-13562674D01*
X19905777Y-13562674D02*
X19924825Y-13553150D01*
X19924825Y-13553150D02*
X19962920Y-13553150D01*
X19962920Y-13553150D02*
X19981968Y-13562674D01*
X19981968Y-13562674D02*
X19991492Y-13581722D01*
X19991492Y-13581722D02*
X19991492Y-13600769D01*
X19991492Y-13600769D02*
X19896253Y-13619817D01*
X20067682Y-13676960D02*
X20086730Y-13686484D01*
X20086730Y-13686484D02*
X20124825Y-13686484D01*
X20124825Y-13686484D02*
X20143873Y-13676960D01*
X20143873Y-13676960D02*
X20153396Y-13657912D01*
X20153396Y-13657912D02*
X20153396Y-13648388D01*
X20153396Y-13648388D02*
X20143873Y-13629341D01*
X20143873Y-13629341D02*
X20124825Y-13619817D01*
X20124825Y-13619817D02*
X20096253Y-13619817D01*
X20096253Y-13619817D02*
X20077206Y-13610293D01*
X20077206Y-13610293D02*
X20067682Y-13591246D01*
X20067682Y-13591246D02*
X20067682Y-13581722D01*
X20067682Y-13581722D02*
X20077206Y-13562674D01*
X20077206Y-13562674D02*
X20096253Y-13553150D01*
X20096253Y-13553150D02*
X20124825Y-13553150D01*
X20124825Y-13553150D02*
X20143873Y-13562674D01*
X20220063Y-13762674D02*
X20229587Y-13753150D01*
X20229587Y-13753150D02*
X20248634Y-13724579D01*
X20248634Y-13724579D02*
X20258158Y-13705531D01*
X20258158Y-13705531D02*
X20267682Y-13676960D01*
X20267682Y-13676960D02*
X20277206Y-13629341D01*
X20277206Y-13629341D02*
X20277206Y-13591246D01*
X20277206Y-13591246D02*
X20267682Y-13543627D01*
X20267682Y-13543627D02*
X20258158Y-13515055D01*
X20258158Y-13515055D02*
X20248634Y-13496008D01*
X20248634Y-13496008D02*
X20229587Y-13467436D01*
X20229587Y-13467436D02*
X20220063Y-13457912D01*
X20581968Y-13762674D02*
X20572444Y-13753150D01*
X20572444Y-13753150D02*
X20553396Y-13724579D01*
X20553396Y-13724579D02*
X20543873Y-13705531D01*
X20543873Y-13705531D02*
X20534349Y-13676960D01*
X20534349Y-13676960D02*
X20524825Y-13629341D01*
X20524825Y-13629341D02*
X20524825Y-13591246D01*
X20524825Y-13591246D02*
X20534349Y-13543627D01*
X20534349Y-13543627D02*
X20543873Y-13515055D01*
X20543873Y-13515055D02*
X20553396Y-13496008D01*
X20553396Y-13496008D02*
X20572444Y-13467436D01*
X20572444Y-13467436D02*
X20581968Y-13457912D01*
X20658158Y-13553150D02*
X20658158Y-13686484D01*
X20658158Y-13572198D02*
X20667682Y-13562674D01*
X20667682Y-13562674D02*
X20686730Y-13553150D01*
X20686730Y-13553150D02*
X20715301Y-13553150D01*
X20715301Y-13553150D02*
X20734349Y-13562674D01*
X20734349Y-13562674D02*
X20743873Y-13581722D01*
X20743873Y-13581722D02*
X20743873Y-13686484D01*
X20867682Y-13686484D02*
X20848634Y-13676960D01*
X20848634Y-13676960D02*
X20839111Y-13667436D01*
X20839111Y-13667436D02*
X20829587Y-13648388D01*
X20829587Y-13648388D02*
X20829587Y-13591246D01*
X20829587Y-13591246D02*
X20839111Y-13572198D01*
X20839111Y-13572198D02*
X20848634Y-13562674D01*
X20848634Y-13562674D02*
X20867682Y-13553150D01*
X20867682Y-13553150D02*
X20896254Y-13553150D01*
X20896254Y-13553150D02*
X20915301Y-13562674D01*
X20915301Y-13562674D02*
X20924825Y-13572198D01*
X20924825Y-13572198D02*
X20934349Y-13591246D01*
X20934349Y-13591246D02*
X20934349Y-13648388D01*
X20934349Y-13648388D02*
X20924825Y-13667436D01*
X20924825Y-13667436D02*
X20915301Y-13676960D01*
X20915301Y-13676960D02*
X20896254Y-13686484D01*
X20896254Y-13686484D02*
X20867682Y-13686484D01*
X20991492Y-13553150D02*
X21067682Y-13553150D01*
X21020063Y-13486484D02*
X21020063Y-13657912D01*
X21020063Y-13657912D02*
X21029587Y-13676960D01*
X21029587Y-13676960D02*
X21048634Y-13686484D01*
X21048634Y-13686484D02*
X21067682Y-13686484D01*
X21286730Y-13553150D02*
X21286730Y-13753150D01*
X21286730Y-13562674D02*
X21305777Y-13553150D01*
X21305777Y-13553150D02*
X21343873Y-13553150D01*
X21343873Y-13553150D02*
X21362920Y-13562674D01*
X21362920Y-13562674D02*
X21372444Y-13572198D01*
X21372444Y-13572198D02*
X21381968Y-13591246D01*
X21381968Y-13591246D02*
X21381968Y-13648388D01*
X21381968Y-13648388D02*
X21372444Y-13667436D01*
X21372444Y-13667436D02*
X21362920Y-13676960D01*
X21362920Y-13676960D02*
X21343873Y-13686484D01*
X21343873Y-13686484D02*
X21305777Y-13686484D01*
X21305777Y-13686484D02*
X21286730Y-13676960D01*
X21496254Y-13686484D02*
X21477206Y-13676960D01*
X21477206Y-13676960D02*
X21467682Y-13657912D01*
X21467682Y-13657912D02*
X21467682Y-13486484D01*
X21658158Y-13686484D02*
X21658158Y-13581722D01*
X21658158Y-13581722D02*
X21648635Y-13562674D01*
X21648635Y-13562674D02*
X21629587Y-13553150D01*
X21629587Y-13553150D02*
X21591492Y-13553150D01*
X21591492Y-13553150D02*
X21572444Y-13562674D01*
X21658158Y-13676960D02*
X21639111Y-13686484D01*
X21639111Y-13686484D02*
X21591492Y-13686484D01*
X21591492Y-13686484D02*
X21572444Y-13676960D01*
X21572444Y-13676960D02*
X21562920Y-13657912D01*
X21562920Y-13657912D02*
X21562920Y-13638865D01*
X21562920Y-13638865D02*
X21572444Y-13619817D01*
X21572444Y-13619817D02*
X21591492Y-13610293D01*
X21591492Y-13610293D02*
X21639111Y-13610293D01*
X21639111Y-13610293D02*
X21658158Y-13600769D01*
X21724825Y-13553150D02*
X21801015Y-13553150D01*
X21753396Y-13486484D02*
X21753396Y-13657912D01*
X21753396Y-13657912D02*
X21762920Y-13676960D01*
X21762920Y-13676960D02*
X21781968Y-13686484D01*
X21781968Y-13686484D02*
X21801015Y-13686484D01*
X21943873Y-13676960D02*
X21924825Y-13686484D01*
X21924825Y-13686484D02*
X21886730Y-13686484D01*
X21886730Y-13686484D02*
X21867682Y-13676960D01*
X21867682Y-13676960D02*
X21858158Y-13657912D01*
X21858158Y-13657912D02*
X21858158Y-13581722D01*
X21858158Y-13581722D02*
X21867682Y-13562674D01*
X21867682Y-13562674D02*
X21886730Y-13553150D01*
X21886730Y-13553150D02*
X21924825Y-13553150D01*
X21924825Y-13553150D02*
X21943873Y-13562674D01*
X21943873Y-13562674D02*
X21953396Y-13581722D01*
X21953396Y-13581722D02*
X21953396Y-13600769D01*
X21953396Y-13600769D02*
X21858158Y-13619817D01*
X22124825Y-13686484D02*
X22124825Y-13486484D01*
X22124825Y-13676960D02*
X22105777Y-13686484D01*
X22105777Y-13686484D02*
X22067682Y-13686484D01*
X22067682Y-13686484D02*
X22048635Y-13676960D01*
X22048635Y-13676960D02*
X22039111Y-13667436D01*
X22039111Y-13667436D02*
X22029587Y-13648388D01*
X22029587Y-13648388D02*
X22029587Y-13591246D01*
X22029587Y-13591246D02*
X22039111Y-13572198D01*
X22039111Y-13572198D02*
X22048635Y-13562674D01*
X22048635Y-13562674D02*
X22067682Y-13553150D01*
X22067682Y-13553150D02*
X22105777Y-13553150D01*
X22105777Y-13553150D02*
X22124825Y-13562674D01*
X22201016Y-13762674D02*
X22210539Y-13753150D01*
X22210539Y-13753150D02*
X22229587Y-13724579D01*
X22229587Y-13724579D02*
X22239111Y-13705531D01*
X22239111Y-13705531D02*
X22248635Y-13676960D01*
X22248635Y-13676960D02*
X22258158Y-13629341D01*
X22258158Y-13629341D02*
X22258158Y-13591246D01*
X22258158Y-13591246D02*
X22248635Y-13543627D01*
X22248635Y-13543627D02*
X22239111Y-13515055D01*
X22239111Y-13515055D02*
X22229587Y-13496008D01*
X22229587Y-13496008D02*
X22210539Y-13467436D01*
X22210539Y-13467436D02*
X22201016Y-13457912D01*
D13*
X15445000Y-13865000D02*
G75*
G02*
X15265000Y-13865000I-90000J0D01*
G01*
X15265000Y-13865000D02*
G75*
G02*
X15445000Y-13865000I90000J0D01*
G01*
D11*
X15810539Y-13956484D02*
X15696253Y-13956484D01*
X15753396Y-13956484D02*
X15753396Y-13756484D01*
X15753396Y-13756484D02*
X15734348Y-13785055D01*
X15734348Y-13785055D02*
X15715301Y-13804103D01*
X15715301Y-13804103D02*
X15696253Y-13813627D01*
X15896253Y-13937436D02*
X15905777Y-13946960D01*
X15905777Y-13946960D02*
X15896253Y-13956484D01*
X15896253Y-13956484D02*
X15886729Y-13946960D01*
X15886729Y-13946960D02*
X15896253Y-13937436D01*
X15896253Y-13937436D02*
X15896253Y-13956484D01*
X16020062Y-13842198D02*
X16001015Y-13832674D01*
X16001015Y-13832674D02*
X15991491Y-13823150D01*
X15991491Y-13823150D02*
X15981967Y-13804103D01*
X15981967Y-13804103D02*
X15981967Y-13794579D01*
X15981967Y-13794579D02*
X15991491Y-13775531D01*
X15991491Y-13775531D02*
X16001015Y-13766008D01*
X16001015Y-13766008D02*
X16020062Y-13756484D01*
X16020062Y-13756484D02*
X16058158Y-13756484D01*
X16058158Y-13756484D02*
X16077205Y-13766008D01*
X16077205Y-13766008D02*
X16086729Y-13775531D01*
X16086729Y-13775531D02*
X16096253Y-13794579D01*
X16096253Y-13794579D02*
X16096253Y-13804103D01*
X16096253Y-13804103D02*
X16086729Y-13823150D01*
X16086729Y-13823150D02*
X16077205Y-13832674D01*
X16077205Y-13832674D02*
X16058158Y-13842198D01*
X16058158Y-13842198D02*
X16020062Y-13842198D01*
X16020062Y-13842198D02*
X16001015Y-13851722D01*
X16001015Y-13851722D02*
X15991491Y-13861246D01*
X15991491Y-13861246D02*
X15981967Y-13880293D01*
X15981967Y-13880293D02*
X15981967Y-13918388D01*
X15981967Y-13918388D02*
X15991491Y-13937436D01*
X15991491Y-13937436D02*
X16001015Y-13946960D01*
X16001015Y-13946960D02*
X16020062Y-13956484D01*
X16020062Y-13956484D02*
X16058158Y-13956484D01*
X16058158Y-13956484D02*
X16077205Y-13946960D01*
X16077205Y-13946960D02*
X16086729Y-13937436D01*
X16086729Y-13937436D02*
X16096253Y-13918388D01*
X16096253Y-13918388D02*
X16096253Y-13880293D01*
X16096253Y-13880293D02*
X16086729Y-13861246D01*
X16086729Y-13861246D02*
X16077205Y-13851722D01*
X16077205Y-13851722D02*
X16058158Y-13842198D01*
X16220062Y-13756484D02*
X16239110Y-13756484D01*
X16239110Y-13756484D02*
X16258158Y-13766008D01*
X16258158Y-13766008D02*
X16267682Y-13775531D01*
X16267682Y-13775531D02*
X16277205Y-13794579D01*
X16277205Y-13794579D02*
X16286729Y-13832674D01*
X16286729Y-13832674D02*
X16286729Y-13880293D01*
X16286729Y-13880293D02*
X16277205Y-13918388D01*
X16277205Y-13918388D02*
X16267682Y-13937436D01*
X16267682Y-13937436D02*
X16258158Y-13946960D01*
X16258158Y-13946960D02*
X16239110Y-13956484D01*
X16239110Y-13956484D02*
X16220062Y-13956484D01*
X16220062Y-13956484D02*
X16201015Y-13946960D01*
X16201015Y-13946960D02*
X16191491Y-13937436D01*
X16191491Y-13937436D02*
X16181967Y-13918388D01*
X16181967Y-13918388D02*
X16172443Y-13880293D01*
X16172443Y-13880293D02*
X16172443Y-13832674D01*
X16172443Y-13832674D02*
X16181967Y-13794579D01*
X16181967Y-13794579D02*
X16191491Y-13775531D01*
X16191491Y-13775531D02*
X16201015Y-13766008D01*
X16201015Y-13766008D02*
X16220062Y-13756484D01*
X16410539Y-13756484D02*
X16429586Y-13756484D01*
X16429586Y-13756484D02*
X16448634Y-13766008D01*
X16448634Y-13766008D02*
X16458158Y-13775531D01*
X16458158Y-13775531D02*
X16467682Y-13794579D01*
X16467682Y-13794579D02*
X16477205Y-13832674D01*
X16477205Y-13832674D02*
X16477205Y-13880293D01*
X16477205Y-13880293D02*
X16467682Y-13918388D01*
X16467682Y-13918388D02*
X16458158Y-13937436D01*
X16458158Y-13937436D02*
X16448634Y-13946960D01*
X16448634Y-13946960D02*
X16429586Y-13956484D01*
X16429586Y-13956484D02*
X16410539Y-13956484D01*
X16410539Y-13956484D02*
X16391491Y-13946960D01*
X16391491Y-13946960D02*
X16381967Y-13937436D01*
X16381967Y-13937436D02*
X16372443Y-13918388D01*
X16372443Y-13918388D02*
X16362920Y-13880293D01*
X16362920Y-13880293D02*
X16362920Y-13832674D01*
X16362920Y-13832674D02*
X16372443Y-13794579D01*
X16372443Y-13794579D02*
X16381967Y-13775531D01*
X16381967Y-13775531D02*
X16391491Y-13766008D01*
X16391491Y-13766008D02*
X16410539Y-13756484D01*
X16562920Y-13956484D02*
X16562920Y-13823150D01*
X16562920Y-13842198D02*
X16572443Y-13832674D01*
X16572443Y-13832674D02*
X16591491Y-13823150D01*
X16591491Y-13823150D02*
X16620063Y-13823150D01*
X16620063Y-13823150D02*
X16639110Y-13832674D01*
X16639110Y-13832674D02*
X16648634Y-13851722D01*
X16648634Y-13851722D02*
X16648634Y-13956484D01*
X16648634Y-13851722D02*
X16658158Y-13832674D01*
X16658158Y-13832674D02*
X16677205Y-13823150D01*
X16677205Y-13823150D02*
X16705777Y-13823150D01*
X16705777Y-13823150D02*
X16724824Y-13832674D01*
X16724824Y-13832674D02*
X16734348Y-13851722D01*
X16734348Y-13851722D02*
X16734348Y-13956484D01*
X16829586Y-13956484D02*
X16829586Y-13823150D01*
X16829586Y-13842198D02*
X16839110Y-13832674D01*
X16839110Y-13832674D02*
X16858158Y-13823150D01*
X16858158Y-13823150D02*
X16886729Y-13823150D01*
X16886729Y-13823150D02*
X16905777Y-13832674D01*
X16905777Y-13832674D02*
X16915301Y-13851722D01*
X16915301Y-13851722D02*
X16915301Y-13956484D01*
X16915301Y-13851722D02*
X16924825Y-13832674D01*
X16924825Y-13832674D02*
X16943872Y-13823150D01*
X16943872Y-13823150D02*
X16972444Y-13823150D01*
X16972444Y-13823150D02*
X16991491Y-13832674D01*
X16991491Y-13832674D02*
X17001015Y-13851722D01*
X17001015Y-13851722D02*
X17001015Y-13956484D01*
X17391491Y-13746960D02*
X17220063Y-14004103D01*
X17648634Y-13756484D02*
X17667682Y-13756484D01*
X17667682Y-13756484D02*
X17686729Y-13766008D01*
X17686729Y-13766008D02*
X17696253Y-13775531D01*
X17696253Y-13775531D02*
X17705777Y-13794579D01*
X17705777Y-13794579D02*
X17715301Y-13832674D01*
X17715301Y-13832674D02*
X17715301Y-13880293D01*
X17715301Y-13880293D02*
X17705777Y-13918388D01*
X17705777Y-13918388D02*
X17696253Y-13937436D01*
X17696253Y-13937436D02*
X17686729Y-13946960D01*
X17686729Y-13946960D02*
X17667682Y-13956484D01*
X17667682Y-13956484D02*
X17648634Y-13956484D01*
X17648634Y-13956484D02*
X17629587Y-13946960D01*
X17629587Y-13946960D02*
X17620063Y-13937436D01*
X17620063Y-13937436D02*
X17610539Y-13918388D01*
X17610539Y-13918388D02*
X17601015Y-13880293D01*
X17601015Y-13880293D02*
X17601015Y-13832674D01*
X17601015Y-13832674D02*
X17610539Y-13794579D01*
X17610539Y-13794579D02*
X17620063Y-13775531D01*
X17620063Y-13775531D02*
X17629587Y-13766008D01*
X17629587Y-13766008D02*
X17648634Y-13756484D01*
X17801015Y-13937436D02*
X17810539Y-13946960D01*
X17810539Y-13946960D02*
X17801015Y-13956484D01*
X17801015Y-13956484D02*
X17791491Y-13946960D01*
X17791491Y-13946960D02*
X17801015Y-13937436D01*
X17801015Y-13937436D02*
X17801015Y-13956484D01*
X17934348Y-13756484D02*
X17953396Y-13756484D01*
X17953396Y-13756484D02*
X17972444Y-13766008D01*
X17972444Y-13766008D02*
X17981968Y-13775531D01*
X17981968Y-13775531D02*
X17991491Y-13794579D01*
X17991491Y-13794579D02*
X18001015Y-13832674D01*
X18001015Y-13832674D02*
X18001015Y-13880293D01*
X18001015Y-13880293D02*
X17991491Y-13918388D01*
X17991491Y-13918388D02*
X17981968Y-13937436D01*
X17981968Y-13937436D02*
X17972444Y-13946960D01*
X17972444Y-13946960D02*
X17953396Y-13956484D01*
X17953396Y-13956484D02*
X17934348Y-13956484D01*
X17934348Y-13956484D02*
X17915301Y-13946960D01*
X17915301Y-13946960D02*
X17905777Y-13937436D01*
X17905777Y-13937436D02*
X17896253Y-13918388D01*
X17896253Y-13918388D02*
X17886729Y-13880293D01*
X17886729Y-13880293D02*
X17886729Y-13832674D01*
X17886729Y-13832674D02*
X17896253Y-13794579D01*
X17896253Y-13794579D02*
X17905777Y-13775531D01*
X17905777Y-13775531D02*
X17915301Y-13766008D01*
X17915301Y-13766008D02*
X17934348Y-13756484D01*
X18067682Y-13756484D02*
X18201015Y-13756484D01*
X18201015Y-13756484D02*
X18115301Y-13956484D01*
X18315301Y-13756484D02*
X18334349Y-13756484D01*
X18334349Y-13756484D02*
X18353396Y-13766008D01*
X18353396Y-13766008D02*
X18362920Y-13775531D01*
X18362920Y-13775531D02*
X18372444Y-13794579D01*
X18372444Y-13794579D02*
X18381968Y-13832674D01*
X18381968Y-13832674D02*
X18381968Y-13880293D01*
X18381968Y-13880293D02*
X18372444Y-13918388D01*
X18372444Y-13918388D02*
X18362920Y-13937436D01*
X18362920Y-13937436D02*
X18353396Y-13946960D01*
X18353396Y-13946960D02*
X18334349Y-13956484D01*
X18334349Y-13956484D02*
X18315301Y-13956484D01*
X18315301Y-13956484D02*
X18296253Y-13946960D01*
X18296253Y-13946960D02*
X18286729Y-13937436D01*
X18286729Y-13937436D02*
X18277206Y-13918388D01*
X18277206Y-13918388D02*
X18267682Y-13880293D01*
X18267682Y-13880293D02*
X18267682Y-13832674D01*
X18267682Y-13832674D02*
X18277206Y-13794579D01*
X18277206Y-13794579D02*
X18286729Y-13775531D01*
X18286729Y-13775531D02*
X18296253Y-13766008D01*
X18296253Y-13766008D02*
X18315301Y-13756484D01*
X18477206Y-13956484D02*
X18515301Y-13956484D01*
X18515301Y-13956484D02*
X18534349Y-13946960D01*
X18534349Y-13946960D02*
X18543872Y-13937436D01*
X18543872Y-13937436D02*
X18562920Y-13908865D01*
X18562920Y-13908865D02*
X18572444Y-13870769D01*
X18572444Y-13870769D02*
X18572444Y-13794579D01*
X18572444Y-13794579D02*
X18562920Y-13775531D01*
X18562920Y-13775531D02*
X18553396Y-13766008D01*
X18553396Y-13766008D02*
X18534349Y-13756484D01*
X18534349Y-13756484D02*
X18496253Y-13756484D01*
X18496253Y-13756484D02*
X18477206Y-13766008D01*
X18477206Y-13766008D02*
X18467682Y-13775531D01*
X18467682Y-13775531D02*
X18458158Y-13794579D01*
X18458158Y-13794579D02*
X18458158Y-13842198D01*
X18458158Y-13842198D02*
X18467682Y-13861246D01*
X18467682Y-13861246D02*
X18477206Y-13870769D01*
X18477206Y-13870769D02*
X18496253Y-13880293D01*
X18496253Y-13880293D02*
X18534349Y-13880293D01*
X18534349Y-13880293D02*
X18553396Y-13870769D01*
X18553396Y-13870769D02*
X18562920Y-13861246D01*
X18562920Y-13861246D02*
X18572444Y-13842198D01*
X18648634Y-13756484D02*
X18648634Y-13794579D01*
X18724825Y-13756484D02*
X18724825Y-13794579D01*
X19020063Y-14032674D02*
X19010539Y-14023150D01*
X19010539Y-14023150D02*
X18991491Y-13994579D01*
X18991491Y-13994579D02*
X18981968Y-13975531D01*
X18981968Y-13975531D02*
X18972444Y-13946960D01*
X18972444Y-13946960D02*
X18962920Y-13899341D01*
X18962920Y-13899341D02*
X18962920Y-13861246D01*
X18962920Y-13861246D02*
X18972444Y-13813627D01*
X18972444Y-13813627D02*
X18981968Y-13785055D01*
X18981968Y-13785055D02*
X18991491Y-13766008D01*
X18991491Y-13766008D02*
X19010539Y-13737436D01*
X19010539Y-13737436D02*
X19020063Y-13727912D01*
X19086730Y-13775531D02*
X19096253Y-13766008D01*
X19096253Y-13766008D02*
X19115301Y-13756484D01*
X19115301Y-13756484D02*
X19162920Y-13756484D01*
X19162920Y-13756484D02*
X19181968Y-13766008D01*
X19181968Y-13766008D02*
X19191491Y-13775531D01*
X19191491Y-13775531D02*
X19201015Y-13794579D01*
X19201015Y-13794579D02*
X19201015Y-13813627D01*
X19201015Y-13813627D02*
X19191491Y-13842198D01*
X19191491Y-13842198D02*
X19077206Y-13956484D01*
X19077206Y-13956484D02*
X19201015Y-13956484D01*
X19439111Y-13956484D02*
X19439111Y-13756484D01*
X19524825Y-13956484D02*
X19524825Y-13851722D01*
X19524825Y-13851722D02*
X19515301Y-13832674D01*
X19515301Y-13832674D02*
X19496253Y-13823150D01*
X19496253Y-13823150D02*
X19467682Y-13823150D01*
X19467682Y-13823150D02*
X19448634Y-13832674D01*
X19448634Y-13832674D02*
X19439111Y-13842198D01*
X19648634Y-13956484D02*
X19629587Y-13946960D01*
X19629587Y-13946960D02*
X19620063Y-13937436D01*
X19620063Y-13937436D02*
X19610539Y-13918388D01*
X19610539Y-13918388D02*
X19610539Y-13861246D01*
X19610539Y-13861246D02*
X19620063Y-13842198D01*
X19620063Y-13842198D02*
X19629587Y-13832674D01*
X19629587Y-13832674D02*
X19648634Y-13823150D01*
X19648634Y-13823150D02*
X19677206Y-13823150D01*
X19677206Y-13823150D02*
X19696253Y-13832674D01*
X19696253Y-13832674D02*
X19705777Y-13842198D01*
X19705777Y-13842198D02*
X19715301Y-13861246D01*
X19715301Y-13861246D02*
X19715301Y-13918388D01*
X19715301Y-13918388D02*
X19705777Y-13937436D01*
X19705777Y-13937436D02*
X19696253Y-13946960D01*
X19696253Y-13946960D02*
X19677206Y-13956484D01*
X19677206Y-13956484D02*
X19648634Y-13956484D01*
X19829587Y-13956484D02*
X19810539Y-13946960D01*
X19810539Y-13946960D02*
X19801015Y-13927912D01*
X19801015Y-13927912D02*
X19801015Y-13756484D01*
X19981968Y-13946960D02*
X19962920Y-13956484D01*
X19962920Y-13956484D02*
X19924825Y-13956484D01*
X19924825Y-13956484D02*
X19905777Y-13946960D01*
X19905777Y-13946960D02*
X19896253Y-13927912D01*
X19896253Y-13927912D02*
X19896253Y-13851722D01*
X19896253Y-13851722D02*
X19905777Y-13832674D01*
X19905777Y-13832674D02*
X19924825Y-13823150D01*
X19924825Y-13823150D02*
X19962920Y-13823150D01*
X19962920Y-13823150D02*
X19981968Y-13832674D01*
X19981968Y-13832674D02*
X19991492Y-13851722D01*
X19991492Y-13851722D02*
X19991492Y-13870769D01*
X19991492Y-13870769D02*
X19896253Y-13889817D01*
X20067682Y-13946960D02*
X20086730Y-13956484D01*
X20086730Y-13956484D02*
X20124825Y-13956484D01*
X20124825Y-13956484D02*
X20143873Y-13946960D01*
X20143873Y-13946960D02*
X20153396Y-13927912D01*
X20153396Y-13927912D02*
X20153396Y-13918388D01*
X20153396Y-13918388D02*
X20143873Y-13899341D01*
X20143873Y-13899341D02*
X20124825Y-13889817D01*
X20124825Y-13889817D02*
X20096253Y-13889817D01*
X20096253Y-13889817D02*
X20077206Y-13880293D01*
X20077206Y-13880293D02*
X20067682Y-13861246D01*
X20067682Y-13861246D02*
X20067682Y-13851722D01*
X20067682Y-13851722D02*
X20077206Y-13832674D01*
X20077206Y-13832674D02*
X20096253Y-13823150D01*
X20096253Y-13823150D02*
X20124825Y-13823150D01*
X20124825Y-13823150D02*
X20143873Y-13832674D01*
X20220063Y-14032674D02*
X20229587Y-14023150D01*
X20229587Y-14023150D02*
X20248634Y-13994579D01*
X20248634Y-13994579D02*
X20258158Y-13975531D01*
X20258158Y-13975531D02*
X20267682Y-13946960D01*
X20267682Y-13946960D02*
X20277206Y-13899341D01*
X20277206Y-13899341D02*
X20277206Y-13861246D01*
X20277206Y-13861246D02*
X20267682Y-13813627D01*
X20267682Y-13813627D02*
X20258158Y-13785055D01*
X20258158Y-13785055D02*
X20248634Y-13766008D01*
X20248634Y-13766008D02*
X20229587Y-13737436D01*
X20229587Y-13737436D02*
X20220063Y-13727912D01*
X20581968Y-14032674D02*
X20572444Y-14023150D01*
X20572444Y-14023150D02*
X20553396Y-13994579D01*
X20553396Y-13994579D02*
X20543873Y-13975531D01*
X20543873Y-13975531D02*
X20534349Y-13946960D01*
X20534349Y-13946960D02*
X20524825Y-13899341D01*
X20524825Y-13899341D02*
X20524825Y-13861246D01*
X20524825Y-13861246D02*
X20534349Y-13813627D01*
X20534349Y-13813627D02*
X20543873Y-13785055D01*
X20543873Y-13785055D02*
X20553396Y-13766008D01*
X20553396Y-13766008D02*
X20572444Y-13737436D01*
X20572444Y-13737436D02*
X20581968Y-13727912D01*
X20658158Y-13823150D02*
X20658158Y-13956484D01*
X20658158Y-13842198D02*
X20667682Y-13832674D01*
X20667682Y-13832674D02*
X20686730Y-13823150D01*
X20686730Y-13823150D02*
X20715301Y-13823150D01*
X20715301Y-13823150D02*
X20734349Y-13832674D01*
X20734349Y-13832674D02*
X20743873Y-13851722D01*
X20743873Y-13851722D02*
X20743873Y-13956484D01*
X20867682Y-13956484D02*
X20848634Y-13946960D01*
X20848634Y-13946960D02*
X20839111Y-13937436D01*
X20839111Y-13937436D02*
X20829587Y-13918388D01*
X20829587Y-13918388D02*
X20829587Y-13861246D01*
X20829587Y-13861246D02*
X20839111Y-13842198D01*
X20839111Y-13842198D02*
X20848634Y-13832674D01*
X20848634Y-13832674D02*
X20867682Y-13823150D01*
X20867682Y-13823150D02*
X20896254Y-13823150D01*
X20896254Y-13823150D02*
X20915301Y-13832674D01*
X20915301Y-13832674D02*
X20924825Y-13842198D01*
X20924825Y-13842198D02*
X20934349Y-13861246D01*
X20934349Y-13861246D02*
X20934349Y-13918388D01*
X20934349Y-13918388D02*
X20924825Y-13937436D01*
X20924825Y-13937436D02*
X20915301Y-13946960D01*
X20915301Y-13946960D02*
X20896254Y-13956484D01*
X20896254Y-13956484D02*
X20867682Y-13956484D01*
X20991492Y-13823150D02*
X21067682Y-13823150D01*
X21020063Y-13756484D02*
X21020063Y-13927912D01*
X21020063Y-13927912D02*
X21029587Y-13946960D01*
X21029587Y-13946960D02*
X21048634Y-13956484D01*
X21048634Y-13956484D02*
X21067682Y-13956484D01*
X21286730Y-13823150D02*
X21286730Y-14023150D01*
X21286730Y-13832674D02*
X21305777Y-13823150D01*
X21305777Y-13823150D02*
X21343873Y-13823150D01*
X21343873Y-13823150D02*
X21362920Y-13832674D01*
X21362920Y-13832674D02*
X21372444Y-13842198D01*
X21372444Y-13842198D02*
X21381968Y-13861246D01*
X21381968Y-13861246D02*
X21381968Y-13918388D01*
X21381968Y-13918388D02*
X21372444Y-13937436D01*
X21372444Y-13937436D02*
X21362920Y-13946960D01*
X21362920Y-13946960D02*
X21343873Y-13956484D01*
X21343873Y-13956484D02*
X21305777Y-13956484D01*
X21305777Y-13956484D02*
X21286730Y-13946960D01*
X21496254Y-13956484D02*
X21477206Y-13946960D01*
X21477206Y-13946960D02*
X21467682Y-13927912D01*
X21467682Y-13927912D02*
X21467682Y-13756484D01*
X21658158Y-13956484D02*
X21658158Y-13851722D01*
X21658158Y-13851722D02*
X21648635Y-13832674D01*
X21648635Y-13832674D02*
X21629587Y-13823150D01*
X21629587Y-13823150D02*
X21591492Y-13823150D01*
X21591492Y-13823150D02*
X21572444Y-13832674D01*
X21658158Y-13946960D02*
X21639111Y-13956484D01*
X21639111Y-13956484D02*
X21591492Y-13956484D01*
X21591492Y-13956484D02*
X21572444Y-13946960D01*
X21572444Y-13946960D02*
X21562920Y-13927912D01*
X21562920Y-13927912D02*
X21562920Y-13908865D01*
X21562920Y-13908865D02*
X21572444Y-13889817D01*
X21572444Y-13889817D02*
X21591492Y-13880293D01*
X21591492Y-13880293D02*
X21639111Y-13880293D01*
X21639111Y-13880293D02*
X21658158Y-13870769D01*
X21724825Y-13823150D02*
X21801015Y-13823150D01*
X21753396Y-13756484D02*
X21753396Y-13927912D01*
X21753396Y-13927912D02*
X21762920Y-13946960D01*
X21762920Y-13946960D02*
X21781968Y-13956484D01*
X21781968Y-13956484D02*
X21801015Y-13956484D01*
X21943873Y-13946960D02*
X21924825Y-13956484D01*
X21924825Y-13956484D02*
X21886730Y-13956484D01*
X21886730Y-13956484D02*
X21867682Y-13946960D01*
X21867682Y-13946960D02*
X21858158Y-13927912D01*
X21858158Y-13927912D02*
X21858158Y-13851722D01*
X21858158Y-13851722D02*
X21867682Y-13832674D01*
X21867682Y-13832674D02*
X21886730Y-13823150D01*
X21886730Y-13823150D02*
X21924825Y-13823150D01*
X21924825Y-13823150D02*
X21943873Y-13832674D01*
X21943873Y-13832674D02*
X21953396Y-13851722D01*
X21953396Y-13851722D02*
X21953396Y-13870769D01*
X21953396Y-13870769D02*
X21858158Y-13889817D01*
X22124825Y-13956484D02*
X22124825Y-13756484D01*
X22124825Y-13946960D02*
X22105777Y-13956484D01*
X22105777Y-13956484D02*
X22067682Y-13956484D01*
X22067682Y-13956484D02*
X22048635Y-13946960D01*
X22048635Y-13946960D02*
X22039111Y-13937436D01*
X22039111Y-13937436D02*
X22029587Y-13918388D01*
X22029587Y-13918388D02*
X22029587Y-13861246D01*
X22029587Y-13861246D02*
X22039111Y-13842198D01*
X22039111Y-13842198D02*
X22048635Y-13832674D01*
X22048635Y-13832674D02*
X22067682Y-13823150D01*
X22067682Y-13823150D02*
X22105777Y-13823150D01*
X22105777Y-13823150D02*
X22124825Y-13832674D01*
X22201016Y-14032674D02*
X22210539Y-14023150D01*
X22210539Y-14023150D02*
X22229587Y-13994579D01*
X22229587Y-13994579D02*
X22239111Y-13975531D01*
X22239111Y-13975531D02*
X22248635Y-13946960D01*
X22248635Y-13946960D02*
X22258158Y-13899341D01*
X22258158Y-13899341D02*
X22258158Y-13861246D01*
X22258158Y-13861246D02*
X22248635Y-13813627D01*
X22248635Y-13813627D02*
X22239111Y-13785055D01*
X22239111Y-13785055D02*
X22229587Y-13766008D01*
X22229587Y-13766008D02*
X22210539Y-13737436D01*
X22210539Y-13737436D02*
X22201016Y-13727912D01*
X15345000Y-14065000D02*
X15345000Y-14265000D01*
X15245000Y-14165000D02*
X15445000Y-14165000D01*
X15686729Y-14056484D02*
X15810539Y-14056484D01*
X15810539Y-14056484D02*
X15743872Y-14132674D01*
X15743872Y-14132674D02*
X15772443Y-14132674D01*
X15772443Y-14132674D02*
X15791491Y-14142198D01*
X15791491Y-14142198D02*
X15801015Y-14151722D01*
X15801015Y-14151722D02*
X15810539Y-14170769D01*
X15810539Y-14170769D02*
X15810539Y-14218388D01*
X15810539Y-14218388D02*
X15801015Y-14237436D01*
X15801015Y-14237436D02*
X15791491Y-14246960D01*
X15791491Y-14246960D02*
X15772443Y-14256484D01*
X15772443Y-14256484D02*
X15715301Y-14256484D01*
X15715301Y-14256484D02*
X15696253Y-14246960D01*
X15696253Y-14246960D02*
X15686729Y-14237436D01*
X15896253Y-14237436D02*
X15905777Y-14246960D01*
X15905777Y-14246960D02*
X15896253Y-14256484D01*
X15896253Y-14256484D02*
X15886729Y-14246960D01*
X15886729Y-14246960D02*
X15896253Y-14237436D01*
X15896253Y-14237436D02*
X15896253Y-14256484D01*
X15981967Y-14075531D02*
X15991491Y-14066008D01*
X15991491Y-14066008D02*
X16010539Y-14056484D01*
X16010539Y-14056484D02*
X16058158Y-14056484D01*
X16058158Y-14056484D02*
X16077205Y-14066008D01*
X16077205Y-14066008D02*
X16086729Y-14075531D01*
X16086729Y-14075531D02*
X16096253Y-14094579D01*
X16096253Y-14094579D02*
X16096253Y-14113627D01*
X16096253Y-14113627D02*
X16086729Y-14142198D01*
X16086729Y-14142198D02*
X15972443Y-14256484D01*
X15972443Y-14256484D02*
X16096253Y-14256484D01*
X16220062Y-14056484D02*
X16239110Y-14056484D01*
X16239110Y-14056484D02*
X16258158Y-14066008D01*
X16258158Y-14066008D02*
X16267682Y-14075531D01*
X16267682Y-14075531D02*
X16277205Y-14094579D01*
X16277205Y-14094579D02*
X16286729Y-14132674D01*
X16286729Y-14132674D02*
X16286729Y-14180293D01*
X16286729Y-14180293D02*
X16277205Y-14218388D01*
X16277205Y-14218388D02*
X16267682Y-14237436D01*
X16267682Y-14237436D02*
X16258158Y-14246960D01*
X16258158Y-14246960D02*
X16239110Y-14256484D01*
X16239110Y-14256484D02*
X16220062Y-14256484D01*
X16220062Y-14256484D02*
X16201015Y-14246960D01*
X16201015Y-14246960D02*
X16191491Y-14237436D01*
X16191491Y-14237436D02*
X16181967Y-14218388D01*
X16181967Y-14218388D02*
X16172443Y-14180293D01*
X16172443Y-14180293D02*
X16172443Y-14132674D01*
X16172443Y-14132674D02*
X16181967Y-14094579D01*
X16181967Y-14094579D02*
X16191491Y-14075531D01*
X16191491Y-14075531D02*
X16201015Y-14066008D01*
X16201015Y-14066008D02*
X16220062Y-14056484D01*
X16410539Y-14056484D02*
X16429586Y-14056484D01*
X16429586Y-14056484D02*
X16448634Y-14066008D01*
X16448634Y-14066008D02*
X16458158Y-14075531D01*
X16458158Y-14075531D02*
X16467682Y-14094579D01*
X16467682Y-14094579D02*
X16477205Y-14132674D01*
X16477205Y-14132674D02*
X16477205Y-14180293D01*
X16477205Y-14180293D02*
X16467682Y-14218388D01*
X16467682Y-14218388D02*
X16458158Y-14237436D01*
X16458158Y-14237436D02*
X16448634Y-14246960D01*
X16448634Y-14246960D02*
X16429586Y-14256484D01*
X16429586Y-14256484D02*
X16410539Y-14256484D01*
X16410539Y-14256484D02*
X16391491Y-14246960D01*
X16391491Y-14246960D02*
X16381967Y-14237436D01*
X16381967Y-14237436D02*
X16372443Y-14218388D01*
X16372443Y-14218388D02*
X16362920Y-14180293D01*
X16362920Y-14180293D02*
X16362920Y-14132674D01*
X16362920Y-14132674D02*
X16372443Y-14094579D01*
X16372443Y-14094579D02*
X16381967Y-14075531D01*
X16381967Y-14075531D02*
X16391491Y-14066008D01*
X16391491Y-14066008D02*
X16410539Y-14056484D01*
X16562920Y-14256484D02*
X16562920Y-14123150D01*
X16562920Y-14142198D02*
X16572443Y-14132674D01*
X16572443Y-14132674D02*
X16591491Y-14123150D01*
X16591491Y-14123150D02*
X16620063Y-14123150D01*
X16620063Y-14123150D02*
X16639110Y-14132674D01*
X16639110Y-14132674D02*
X16648634Y-14151722D01*
X16648634Y-14151722D02*
X16648634Y-14256484D01*
X16648634Y-14151722D02*
X16658158Y-14132674D01*
X16658158Y-14132674D02*
X16677205Y-14123150D01*
X16677205Y-14123150D02*
X16705777Y-14123150D01*
X16705777Y-14123150D02*
X16724824Y-14132674D01*
X16724824Y-14132674D02*
X16734348Y-14151722D01*
X16734348Y-14151722D02*
X16734348Y-14256484D01*
X16829586Y-14256484D02*
X16829586Y-14123150D01*
X16829586Y-14142198D02*
X16839110Y-14132674D01*
X16839110Y-14132674D02*
X16858158Y-14123150D01*
X16858158Y-14123150D02*
X16886729Y-14123150D01*
X16886729Y-14123150D02*
X16905777Y-14132674D01*
X16905777Y-14132674D02*
X16915301Y-14151722D01*
X16915301Y-14151722D02*
X16915301Y-14256484D01*
X16915301Y-14151722D02*
X16924825Y-14132674D01*
X16924825Y-14132674D02*
X16943872Y-14123150D01*
X16943872Y-14123150D02*
X16972444Y-14123150D01*
X16972444Y-14123150D02*
X16991491Y-14132674D01*
X16991491Y-14132674D02*
X17001015Y-14151722D01*
X17001015Y-14151722D02*
X17001015Y-14256484D01*
X17391491Y-14046960D02*
X17220063Y-14304103D01*
X17648634Y-14056484D02*
X17667682Y-14056484D01*
X17667682Y-14056484D02*
X17686729Y-14066008D01*
X17686729Y-14066008D02*
X17696253Y-14075531D01*
X17696253Y-14075531D02*
X17705777Y-14094579D01*
X17705777Y-14094579D02*
X17715301Y-14132674D01*
X17715301Y-14132674D02*
X17715301Y-14180293D01*
X17715301Y-14180293D02*
X17705777Y-14218388D01*
X17705777Y-14218388D02*
X17696253Y-14237436D01*
X17696253Y-14237436D02*
X17686729Y-14246960D01*
X17686729Y-14246960D02*
X17667682Y-14256484D01*
X17667682Y-14256484D02*
X17648634Y-14256484D01*
X17648634Y-14256484D02*
X17629587Y-14246960D01*
X17629587Y-14246960D02*
X17620063Y-14237436D01*
X17620063Y-14237436D02*
X17610539Y-14218388D01*
X17610539Y-14218388D02*
X17601015Y-14180293D01*
X17601015Y-14180293D02*
X17601015Y-14132674D01*
X17601015Y-14132674D02*
X17610539Y-14094579D01*
X17610539Y-14094579D02*
X17620063Y-14075531D01*
X17620063Y-14075531D02*
X17629587Y-14066008D01*
X17629587Y-14066008D02*
X17648634Y-14056484D01*
X17801015Y-14237436D02*
X17810539Y-14246960D01*
X17810539Y-14246960D02*
X17801015Y-14256484D01*
X17801015Y-14256484D02*
X17791491Y-14246960D01*
X17791491Y-14246960D02*
X17801015Y-14237436D01*
X17801015Y-14237436D02*
X17801015Y-14256484D01*
X18001015Y-14256484D02*
X17886729Y-14256484D01*
X17943872Y-14256484D02*
X17943872Y-14056484D01*
X17943872Y-14056484D02*
X17924825Y-14085055D01*
X17924825Y-14085055D02*
X17905777Y-14104103D01*
X17905777Y-14104103D02*
X17886729Y-14113627D01*
X18077206Y-14075531D02*
X18086729Y-14066008D01*
X18086729Y-14066008D02*
X18105777Y-14056484D01*
X18105777Y-14056484D02*
X18153396Y-14056484D01*
X18153396Y-14056484D02*
X18172444Y-14066008D01*
X18172444Y-14066008D02*
X18181968Y-14075531D01*
X18181968Y-14075531D02*
X18191491Y-14094579D01*
X18191491Y-14094579D02*
X18191491Y-14113627D01*
X18191491Y-14113627D02*
X18181968Y-14142198D01*
X18181968Y-14142198D02*
X18067682Y-14256484D01*
X18067682Y-14256484D02*
X18191491Y-14256484D01*
X18362920Y-14056484D02*
X18324825Y-14056484D01*
X18324825Y-14056484D02*
X18305777Y-14066008D01*
X18305777Y-14066008D02*
X18296253Y-14075531D01*
X18296253Y-14075531D02*
X18277206Y-14104103D01*
X18277206Y-14104103D02*
X18267682Y-14142198D01*
X18267682Y-14142198D02*
X18267682Y-14218388D01*
X18267682Y-14218388D02*
X18277206Y-14237436D01*
X18277206Y-14237436D02*
X18286729Y-14246960D01*
X18286729Y-14246960D02*
X18305777Y-14256484D01*
X18305777Y-14256484D02*
X18343872Y-14256484D01*
X18343872Y-14256484D02*
X18362920Y-14246960D01*
X18362920Y-14246960D02*
X18372444Y-14237436D01*
X18372444Y-14237436D02*
X18381968Y-14218388D01*
X18381968Y-14218388D02*
X18381968Y-14170769D01*
X18381968Y-14170769D02*
X18372444Y-14151722D01*
X18372444Y-14151722D02*
X18362920Y-14142198D01*
X18362920Y-14142198D02*
X18343872Y-14132674D01*
X18343872Y-14132674D02*
X18305777Y-14132674D01*
X18305777Y-14132674D02*
X18286729Y-14142198D01*
X18286729Y-14142198D02*
X18277206Y-14151722D01*
X18277206Y-14151722D02*
X18267682Y-14170769D01*
X18505777Y-14056484D02*
X18524825Y-14056484D01*
X18524825Y-14056484D02*
X18543872Y-14066008D01*
X18543872Y-14066008D02*
X18553396Y-14075531D01*
X18553396Y-14075531D02*
X18562920Y-14094579D01*
X18562920Y-14094579D02*
X18572444Y-14132674D01*
X18572444Y-14132674D02*
X18572444Y-14180293D01*
X18572444Y-14180293D02*
X18562920Y-14218388D01*
X18562920Y-14218388D02*
X18553396Y-14237436D01*
X18553396Y-14237436D02*
X18543872Y-14246960D01*
X18543872Y-14246960D02*
X18524825Y-14256484D01*
X18524825Y-14256484D02*
X18505777Y-14256484D01*
X18505777Y-14256484D02*
X18486729Y-14246960D01*
X18486729Y-14246960D02*
X18477206Y-14237436D01*
X18477206Y-14237436D02*
X18467682Y-14218388D01*
X18467682Y-14218388D02*
X18458158Y-14180293D01*
X18458158Y-14180293D02*
X18458158Y-14132674D01*
X18458158Y-14132674D02*
X18467682Y-14094579D01*
X18467682Y-14094579D02*
X18477206Y-14075531D01*
X18477206Y-14075531D02*
X18486729Y-14066008D01*
X18486729Y-14066008D02*
X18505777Y-14056484D01*
X18648634Y-14056484D02*
X18648634Y-14094579D01*
X18724825Y-14056484D02*
X18724825Y-14094579D01*
X19020063Y-14332674D02*
X19010539Y-14323150D01*
X19010539Y-14323150D02*
X18991491Y-14294579D01*
X18991491Y-14294579D02*
X18981968Y-14275531D01*
X18981968Y-14275531D02*
X18972444Y-14246960D01*
X18972444Y-14246960D02*
X18962920Y-14199341D01*
X18962920Y-14199341D02*
X18962920Y-14161246D01*
X18962920Y-14161246D02*
X18972444Y-14113627D01*
X18972444Y-14113627D02*
X18981968Y-14085055D01*
X18981968Y-14085055D02*
X18991491Y-14066008D01*
X18991491Y-14066008D02*
X19010539Y-14037436D01*
X19010539Y-14037436D02*
X19020063Y-14027912D01*
X19077206Y-14056484D02*
X19201015Y-14056484D01*
X19201015Y-14056484D02*
X19134349Y-14132674D01*
X19134349Y-14132674D02*
X19162920Y-14132674D01*
X19162920Y-14132674D02*
X19181968Y-14142198D01*
X19181968Y-14142198D02*
X19191491Y-14151722D01*
X19191491Y-14151722D02*
X19201015Y-14170769D01*
X19201015Y-14170769D02*
X19201015Y-14218388D01*
X19201015Y-14218388D02*
X19191491Y-14237436D01*
X19191491Y-14237436D02*
X19181968Y-14246960D01*
X19181968Y-14246960D02*
X19162920Y-14256484D01*
X19162920Y-14256484D02*
X19105777Y-14256484D01*
X19105777Y-14256484D02*
X19086730Y-14246960D01*
X19086730Y-14246960D02*
X19077206Y-14237436D01*
X19439111Y-14256484D02*
X19439111Y-14056484D01*
X19524825Y-14256484D02*
X19524825Y-14151722D01*
X19524825Y-14151722D02*
X19515301Y-14132674D01*
X19515301Y-14132674D02*
X19496253Y-14123150D01*
X19496253Y-14123150D02*
X19467682Y-14123150D01*
X19467682Y-14123150D02*
X19448634Y-14132674D01*
X19448634Y-14132674D02*
X19439111Y-14142198D01*
X19648634Y-14256484D02*
X19629587Y-14246960D01*
X19629587Y-14246960D02*
X19620063Y-14237436D01*
X19620063Y-14237436D02*
X19610539Y-14218388D01*
X19610539Y-14218388D02*
X19610539Y-14161246D01*
X19610539Y-14161246D02*
X19620063Y-14142198D01*
X19620063Y-14142198D02*
X19629587Y-14132674D01*
X19629587Y-14132674D02*
X19648634Y-14123150D01*
X19648634Y-14123150D02*
X19677206Y-14123150D01*
X19677206Y-14123150D02*
X19696253Y-14132674D01*
X19696253Y-14132674D02*
X19705777Y-14142198D01*
X19705777Y-14142198D02*
X19715301Y-14161246D01*
X19715301Y-14161246D02*
X19715301Y-14218388D01*
X19715301Y-14218388D02*
X19705777Y-14237436D01*
X19705777Y-14237436D02*
X19696253Y-14246960D01*
X19696253Y-14246960D02*
X19677206Y-14256484D01*
X19677206Y-14256484D02*
X19648634Y-14256484D01*
X19829587Y-14256484D02*
X19810539Y-14246960D01*
X19810539Y-14246960D02*
X19801015Y-14227912D01*
X19801015Y-14227912D02*
X19801015Y-14056484D01*
X19981968Y-14246960D02*
X19962920Y-14256484D01*
X19962920Y-14256484D02*
X19924825Y-14256484D01*
X19924825Y-14256484D02*
X19905777Y-14246960D01*
X19905777Y-14246960D02*
X19896253Y-14227912D01*
X19896253Y-14227912D02*
X19896253Y-14151722D01*
X19896253Y-14151722D02*
X19905777Y-14132674D01*
X19905777Y-14132674D02*
X19924825Y-14123150D01*
X19924825Y-14123150D02*
X19962920Y-14123150D01*
X19962920Y-14123150D02*
X19981968Y-14132674D01*
X19981968Y-14132674D02*
X19991492Y-14151722D01*
X19991492Y-14151722D02*
X19991492Y-14170769D01*
X19991492Y-14170769D02*
X19896253Y-14189817D01*
X20067682Y-14246960D02*
X20086730Y-14256484D01*
X20086730Y-14256484D02*
X20124825Y-14256484D01*
X20124825Y-14256484D02*
X20143873Y-14246960D01*
X20143873Y-14246960D02*
X20153396Y-14227912D01*
X20153396Y-14227912D02*
X20153396Y-14218388D01*
X20153396Y-14218388D02*
X20143873Y-14199341D01*
X20143873Y-14199341D02*
X20124825Y-14189817D01*
X20124825Y-14189817D02*
X20096253Y-14189817D01*
X20096253Y-14189817D02*
X20077206Y-14180293D01*
X20077206Y-14180293D02*
X20067682Y-14161246D01*
X20067682Y-14161246D02*
X20067682Y-14151722D01*
X20067682Y-14151722D02*
X20077206Y-14132674D01*
X20077206Y-14132674D02*
X20096253Y-14123150D01*
X20096253Y-14123150D02*
X20124825Y-14123150D01*
X20124825Y-14123150D02*
X20143873Y-14132674D01*
X20220063Y-14332674D02*
X20229587Y-14323150D01*
X20229587Y-14323150D02*
X20248634Y-14294579D01*
X20248634Y-14294579D02*
X20258158Y-14275531D01*
X20258158Y-14275531D02*
X20267682Y-14246960D01*
X20267682Y-14246960D02*
X20277206Y-14199341D01*
X20277206Y-14199341D02*
X20277206Y-14161246D01*
X20277206Y-14161246D02*
X20267682Y-14113627D01*
X20267682Y-14113627D02*
X20258158Y-14085055D01*
X20258158Y-14085055D02*
X20248634Y-14066008D01*
X20248634Y-14066008D02*
X20229587Y-14037436D01*
X20229587Y-14037436D02*
X20220063Y-14027912D01*
X20581968Y-14332674D02*
X20572444Y-14323150D01*
X20572444Y-14323150D02*
X20553396Y-14294579D01*
X20553396Y-14294579D02*
X20543873Y-14275531D01*
X20543873Y-14275531D02*
X20534349Y-14246960D01*
X20534349Y-14246960D02*
X20524825Y-14199341D01*
X20524825Y-14199341D02*
X20524825Y-14161246D01*
X20524825Y-14161246D02*
X20534349Y-14113627D01*
X20534349Y-14113627D02*
X20543873Y-14085055D01*
X20543873Y-14085055D02*
X20553396Y-14066008D01*
X20553396Y-14066008D02*
X20572444Y-14037436D01*
X20572444Y-14037436D02*
X20581968Y-14027912D01*
X20658158Y-14123150D02*
X20658158Y-14256484D01*
X20658158Y-14142198D02*
X20667682Y-14132674D01*
X20667682Y-14132674D02*
X20686730Y-14123150D01*
X20686730Y-14123150D02*
X20715301Y-14123150D01*
X20715301Y-14123150D02*
X20734349Y-14132674D01*
X20734349Y-14132674D02*
X20743873Y-14151722D01*
X20743873Y-14151722D02*
X20743873Y-14256484D01*
X20867682Y-14256484D02*
X20848634Y-14246960D01*
X20848634Y-14246960D02*
X20839111Y-14237436D01*
X20839111Y-14237436D02*
X20829587Y-14218388D01*
X20829587Y-14218388D02*
X20829587Y-14161246D01*
X20829587Y-14161246D02*
X20839111Y-14142198D01*
X20839111Y-14142198D02*
X20848634Y-14132674D01*
X20848634Y-14132674D02*
X20867682Y-14123150D01*
X20867682Y-14123150D02*
X20896254Y-14123150D01*
X20896254Y-14123150D02*
X20915301Y-14132674D01*
X20915301Y-14132674D02*
X20924825Y-14142198D01*
X20924825Y-14142198D02*
X20934349Y-14161246D01*
X20934349Y-14161246D02*
X20934349Y-14218388D01*
X20934349Y-14218388D02*
X20924825Y-14237436D01*
X20924825Y-14237436D02*
X20915301Y-14246960D01*
X20915301Y-14246960D02*
X20896254Y-14256484D01*
X20896254Y-14256484D02*
X20867682Y-14256484D01*
X20991492Y-14123150D02*
X21067682Y-14123150D01*
X21020063Y-14056484D02*
X21020063Y-14227912D01*
X21020063Y-14227912D02*
X21029587Y-14246960D01*
X21029587Y-14246960D02*
X21048634Y-14256484D01*
X21048634Y-14256484D02*
X21067682Y-14256484D01*
X21286730Y-14123150D02*
X21286730Y-14323150D01*
X21286730Y-14132674D02*
X21305777Y-14123150D01*
X21305777Y-14123150D02*
X21343873Y-14123150D01*
X21343873Y-14123150D02*
X21362920Y-14132674D01*
X21362920Y-14132674D02*
X21372444Y-14142198D01*
X21372444Y-14142198D02*
X21381968Y-14161246D01*
X21381968Y-14161246D02*
X21381968Y-14218388D01*
X21381968Y-14218388D02*
X21372444Y-14237436D01*
X21372444Y-14237436D02*
X21362920Y-14246960D01*
X21362920Y-14246960D02*
X21343873Y-14256484D01*
X21343873Y-14256484D02*
X21305777Y-14256484D01*
X21305777Y-14256484D02*
X21286730Y-14246960D01*
X21496254Y-14256484D02*
X21477206Y-14246960D01*
X21477206Y-14246960D02*
X21467682Y-14227912D01*
X21467682Y-14227912D02*
X21467682Y-14056484D01*
X21658158Y-14256484D02*
X21658158Y-14151722D01*
X21658158Y-14151722D02*
X21648635Y-14132674D01*
X21648635Y-14132674D02*
X21629587Y-14123150D01*
X21629587Y-14123150D02*
X21591492Y-14123150D01*
X21591492Y-14123150D02*
X21572444Y-14132674D01*
X21658158Y-14246960D02*
X21639111Y-14256484D01*
X21639111Y-14256484D02*
X21591492Y-14256484D01*
X21591492Y-14256484D02*
X21572444Y-14246960D01*
X21572444Y-14246960D02*
X21562920Y-14227912D01*
X21562920Y-14227912D02*
X21562920Y-14208865D01*
X21562920Y-14208865D02*
X21572444Y-14189817D01*
X21572444Y-14189817D02*
X21591492Y-14180293D01*
X21591492Y-14180293D02*
X21639111Y-14180293D01*
X21639111Y-14180293D02*
X21658158Y-14170769D01*
X21724825Y-14123150D02*
X21801015Y-14123150D01*
X21753396Y-14056484D02*
X21753396Y-14227912D01*
X21753396Y-14227912D02*
X21762920Y-14246960D01*
X21762920Y-14246960D02*
X21781968Y-14256484D01*
X21781968Y-14256484D02*
X21801015Y-14256484D01*
X21943873Y-14246960D02*
X21924825Y-14256484D01*
X21924825Y-14256484D02*
X21886730Y-14256484D01*
X21886730Y-14256484D02*
X21867682Y-14246960D01*
X21867682Y-14246960D02*
X21858158Y-14227912D01*
X21858158Y-14227912D02*
X21858158Y-14151722D01*
X21858158Y-14151722D02*
X21867682Y-14132674D01*
X21867682Y-14132674D02*
X21886730Y-14123150D01*
X21886730Y-14123150D02*
X21924825Y-14123150D01*
X21924825Y-14123150D02*
X21943873Y-14132674D01*
X21943873Y-14132674D02*
X21953396Y-14151722D01*
X21953396Y-14151722D02*
X21953396Y-14170769D01*
X21953396Y-14170769D02*
X21858158Y-14189817D01*
X22124825Y-14256484D02*
X22124825Y-14056484D01*
X22124825Y-14246960D02*
X22105777Y-14256484D01*
X22105777Y-14256484D02*
X22067682Y-14256484D01*
X22067682Y-14256484D02*
X22048635Y-14246960D01*
X22048635Y-14246960D02*
X22039111Y-14237436D01*
X22039111Y-14237436D02*
X22029587Y-14218388D01*
X22029587Y-14218388D02*
X22029587Y-14161246D01*
X22029587Y-14161246D02*
X22039111Y-14142198D01*
X22039111Y-14142198D02*
X22048635Y-14132674D01*
X22048635Y-14132674D02*
X22067682Y-14123150D01*
X22067682Y-14123150D02*
X22105777Y-14123150D01*
X22105777Y-14123150D02*
X22124825Y-14132674D01*
X22201016Y-14332674D02*
X22210539Y-14323150D01*
X22210539Y-14323150D02*
X22229587Y-14294579D01*
X22229587Y-14294579D02*
X22239111Y-14275531D01*
X22239111Y-14275531D02*
X22248635Y-14246960D01*
X22248635Y-14246960D02*
X22258158Y-14199341D01*
X22258158Y-14199341D02*
X22258158Y-14161246D01*
X22258158Y-14161246D02*
X22248635Y-14113627D01*
X22248635Y-14113627D02*
X22239111Y-14085055D01*
X22239111Y-14085055D02*
X22229587Y-14066008D01*
X22229587Y-14066008D02*
X22210539Y-14037436D01*
X22210539Y-14037436D02*
X22201016Y-14027912D01*
M02*
