G04 #@! TF.GenerationSoftware,KiCad,Pcbnew,8.0.8-8.0.8-0~ubuntu24.04.1*
G04 #@! TF.CreationDate,2025-04-25T21:20:27+02:00*
G04 #@! TF.ProjectId,LogicAnalyzer,4c6f6769-6341-46e6-916c-797a65722e6b,rev?*
G04 #@! TF.SameCoordinates,Original*
G04 #@! TF.FileFunction,Legend,Bot*
G04 #@! TF.FilePolarity,Positive*
%FSLAX46Y46*%
G04 Gerber Fmt 4.6, Leading zero omitted, Abs format (unit mm)*
G04 Created by KiCad (PCBNEW 8.0.8-8.0.8-0~ubuntu24.04.1) date 2025-04-25 21:20:27*
%MOMM*%
%LPD*%
G01*
G04 APERTURE LIST*
%ADD10C,0.150000*%
%ADD11C,3.200000*%
%ADD12R,1.700000X1.700000*%
%ADD13O,1.700000X1.700000*%
%ADD14O,1.800000X1.800000*%
%ADD15O,1.500000X1.500000*%
G04 APERTURE END LIST*
D10*
X190916180Y-107001220D02*
X191916180Y-107001220D01*
X190916180Y-106572649D02*
X191439990Y-106572649D01*
X191439990Y-106572649D02*
X191535228Y-106620268D01*
X191535228Y-106620268D02*
X191582847Y-106715506D01*
X191582847Y-106715506D02*
X191582847Y-106858363D01*
X191582847Y-106858363D02*
X191535228Y-106953601D01*
X191535228Y-106953601D02*
X191487609Y-107001220D01*
X191582847Y-106239315D02*
X191582847Y-105858363D01*
X191916180Y-106096458D02*
X191059038Y-106096458D01*
X191059038Y-106096458D02*
X190963800Y-106048839D01*
X190963800Y-106048839D02*
X190916180Y-105953601D01*
X190916180Y-105953601D02*
X190916180Y-105858363D01*
X191582847Y-105667886D02*
X191582847Y-105286934D01*
X191916180Y-105525029D02*
X191059038Y-105525029D01*
X191059038Y-105525029D02*
X190963800Y-105477410D01*
X190963800Y-105477410D02*
X190916180Y-105382172D01*
X190916180Y-105382172D02*
X190916180Y-105286934D01*
X191582847Y-104953600D02*
X190582847Y-104953600D01*
X191535228Y-104953600D02*
X191582847Y-104858362D01*
X191582847Y-104858362D02*
X191582847Y-104667886D01*
X191582847Y-104667886D02*
X191535228Y-104572648D01*
X191535228Y-104572648D02*
X191487609Y-104525029D01*
X191487609Y-104525029D02*
X191392371Y-104477410D01*
X191392371Y-104477410D02*
X191106657Y-104477410D01*
X191106657Y-104477410D02*
X191011419Y-104525029D01*
X191011419Y-104525029D02*
X190963800Y-104572648D01*
X190963800Y-104572648D02*
X190916180Y-104667886D01*
X190916180Y-104667886D02*
X190916180Y-104858362D01*
X190916180Y-104858362D02*
X190963800Y-104953600D01*
X190963800Y-104096457D02*
X190916180Y-104001219D01*
X190916180Y-104001219D02*
X190916180Y-103810743D01*
X190916180Y-103810743D02*
X190963800Y-103715505D01*
X190963800Y-103715505D02*
X191059038Y-103667886D01*
X191059038Y-103667886D02*
X191106657Y-103667886D01*
X191106657Y-103667886D02*
X191201895Y-103715505D01*
X191201895Y-103715505D02*
X191249514Y-103810743D01*
X191249514Y-103810743D02*
X191249514Y-103953600D01*
X191249514Y-103953600D02*
X191297133Y-104048838D01*
X191297133Y-104048838D02*
X191392371Y-104096457D01*
X191392371Y-104096457D02*
X191439990Y-104096457D01*
X191439990Y-104096457D02*
X191535228Y-104048838D01*
X191535228Y-104048838D02*
X191582847Y-103953600D01*
X191582847Y-103953600D02*
X191582847Y-103810743D01*
X191582847Y-103810743D02*
X191535228Y-103715505D01*
X191011419Y-103239314D02*
X190963800Y-103191695D01*
X190963800Y-103191695D02*
X190916180Y-103239314D01*
X190916180Y-103239314D02*
X190963800Y-103286933D01*
X190963800Y-103286933D02*
X191011419Y-103239314D01*
X191011419Y-103239314D02*
X190916180Y-103239314D01*
X191535228Y-103239314D02*
X191487609Y-103191695D01*
X191487609Y-103191695D02*
X191439990Y-103239314D01*
X191439990Y-103239314D02*
X191487609Y-103286933D01*
X191487609Y-103286933D02*
X191535228Y-103239314D01*
X191535228Y-103239314D02*
X191439990Y-103239314D01*
X191963800Y-102048839D02*
X190678085Y-102905981D01*
X191963800Y-101001220D02*
X190678085Y-101858362D01*
X191582847Y-100239315D02*
X190773323Y-100239315D01*
X190773323Y-100239315D02*
X190678085Y-100286934D01*
X190678085Y-100286934D02*
X190630466Y-100334553D01*
X190630466Y-100334553D02*
X190582847Y-100429791D01*
X190582847Y-100429791D02*
X190582847Y-100572648D01*
X190582847Y-100572648D02*
X190630466Y-100667886D01*
X190963800Y-100239315D02*
X190916180Y-100334553D01*
X190916180Y-100334553D02*
X190916180Y-100525029D01*
X190916180Y-100525029D02*
X190963800Y-100620267D01*
X190963800Y-100620267D02*
X191011419Y-100667886D01*
X191011419Y-100667886D02*
X191106657Y-100715505D01*
X191106657Y-100715505D02*
X191392371Y-100715505D01*
X191392371Y-100715505D02*
X191487609Y-100667886D01*
X191487609Y-100667886D02*
X191535228Y-100620267D01*
X191535228Y-100620267D02*
X191582847Y-100525029D01*
X191582847Y-100525029D02*
X191582847Y-100334553D01*
X191582847Y-100334553D02*
X191535228Y-100239315D01*
X190916180Y-99763124D02*
X191582847Y-99763124D01*
X191916180Y-99763124D02*
X191868561Y-99810743D01*
X191868561Y-99810743D02*
X191820942Y-99763124D01*
X191820942Y-99763124D02*
X191868561Y-99715505D01*
X191868561Y-99715505D02*
X191916180Y-99763124D01*
X191916180Y-99763124D02*
X191820942Y-99763124D01*
X191582847Y-99429791D02*
X191582847Y-99048839D01*
X191916180Y-99286934D02*
X191059038Y-99286934D01*
X191059038Y-99286934D02*
X190963800Y-99239315D01*
X190963800Y-99239315D02*
X190916180Y-99144077D01*
X190916180Y-99144077D02*
X190916180Y-99048839D01*
X190916180Y-98715505D02*
X191916180Y-98715505D01*
X190916180Y-98286934D02*
X191439990Y-98286934D01*
X191439990Y-98286934D02*
X191535228Y-98334553D01*
X191535228Y-98334553D02*
X191582847Y-98429791D01*
X191582847Y-98429791D02*
X191582847Y-98572648D01*
X191582847Y-98572648D02*
X191535228Y-98667886D01*
X191535228Y-98667886D02*
X191487609Y-98715505D01*
X191582847Y-97382172D02*
X190916180Y-97382172D01*
X191582847Y-97810743D02*
X191059038Y-97810743D01*
X191059038Y-97810743D02*
X190963800Y-97763124D01*
X190963800Y-97763124D02*
X190916180Y-97667886D01*
X190916180Y-97667886D02*
X190916180Y-97525029D01*
X190916180Y-97525029D02*
X190963800Y-97429791D01*
X190963800Y-97429791D02*
X191011419Y-97382172D01*
X190916180Y-96905981D02*
X191916180Y-96905981D01*
X191535228Y-96905981D02*
X191582847Y-96810743D01*
X191582847Y-96810743D02*
X191582847Y-96620267D01*
X191582847Y-96620267D02*
X191535228Y-96525029D01*
X191535228Y-96525029D02*
X191487609Y-96477410D01*
X191487609Y-96477410D02*
X191392371Y-96429791D01*
X191392371Y-96429791D02*
X191106657Y-96429791D01*
X191106657Y-96429791D02*
X191011419Y-96477410D01*
X191011419Y-96477410D02*
X190963800Y-96525029D01*
X190963800Y-96525029D02*
X190916180Y-96620267D01*
X190916180Y-96620267D02*
X190916180Y-96810743D01*
X190916180Y-96810743D02*
X190963800Y-96905981D01*
X191011419Y-96001219D02*
X190963800Y-95953600D01*
X190963800Y-95953600D02*
X190916180Y-96001219D01*
X190916180Y-96001219D02*
X190963800Y-96048838D01*
X190963800Y-96048838D02*
X191011419Y-96001219D01*
X191011419Y-96001219D02*
X190916180Y-96001219D01*
X190963800Y-95096458D02*
X190916180Y-95191696D01*
X190916180Y-95191696D02*
X190916180Y-95382172D01*
X190916180Y-95382172D02*
X190963800Y-95477410D01*
X190963800Y-95477410D02*
X191011419Y-95525029D01*
X191011419Y-95525029D02*
X191106657Y-95572648D01*
X191106657Y-95572648D02*
X191392371Y-95572648D01*
X191392371Y-95572648D02*
X191487609Y-95525029D01*
X191487609Y-95525029D02*
X191535228Y-95477410D01*
X191535228Y-95477410D02*
X191582847Y-95382172D01*
X191582847Y-95382172D02*
X191582847Y-95191696D01*
X191582847Y-95191696D02*
X191535228Y-95096458D01*
X190916180Y-94525029D02*
X190963800Y-94620267D01*
X190963800Y-94620267D02*
X191011419Y-94667886D01*
X191011419Y-94667886D02*
X191106657Y-94715505D01*
X191106657Y-94715505D02*
X191392371Y-94715505D01*
X191392371Y-94715505D02*
X191487609Y-94667886D01*
X191487609Y-94667886D02*
X191535228Y-94620267D01*
X191535228Y-94620267D02*
X191582847Y-94525029D01*
X191582847Y-94525029D02*
X191582847Y-94382172D01*
X191582847Y-94382172D02*
X191535228Y-94286934D01*
X191535228Y-94286934D02*
X191487609Y-94239315D01*
X191487609Y-94239315D02*
X191392371Y-94191696D01*
X191392371Y-94191696D02*
X191106657Y-94191696D01*
X191106657Y-94191696D02*
X191011419Y-94239315D01*
X191011419Y-94239315D02*
X190963800Y-94286934D01*
X190963800Y-94286934D02*
X190916180Y-94382172D01*
X190916180Y-94382172D02*
X190916180Y-94525029D01*
X190916180Y-93763124D02*
X191582847Y-93763124D01*
X191487609Y-93763124D02*
X191535228Y-93715505D01*
X191535228Y-93715505D02*
X191582847Y-93620267D01*
X191582847Y-93620267D02*
X191582847Y-93477410D01*
X191582847Y-93477410D02*
X191535228Y-93382172D01*
X191535228Y-93382172D02*
X191439990Y-93334553D01*
X191439990Y-93334553D02*
X190916180Y-93334553D01*
X191439990Y-93334553D02*
X191535228Y-93286934D01*
X191535228Y-93286934D02*
X191582847Y-93191696D01*
X191582847Y-93191696D02*
X191582847Y-93048839D01*
X191582847Y-93048839D02*
X191535228Y-92953600D01*
X191535228Y-92953600D02*
X191439990Y-92905981D01*
X191439990Y-92905981D02*
X190916180Y-92905981D01*
X191963800Y-91715506D02*
X190678085Y-92572648D01*
X191582847Y-90953601D02*
X190773323Y-90953601D01*
X190773323Y-90953601D02*
X190678085Y-91001220D01*
X190678085Y-91001220D02*
X190630466Y-91048839D01*
X190630466Y-91048839D02*
X190582847Y-91144077D01*
X190582847Y-91144077D02*
X190582847Y-91286934D01*
X190582847Y-91286934D02*
X190630466Y-91382172D01*
X190963800Y-90953601D02*
X190916180Y-91048839D01*
X190916180Y-91048839D02*
X190916180Y-91239315D01*
X190916180Y-91239315D02*
X190963800Y-91334553D01*
X190963800Y-91334553D02*
X191011419Y-91382172D01*
X191011419Y-91382172D02*
X191106657Y-91429791D01*
X191106657Y-91429791D02*
X191392371Y-91429791D01*
X191392371Y-91429791D02*
X191487609Y-91382172D01*
X191487609Y-91382172D02*
X191535228Y-91334553D01*
X191535228Y-91334553D02*
X191582847Y-91239315D01*
X191582847Y-91239315D02*
X191582847Y-91048839D01*
X191582847Y-91048839D02*
X191535228Y-90953601D01*
X191582847Y-90048839D02*
X190916180Y-90048839D01*
X191582847Y-90477410D02*
X191059038Y-90477410D01*
X191059038Y-90477410D02*
X190963800Y-90429791D01*
X190963800Y-90429791D02*
X190916180Y-90334553D01*
X190916180Y-90334553D02*
X190916180Y-90191696D01*
X190916180Y-90191696D02*
X190963800Y-90096458D01*
X190963800Y-90096458D02*
X191011419Y-90048839D01*
X190963800Y-89620267D02*
X190916180Y-89525029D01*
X190916180Y-89525029D02*
X190916180Y-89334553D01*
X190916180Y-89334553D02*
X190963800Y-89239315D01*
X190963800Y-89239315D02*
X191059038Y-89191696D01*
X191059038Y-89191696D02*
X191106657Y-89191696D01*
X191106657Y-89191696D02*
X191201895Y-89239315D01*
X191201895Y-89239315D02*
X191249514Y-89334553D01*
X191249514Y-89334553D02*
X191249514Y-89477410D01*
X191249514Y-89477410D02*
X191297133Y-89572648D01*
X191297133Y-89572648D02*
X191392371Y-89620267D01*
X191392371Y-89620267D02*
X191439990Y-89620267D01*
X191439990Y-89620267D02*
X191535228Y-89572648D01*
X191535228Y-89572648D02*
X191582847Y-89477410D01*
X191582847Y-89477410D02*
X191582847Y-89334553D01*
X191582847Y-89334553D02*
X191535228Y-89239315D01*
X190916180Y-88763124D02*
X191582847Y-88763124D01*
X191487609Y-88763124D02*
X191535228Y-88715505D01*
X191535228Y-88715505D02*
X191582847Y-88620267D01*
X191582847Y-88620267D02*
X191582847Y-88477410D01*
X191582847Y-88477410D02*
X191535228Y-88382172D01*
X191535228Y-88382172D02*
X191439990Y-88334553D01*
X191439990Y-88334553D02*
X190916180Y-88334553D01*
X191439990Y-88334553D02*
X191535228Y-88286934D01*
X191535228Y-88286934D02*
X191582847Y-88191696D01*
X191582847Y-88191696D02*
X191582847Y-88048839D01*
X191582847Y-88048839D02*
X191535228Y-87953600D01*
X191535228Y-87953600D02*
X191439990Y-87905981D01*
X191439990Y-87905981D02*
X190916180Y-87905981D01*
X190916180Y-87001220D02*
X191439990Y-87001220D01*
X191439990Y-87001220D02*
X191535228Y-87048839D01*
X191535228Y-87048839D02*
X191582847Y-87144077D01*
X191582847Y-87144077D02*
X191582847Y-87334553D01*
X191582847Y-87334553D02*
X191535228Y-87429791D01*
X190963800Y-87001220D02*
X190916180Y-87096458D01*
X190916180Y-87096458D02*
X190916180Y-87334553D01*
X190916180Y-87334553D02*
X190963800Y-87429791D01*
X190963800Y-87429791D02*
X191059038Y-87477410D01*
X191059038Y-87477410D02*
X191154276Y-87477410D01*
X191154276Y-87477410D02*
X191249514Y-87429791D01*
X191249514Y-87429791D02*
X191297133Y-87334553D01*
X191297133Y-87334553D02*
X191297133Y-87096458D01*
X191297133Y-87096458D02*
X191344752Y-87001220D01*
X191582847Y-86525029D02*
X190916180Y-86525029D01*
X191487609Y-86525029D02*
X191535228Y-86477410D01*
X191535228Y-86477410D02*
X191582847Y-86382172D01*
X191582847Y-86382172D02*
X191582847Y-86239315D01*
X191582847Y-86239315D02*
X191535228Y-86144077D01*
X191535228Y-86144077D02*
X191439990Y-86096458D01*
X191439990Y-86096458D02*
X190916180Y-86096458D01*
X190916180Y-85620267D02*
X191916180Y-85620267D01*
X191535228Y-85620267D02*
X191582847Y-85525029D01*
X191582847Y-85525029D02*
X191582847Y-85334553D01*
X191582847Y-85334553D02*
X191535228Y-85239315D01*
X191535228Y-85239315D02*
X191487609Y-85191696D01*
X191487609Y-85191696D02*
X191392371Y-85144077D01*
X191392371Y-85144077D02*
X191106657Y-85144077D01*
X191106657Y-85144077D02*
X191011419Y-85191696D01*
X191011419Y-85191696D02*
X190963800Y-85239315D01*
X190963800Y-85239315D02*
X190916180Y-85334553D01*
X190916180Y-85334553D02*
X190916180Y-85525029D01*
X190916180Y-85525029D02*
X190963800Y-85620267D01*
X191963800Y-84001220D02*
X190678085Y-84858362D01*
X190916180Y-83525029D02*
X190963800Y-83620267D01*
X190963800Y-83620267D02*
X191059038Y-83667886D01*
X191059038Y-83667886D02*
X191916180Y-83667886D01*
X190916180Y-83001219D02*
X190963800Y-83096457D01*
X190963800Y-83096457D02*
X191011419Y-83144076D01*
X191011419Y-83144076D02*
X191106657Y-83191695D01*
X191106657Y-83191695D02*
X191392371Y-83191695D01*
X191392371Y-83191695D02*
X191487609Y-83144076D01*
X191487609Y-83144076D02*
X191535228Y-83096457D01*
X191535228Y-83096457D02*
X191582847Y-83001219D01*
X191582847Y-83001219D02*
X191582847Y-82858362D01*
X191582847Y-82858362D02*
X191535228Y-82763124D01*
X191535228Y-82763124D02*
X191487609Y-82715505D01*
X191487609Y-82715505D02*
X191392371Y-82667886D01*
X191392371Y-82667886D02*
X191106657Y-82667886D01*
X191106657Y-82667886D02*
X191011419Y-82715505D01*
X191011419Y-82715505D02*
X190963800Y-82763124D01*
X190963800Y-82763124D02*
X190916180Y-82858362D01*
X190916180Y-82858362D02*
X190916180Y-83001219D01*
X191582847Y-81810743D02*
X190773323Y-81810743D01*
X190773323Y-81810743D02*
X190678085Y-81858362D01*
X190678085Y-81858362D02*
X190630466Y-81905981D01*
X190630466Y-81905981D02*
X190582847Y-82001219D01*
X190582847Y-82001219D02*
X190582847Y-82144076D01*
X190582847Y-82144076D02*
X190630466Y-82239314D01*
X190963800Y-81810743D02*
X190916180Y-81905981D01*
X190916180Y-81905981D02*
X190916180Y-82096457D01*
X190916180Y-82096457D02*
X190963800Y-82191695D01*
X190963800Y-82191695D02*
X191011419Y-82239314D01*
X191011419Y-82239314D02*
X191106657Y-82286933D01*
X191106657Y-82286933D02*
X191392371Y-82286933D01*
X191392371Y-82286933D02*
X191487609Y-82239314D01*
X191487609Y-82239314D02*
X191535228Y-82191695D01*
X191535228Y-82191695D02*
X191582847Y-82096457D01*
X191582847Y-82096457D02*
X191582847Y-81905981D01*
X191582847Y-81905981D02*
X191535228Y-81810743D01*
X190916180Y-81334552D02*
X191582847Y-81334552D01*
X191916180Y-81334552D02*
X191868561Y-81382171D01*
X191868561Y-81382171D02*
X191820942Y-81334552D01*
X191820942Y-81334552D02*
X191868561Y-81286933D01*
X191868561Y-81286933D02*
X191916180Y-81334552D01*
X191916180Y-81334552D02*
X191820942Y-81334552D01*
X190963800Y-80429791D02*
X190916180Y-80525029D01*
X190916180Y-80525029D02*
X190916180Y-80715505D01*
X190916180Y-80715505D02*
X190963800Y-80810743D01*
X190963800Y-80810743D02*
X191011419Y-80858362D01*
X191011419Y-80858362D02*
X191106657Y-80905981D01*
X191106657Y-80905981D02*
X191392371Y-80905981D01*
X191392371Y-80905981D02*
X191487609Y-80858362D01*
X191487609Y-80858362D02*
X191535228Y-80810743D01*
X191535228Y-80810743D02*
X191582847Y-80715505D01*
X191582847Y-80715505D02*
X191582847Y-80525029D01*
X191582847Y-80525029D02*
X191535228Y-80429791D01*
X190916180Y-79572648D02*
X191439990Y-79572648D01*
X191439990Y-79572648D02*
X191535228Y-79620267D01*
X191535228Y-79620267D02*
X191582847Y-79715505D01*
X191582847Y-79715505D02*
X191582847Y-79905981D01*
X191582847Y-79905981D02*
X191535228Y-80001219D01*
X190963800Y-79572648D02*
X190916180Y-79667886D01*
X190916180Y-79667886D02*
X190916180Y-79905981D01*
X190916180Y-79905981D02*
X190963800Y-80001219D01*
X190963800Y-80001219D02*
X191059038Y-80048838D01*
X191059038Y-80048838D02*
X191154276Y-80048838D01*
X191154276Y-80048838D02*
X191249514Y-80001219D01*
X191249514Y-80001219D02*
X191297133Y-79905981D01*
X191297133Y-79905981D02*
X191297133Y-79667886D01*
X191297133Y-79667886D02*
X191344752Y-79572648D01*
X191582847Y-79096457D02*
X190916180Y-79096457D01*
X191487609Y-79096457D02*
X191535228Y-79048838D01*
X191535228Y-79048838D02*
X191582847Y-78953600D01*
X191582847Y-78953600D02*
X191582847Y-78810743D01*
X191582847Y-78810743D02*
X191535228Y-78715505D01*
X191535228Y-78715505D02*
X191439990Y-78667886D01*
X191439990Y-78667886D02*
X190916180Y-78667886D01*
X190916180Y-77763124D02*
X191439990Y-77763124D01*
X191439990Y-77763124D02*
X191535228Y-77810743D01*
X191535228Y-77810743D02*
X191582847Y-77905981D01*
X191582847Y-77905981D02*
X191582847Y-78096457D01*
X191582847Y-78096457D02*
X191535228Y-78191695D01*
X190963800Y-77763124D02*
X190916180Y-77858362D01*
X190916180Y-77858362D02*
X190916180Y-78096457D01*
X190916180Y-78096457D02*
X190963800Y-78191695D01*
X190963800Y-78191695D02*
X191059038Y-78239314D01*
X191059038Y-78239314D02*
X191154276Y-78239314D01*
X191154276Y-78239314D02*
X191249514Y-78191695D01*
X191249514Y-78191695D02*
X191297133Y-78096457D01*
X191297133Y-78096457D02*
X191297133Y-77858362D01*
X191297133Y-77858362D02*
X191344752Y-77763124D01*
X190916180Y-77144076D02*
X190963800Y-77239314D01*
X190963800Y-77239314D02*
X191059038Y-77286933D01*
X191059038Y-77286933D02*
X191916180Y-77286933D01*
X191582847Y-76858361D02*
X190916180Y-76620266D01*
X191582847Y-76382171D02*
X190916180Y-76620266D01*
X190916180Y-76620266D02*
X190678085Y-76715504D01*
X190678085Y-76715504D02*
X190630466Y-76763123D01*
X190630466Y-76763123D02*
X190582847Y-76858361D01*
X191582847Y-76096456D02*
X191582847Y-75572647D01*
X191582847Y-75572647D02*
X190916180Y-76096456D01*
X190916180Y-76096456D02*
X190916180Y-75572647D01*
X190963800Y-74810742D02*
X190916180Y-74905980D01*
X190916180Y-74905980D02*
X190916180Y-75096456D01*
X190916180Y-75096456D02*
X190963800Y-75191694D01*
X190963800Y-75191694D02*
X191059038Y-75239313D01*
X191059038Y-75239313D02*
X191439990Y-75239313D01*
X191439990Y-75239313D02*
X191535228Y-75191694D01*
X191535228Y-75191694D02*
X191582847Y-75096456D01*
X191582847Y-75096456D02*
X191582847Y-74905980D01*
X191582847Y-74905980D02*
X191535228Y-74810742D01*
X191535228Y-74810742D02*
X191439990Y-74763123D01*
X191439990Y-74763123D02*
X191344752Y-74763123D01*
X191344752Y-74763123D02*
X191249514Y-75239313D01*
X190916180Y-74334551D02*
X191582847Y-74334551D01*
X191392371Y-74334551D02*
X191487609Y-74286932D01*
X191487609Y-74286932D02*
X191535228Y-74239313D01*
X191535228Y-74239313D02*
X191582847Y-74144075D01*
X191582847Y-74144075D02*
X191582847Y-74048837D01*
G36*
X196260000Y-108930803D02*
G01*
X200261674Y-108930803D01*
X200261674Y-108426686D01*
X196697683Y-108426686D01*
X196697683Y-106679861D01*
X196260000Y-106679861D01*
X196260000Y-108930803D01*
G37*
G36*
X197797602Y-103454074D02*
G01*
X198006946Y-103464954D01*
X198228108Y-103498110D01*
X198429975Y-103553370D01*
X198612547Y-103630734D01*
X198716641Y-103688980D01*
X198883935Y-103810412D01*
X199025417Y-103953174D01*
X199141088Y-104117265D01*
X199203175Y-104237204D01*
X199272221Y-104429992D01*
X199312363Y-104638235D01*
X199323782Y-104836316D01*
X199322198Y-104915863D01*
X199298442Y-105141864D01*
X199246177Y-105348906D01*
X199165406Y-105536988D01*
X199056126Y-105706111D01*
X198918339Y-105856274D01*
X198783571Y-105964352D01*
X198599748Y-106069865D01*
X198391813Y-106149000D01*
X198200116Y-106194795D01*
X197991675Y-106222272D01*
X197766489Y-106231431D01*
X197704543Y-106230733D01*
X197496868Y-106217289D01*
X197303405Y-106186735D01*
X197099706Y-106130864D01*
X196914570Y-106052646D01*
X196808787Y-105993274D01*
X196639175Y-105870296D01*
X196496302Y-105726606D01*
X196380167Y-105562206D01*
X196327536Y-105462997D01*
X196255279Y-105273721D01*
X196211925Y-105070689D01*
X196197473Y-104853902D01*
X196197709Y-104842178D01*
X196605847Y-104842178D01*
X196616873Y-105005611D01*
X196665874Y-105196273D01*
X196767858Y-105373545D01*
X196919455Y-105511404D01*
X196959526Y-105536839D01*
X197137213Y-105622171D01*
X197342743Y-105681248D01*
X197545423Y-105711401D01*
X197769420Y-105721452D01*
X197802717Y-105721250D01*
X198023128Y-105708508D01*
X198221379Y-105675943D01*
X198420819Y-105614455D01*
X198610593Y-105514334D01*
X198714182Y-105427804D01*
X198829381Y-105264777D01*
X198896357Y-105061875D01*
X198915408Y-104848040D01*
X198904692Y-104684504D01*
X198857064Y-104493384D01*
X198757940Y-104315159D01*
X198610593Y-104175884D01*
X198591316Y-104162780D01*
X198397472Y-104063570D01*
X198194414Y-104003670D01*
X197992997Y-103973095D01*
X197769420Y-103962904D01*
X197736115Y-103963112D01*
X197515163Y-103976215D01*
X197315529Y-104009701D01*
X197113479Y-104072930D01*
X196919455Y-104175884D01*
X196812878Y-104264200D01*
X196694356Y-104428360D01*
X196625448Y-104630542D01*
X196605847Y-104842178D01*
X196197709Y-104842178D01*
X196199076Y-104774347D01*
X196223119Y-104548232D01*
X196276013Y-104340938D01*
X196357758Y-104152467D01*
X196468354Y-103982817D01*
X196607801Y-103831990D01*
X196744282Y-103723068D01*
X196929845Y-103616731D01*
X197139176Y-103536978D01*
X197331775Y-103490824D01*
X197540880Y-103463132D01*
X197766489Y-103453902D01*
X197797602Y-103454074D01*
G37*
G36*
X199261256Y-100574767D02*
G01*
X198867536Y-100642178D01*
X198867536Y-100670510D01*
X198975430Y-100758926D01*
X199109566Y-100908036D01*
X199210453Y-101076930D01*
X199265236Y-101215184D01*
X199310390Y-101414189D01*
X199323782Y-101611334D01*
X199313406Y-101785404D01*
X199264019Y-102008747D01*
X199173959Y-102208342D01*
X199043227Y-102384187D01*
X198898799Y-102516009D01*
X198788172Y-102592717D01*
X198604887Y-102688601D01*
X198400788Y-102761473D01*
X198175875Y-102811333D01*
X197972547Y-102835304D01*
X197754766Y-102843295D01*
X197575705Y-102838181D01*
X197366219Y-102817406D01*
X197172666Y-102780650D01*
X196961434Y-102715449D01*
X196773146Y-102627235D01*
X196607801Y-102516009D01*
X196468354Y-102383981D01*
X196342130Y-102207374D01*
X196255176Y-102006458D01*
X196211899Y-101814895D01*
X196197473Y-101605472D01*
X196202758Y-101532199D01*
X196605847Y-101532199D01*
X196608441Y-101604181D01*
X196647338Y-101800240D01*
X196745302Y-101983098D01*
X196900893Y-102129129D01*
X196938918Y-102153854D01*
X197135347Y-102245380D01*
X197344724Y-102299617D01*
X197554777Y-102326137D01*
X197754766Y-102333316D01*
X197789380Y-102333113D01*
X198017632Y-102320371D01*
X198221293Y-102287806D01*
X198423939Y-102226318D01*
X198613524Y-102126198D01*
X198667474Y-102085886D01*
X198808982Y-101930181D01*
X198891528Y-101741656D01*
X198915408Y-101543923D01*
X198908872Y-101408129D01*
X198871228Y-101215269D01*
X198788882Y-101034211D01*
X198647718Y-100877628D01*
X198555478Y-100816272D01*
X198372173Y-100739732D01*
X198175718Y-100694599D01*
X197980538Y-100672136D01*
X197760628Y-100664648D01*
X197642414Y-100664648D01*
X197417882Y-100674559D01*
X197222148Y-100704292D01*
X197033715Y-100762544D01*
X196851067Y-100871766D01*
X196780423Y-100942501D01*
X196675055Y-101120035D01*
X196621174Y-101320929D01*
X196605847Y-101532199D01*
X196202758Y-101532199D01*
X196213616Y-101381669D01*
X196262045Y-101180673D01*
X196359351Y-100975001D01*
X196500602Y-100800371D01*
X196656650Y-100675395D01*
X196656650Y-100653902D01*
X196475910Y-100664648D01*
X196278562Y-100670510D01*
X196158394Y-100670510D01*
X196084601Y-100672459D01*
X195881148Y-100701697D01*
X195686632Y-100775332D01*
X195525317Y-100892283D01*
X195483763Y-100935133D01*
X195374770Y-101098928D01*
X195311190Y-101294972D01*
X195292798Y-101498982D01*
X195293733Y-101581395D01*
X195304251Y-101779780D01*
X195332301Y-102003423D01*
X195377181Y-102211334D01*
X195438890Y-102403515D01*
X195532156Y-102607845D01*
X195072002Y-102607845D01*
X195049288Y-102554394D01*
X194981327Y-102352529D01*
X194937363Y-102161195D01*
X194906589Y-101952963D01*
X194889003Y-101727832D01*
X194884424Y-101527314D01*
X194884743Y-101484619D01*
X194895930Y-101281736D01*
X194930448Y-101061574D01*
X194987979Y-100866828D01*
X195084183Y-100671749D01*
X195211709Y-100511264D01*
X195370277Y-100383357D01*
X195559606Y-100286866D01*
X195746372Y-100229163D01*
X195955738Y-100194542D01*
X196187704Y-100183002D01*
X199261256Y-100183002D01*
X199261256Y-100574767D01*
G37*
G36*
X200386727Y-98980350D02*
G01*
X200320609Y-98792874D01*
X200311500Y-98782025D01*
X200131855Y-98698131D01*
X200074096Y-98695074D01*
X199883586Y-98743984D01*
X199839623Y-98782025D01*
X199761770Y-98966409D01*
X199761465Y-98980350D01*
X199825655Y-99171371D01*
X199839623Y-99187468D01*
X200018225Y-99268533D01*
X200074096Y-99271487D01*
X200268452Y-99224226D01*
X200311500Y-99187468D01*
X200386065Y-99003087D01*
X200386727Y-98980350D01*
G37*
G36*
X199261256Y-98739038D02*
G01*
X196260000Y-98739038D01*
X196260000Y-99232408D01*
X199261256Y-99232408D01*
X199261256Y-98739038D01*
G37*
G36*
X196197473Y-96585793D02*
G01*
X196210379Y-96802658D01*
X196249096Y-97005921D01*
X196313625Y-97195583D01*
X196360628Y-97295074D01*
X196466621Y-97459243D01*
X196601054Y-97602236D01*
X196763926Y-97724055D01*
X196866699Y-97782583D01*
X197050125Y-97859519D01*
X197257487Y-97914474D01*
X197458564Y-97944527D01*
X197677967Y-97957751D01*
X197744019Y-97958438D01*
X197945496Y-97951946D01*
X198161974Y-97927964D01*
X198358442Y-97886310D01*
X198558477Y-97817067D01*
X198648695Y-97773790D01*
X198830199Y-97659098D01*
X198982338Y-97523850D01*
X199105110Y-97368045D01*
X199160628Y-97272604D01*
X199239496Y-97087673D01*
X199292553Y-96888986D01*
X199319799Y-96676543D01*
X199323782Y-96552576D01*
X199314993Y-96354865D01*
X199286070Y-96150088D01*
X199277864Y-96110008D01*
X199228039Y-95916812D01*
X199168443Y-95763183D01*
X198761046Y-95914614D01*
X198827984Y-96099857D01*
X198865582Y-96228221D01*
X198905871Y-96422246D01*
X198915408Y-96563323D01*
X198897227Y-96770776D01*
X198823367Y-96991196D01*
X198692693Y-97168396D01*
X198505203Y-97302377D01*
X198314304Y-97378443D01*
X198087044Y-97426849D01*
X197823422Y-97447594D01*
X197751835Y-97448459D01*
X197552544Y-97440902D01*
X197343219Y-97412986D01*
X197134560Y-97355894D01*
X196938792Y-97259552D01*
X196900893Y-97233525D01*
X196758268Y-97095460D01*
X196662321Y-96924165D01*
X196613051Y-96719639D01*
X196605847Y-96591655D01*
X196615758Y-96387452D01*
X196648373Y-96193566D01*
X196657627Y-96157879D01*
X196718984Y-95967125D01*
X196783656Y-95813009D01*
X196350858Y-95813009D01*
X196275085Y-96003854D01*
X196237529Y-96147133D01*
X196207487Y-96347656D01*
X196197630Y-96553969D01*
X196197473Y-96585793D01*
G37*
G36*
X200261674Y-93564997D02*
G01*
X200261674Y-94019289D01*
X196260000Y-95581466D01*
X196260000Y-95071487D01*
X197510523Y-94595702D01*
X197510523Y-94427663D01*
X197948206Y-94427663D01*
X199142065Y-93974348D01*
X199207457Y-93951870D01*
X199399009Y-93890329D01*
X199543265Y-93848121D01*
X199733133Y-93800448D01*
X199542623Y-93741829D01*
X199488714Y-93725874D01*
X199302288Y-93666602D01*
X199142065Y-93609938D01*
X197948206Y-93162485D01*
X197948206Y-94427663D01*
X197510523Y-94427663D01*
X197510523Y-93011055D01*
X196260000Y-92529408D01*
X196260000Y-92008682D01*
X200261674Y-93564997D01*
G37*
G36*
X199323782Y-90085025D02*
G01*
X199311300Y-89862517D01*
X199273853Y-89665160D01*
X199200489Y-89470407D01*
X199078979Y-89290577D01*
X199062930Y-89273162D01*
X198890699Y-89140455D01*
X198694786Y-89058954D01*
X198490303Y-89015791D01*
X198290474Y-88999706D01*
X198218827Y-88998633D01*
X196260000Y-88998633D01*
X196260000Y-89486142D01*
X198189518Y-89486142D01*
X198398637Y-89502528D01*
X198602793Y-89565451D01*
X198776468Y-89698507D01*
X198880673Y-89895797D01*
X198914699Y-90116028D01*
X198915408Y-90157321D01*
X198901944Y-90360962D01*
X198853584Y-90557517D01*
X198757138Y-90732513D01*
X198634040Y-90847063D01*
X198456219Y-90938683D01*
X198265328Y-90994950D01*
X198043540Y-91027526D01*
X197824131Y-91036595D01*
X196260000Y-91036595D01*
X196260000Y-91529966D01*
X199261256Y-91529966D01*
X199261256Y-91132339D01*
X198857766Y-91059066D01*
X198857766Y-91031711D01*
X199017455Y-90906735D01*
X199143347Y-90750160D01*
X199208499Y-90628221D01*
X199278750Y-90430934D01*
X199316577Y-90225953D01*
X199323782Y-90085025D01*
G37*
G36*
X198499745Y-85868863D02*
G01*
X198719136Y-85909927D01*
X198923035Y-85995390D01*
X199081493Y-86122429D01*
X199110833Y-86156398D01*
X199219437Y-86336933D01*
X199283795Y-86535426D01*
X199315264Y-86738459D01*
X199323782Y-86934293D01*
X199318897Y-87078518D01*
X199293251Y-87289819D01*
X199245624Y-87495074D01*
X199220413Y-87577244D01*
X199147496Y-87774141D01*
X199057069Y-87959136D01*
X198667257Y-87807705D01*
X198679263Y-87784517D01*
X198763956Y-87603797D01*
X198839204Y-87411055D01*
X198857064Y-87357459D01*
X198900822Y-87164343D01*
X198915408Y-86962625D01*
X198911591Y-86873104D01*
X198865949Y-86671159D01*
X198759092Y-86503448D01*
X198607967Y-86404621D01*
X198408608Y-86354099D01*
X198202219Y-86341271D01*
X198010732Y-86341271D01*
X198010732Y-86850273D01*
X198010496Y-86895758D01*
X198002214Y-87112017D01*
X197976660Y-87346971D01*
X197934071Y-87555135D01*
X197862851Y-87764132D01*
X197768443Y-87936665D01*
X197653099Y-88074089D01*
X197476085Y-88201180D01*
X197291620Y-88267309D01*
X197081632Y-88289352D01*
X196944971Y-88282793D01*
X196750920Y-88245011D01*
X196568814Y-88162365D01*
X196411430Y-88020685D01*
X196349792Y-87933315D01*
X196257858Y-87738112D01*
X196210846Y-87539099D01*
X196197473Y-87343644D01*
X196202780Y-87231292D01*
X196605847Y-87231292D01*
X196605963Y-87246229D01*
X196635401Y-87450133D01*
X196724061Y-87625988D01*
X196731581Y-87635485D01*
X196899710Y-87750804D01*
X197095310Y-87780350D01*
X197198453Y-87772759D01*
X197390587Y-87704233D01*
X197539832Y-87564439D01*
X197623294Y-87395912D01*
X197671981Y-87186809D01*
X197692537Y-86986561D01*
X197698101Y-86788724D01*
X197698101Y-86346156D01*
X197437250Y-86346156D01*
X197359681Y-86348371D01*
X197150158Y-86381602D01*
X196958141Y-86465293D01*
X196809057Y-86598214D01*
X196772742Y-86646609D01*
X196677487Y-86824296D01*
X196621922Y-87027170D01*
X196605847Y-87231292D01*
X196202780Y-87231292D01*
X196206979Y-87142381D01*
X196244414Y-86931865D01*
X196317641Y-86746714D01*
X196395591Y-86626887D01*
X196531741Y-86472167D01*
X196688890Y-86335409D01*
X196688890Y-86312939D01*
X196260000Y-86217196D01*
X196260000Y-85859624D01*
X198311639Y-85859624D01*
X198499745Y-85868863D01*
G37*
G36*
X196260000Y-84436177D02*
G01*
X196260000Y-84929547D01*
X200511779Y-84929547D01*
X200511779Y-84436177D01*
X196260000Y-84436177D01*
G37*
G36*
X199261256Y-83957461D02*
G01*
X199261256Y-83430873D01*
X197536901Y-82782164D01*
X197342503Y-82711826D01*
X197155959Y-82647846D01*
X197104103Y-82630734D01*
X196915139Y-82575049D01*
X196723042Y-82532215D01*
X196711360Y-82530106D01*
X196711360Y-82507635D01*
X196910236Y-82453597D01*
X197081632Y-82401145D01*
X197268024Y-82340805D01*
X197455706Y-82278852D01*
X197542763Y-82249715D01*
X199261256Y-81639108D01*
X199261256Y-81107635D01*
X195820362Y-82401145D01*
X195617274Y-82485104D01*
X195435924Y-82580664D01*
X195257888Y-82702036D01*
X195138436Y-82806588D01*
X195015647Y-82961638D01*
X194933043Y-83146517D01*
X194890625Y-83361227D01*
X194884424Y-83493399D01*
X194894098Y-83688969D01*
X194899078Y-83727872D01*
X194929364Y-83901773D01*
X195325038Y-83901773D01*
X195303545Y-83753274D01*
X195292798Y-83571557D01*
X195320848Y-83364764D01*
X195413154Y-83185116D01*
X195439344Y-83154390D01*
X195596637Y-83019852D01*
X195781017Y-82922559D01*
X195825247Y-82905263D01*
X196223852Y-82747970D01*
X199261256Y-83957461D01*
G37*
G36*
X196260000Y-78697447D02*
G01*
X196260000Y-80891725D01*
X196604870Y-80891725D01*
X198852882Y-79279722D01*
X198852882Y-80796958D01*
X199261256Y-80796958D01*
X199261256Y-78736526D01*
X198865582Y-78736526D01*
X196668374Y-80327035D01*
X196668374Y-78697447D01*
X196260000Y-78697447D01*
G37*
G36*
X198063825Y-75609607D02*
G01*
X198279161Y-75631795D01*
X198478114Y-75677476D01*
X198679958Y-75755786D01*
X198717762Y-75774852D01*
X198890525Y-75885296D01*
X199036193Y-76020927D01*
X199154766Y-76181745D01*
X199194379Y-76252805D01*
X199270304Y-76445280D01*
X199310412Y-76636616D01*
X199323782Y-76845109D01*
X199319107Y-76966982D01*
X199287130Y-77174333D01*
X199224860Y-77366228D01*
X199132295Y-77542667D01*
X199068754Y-77633103D01*
X198934184Y-77779300D01*
X198773648Y-77904167D01*
X198587145Y-78007705D01*
X198542270Y-78027699D01*
X198351852Y-78094774D01*
X198143971Y-78141210D01*
X197947749Y-78164912D01*
X197738157Y-78172813D01*
X197707045Y-78172636D01*
X197497700Y-78161456D01*
X197276538Y-78127384D01*
X197074672Y-78070598D01*
X196892100Y-77991096D01*
X196788197Y-77930475D01*
X196622208Y-77803564D01*
X196483267Y-77653778D01*
X196371374Y-77481117D01*
X196303614Y-77333208D01*
X196240949Y-77129163D01*
X196208342Y-76934685D01*
X196197473Y-76727872D01*
X196199671Y-76597254D01*
X196213661Y-76392044D01*
X196243391Y-76196400D01*
X196258981Y-76126061D01*
X196315828Y-75927843D01*
X196386029Y-75742108D01*
X196813942Y-75742108D01*
X196783359Y-75815353D01*
X196714783Y-76002662D01*
X196658604Y-76199331D01*
X196638047Y-76299014D01*
X196613266Y-76500513D01*
X196605847Y-76705402D01*
X196615361Y-76866557D01*
X196657646Y-77059631D01*
X196745651Y-77247060D01*
X196876468Y-77402960D01*
X197048245Y-77524238D01*
X197233762Y-77600380D01*
X197450177Y-77646726D01*
X197664884Y-77662834D01*
X197664884Y-77652087D01*
X198073258Y-77652087D01*
X198122160Y-77646558D01*
X198325407Y-77605711D01*
X198518969Y-77529690D01*
X198692658Y-77408822D01*
X198819478Y-77250339D01*
X198893655Y-77056994D01*
X198915408Y-76850971D01*
X198892510Y-76636247D01*
X198814429Y-76445672D01*
X198680935Y-76302890D01*
X198651198Y-76281809D01*
X198468001Y-76189328D01*
X198272606Y-76139717D01*
X198073258Y-76123127D01*
X198073258Y-77652087D01*
X197664884Y-77652087D01*
X197664884Y-75607286D01*
X197962861Y-75607286D01*
X198063825Y-75609607D01*
G37*
G36*
X199323782Y-73447203D02*
G01*
X199314012Y-73265486D01*
X199285680Y-73094516D01*
X198835296Y-73156065D01*
X198871444Y-73315311D01*
X198886099Y-73480420D01*
X198861789Y-73676073D01*
X198788859Y-73861255D01*
X198759092Y-73912241D01*
X198628514Y-74072819D01*
X198472435Y-74194132D01*
X198403475Y-74233665D01*
X198222033Y-74306892D01*
X198019159Y-74346322D01*
X197872002Y-74353832D01*
X196260000Y-74353832D01*
X196260000Y-74847203D01*
X199261256Y-74847203D01*
X199261256Y-74443713D01*
X198718060Y-74388026D01*
X198718060Y-74365556D01*
X198879910Y-74255549D01*
X199038042Y-74112896D01*
X199144019Y-73990399D01*
X199246364Y-73822629D01*
X199306227Y-73635002D01*
X199323782Y-73447203D01*
G37*
X193439990Y-100167887D02*
X193392371Y-100025030D01*
X193392371Y-100025030D02*
X193344752Y-99977411D01*
X193344752Y-99977411D02*
X193249514Y-99929792D01*
X193249514Y-99929792D02*
X193106657Y-99929792D01*
X193106657Y-99929792D02*
X193011419Y-99977411D01*
X193011419Y-99977411D02*
X192963800Y-100025030D01*
X192963800Y-100025030D02*
X192916180Y-100120268D01*
X192916180Y-100120268D02*
X192916180Y-100501220D01*
X192916180Y-100501220D02*
X193916180Y-100501220D01*
X193916180Y-100501220D02*
X193916180Y-100167887D01*
X193916180Y-100167887D02*
X193868561Y-100072649D01*
X193868561Y-100072649D02*
X193820942Y-100025030D01*
X193820942Y-100025030D02*
X193725704Y-99977411D01*
X193725704Y-99977411D02*
X193630466Y-99977411D01*
X193630466Y-99977411D02*
X193535228Y-100025030D01*
X193535228Y-100025030D02*
X193487609Y-100072649D01*
X193487609Y-100072649D02*
X193439990Y-100167887D01*
X193439990Y-100167887D02*
X193439990Y-100501220D01*
X193582847Y-99596458D02*
X192916180Y-99358363D01*
X193582847Y-99120268D02*
X192916180Y-99358363D01*
X192916180Y-99358363D02*
X192678085Y-99453601D01*
X192678085Y-99453601D02*
X192630466Y-99501220D01*
X192630466Y-99501220D02*
X192582847Y-99596458D01*
X193439990Y-97977410D02*
X193439990Y-97644077D01*
X192916180Y-97501220D02*
X192916180Y-97977410D01*
X192916180Y-97977410D02*
X193916180Y-97977410D01*
X193916180Y-97977410D02*
X193916180Y-97501220D01*
X192916180Y-96929791D02*
X192963800Y-97025029D01*
X192963800Y-97025029D02*
X193059038Y-97072648D01*
X193059038Y-97072648D02*
X193916180Y-97072648D01*
X192916180Y-95786933D02*
X193916180Y-95786933D01*
X193916180Y-95786933D02*
X193916180Y-95548838D01*
X193916180Y-95548838D02*
X193868561Y-95405981D01*
X193868561Y-95405981D02*
X193773323Y-95310743D01*
X193773323Y-95310743D02*
X193678085Y-95263124D01*
X193678085Y-95263124D02*
X193487609Y-95215505D01*
X193487609Y-95215505D02*
X193344752Y-95215505D01*
X193344752Y-95215505D02*
X193154276Y-95263124D01*
X193154276Y-95263124D02*
X193059038Y-95310743D01*
X193059038Y-95310743D02*
X192963800Y-95405981D01*
X192963800Y-95405981D02*
X192916180Y-95548838D01*
X192916180Y-95548838D02*
X192916180Y-95786933D01*
X192916180Y-94786933D02*
X193582847Y-94786933D01*
X193392371Y-94786933D02*
X193487609Y-94739314D01*
X193487609Y-94739314D02*
X193535228Y-94691695D01*
X193535228Y-94691695D02*
X193582847Y-94596457D01*
X193582847Y-94596457D02*
X193582847Y-94501219D01*
X193011419Y-94167885D02*
X192963800Y-94120266D01*
X192963800Y-94120266D02*
X192916180Y-94167885D01*
X192916180Y-94167885D02*
X192963800Y-94215504D01*
X192963800Y-94215504D02*
X193011419Y-94167885D01*
X193011419Y-94167885D02*
X192916180Y-94167885D01*
X193868561Y-92405981D02*
X193916180Y-92501219D01*
X193916180Y-92501219D02*
X193916180Y-92644076D01*
X193916180Y-92644076D02*
X193868561Y-92786933D01*
X193868561Y-92786933D02*
X193773323Y-92882171D01*
X193773323Y-92882171D02*
X193678085Y-92929790D01*
X193678085Y-92929790D02*
X193487609Y-92977409D01*
X193487609Y-92977409D02*
X193344752Y-92977409D01*
X193344752Y-92977409D02*
X193154276Y-92929790D01*
X193154276Y-92929790D02*
X193059038Y-92882171D01*
X193059038Y-92882171D02*
X192963800Y-92786933D01*
X192963800Y-92786933D02*
X192916180Y-92644076D01*
X192916180Y-92644076D02*
X192916180Y-92548838D01*
X192916180Y-92548838D02*
X192963800Y-92405981D01*
X192963800Y-92405981D02*
X193011419Y-92358362D01*
X193011419Y-92358362D02*
X193344752Y-92358362D01*
X193344752Y-92358362D02*
X193344752Y-92548838D01*
X193582847Y-91501219D02*
X192916180Y-91501219D01*
X193582847Y-91929790D02*
X193059038Y-91929790D01*
X193059038Y-91929790D02*
X192963800Y-91882171D01*
X192963800Y-91882171D02*
X192916180Y-91786933D01*
X192916180Y-91786933D02*
X192916180Y-91644076D01*
X192916180Y-91644076D02*
X192963800Y-91548838D01*
X192963800Y-91548838D02*
X193011419Y-91501219D01*
X192963800Y-91072647D02*
X192916180Y-90977409D01*
X192916180Y-90977409D02*
X192916180Y-90786933D01*
X192916180Y-90786933D02*
X192963800Y-90691695D01*
X192963800Y-90691695D02*
X193059038Y-90644076D01*
X193059038Y-90644076D02*
X193106657Y-90644076D01*
X193106657Y-90644076D02*
X193201895Y-90691695D01*
X193201895Y-90691695D02*
X193249514Y-90786933D01*
X193249514Y-90786933D02*
X193249514Y-90929790D01*
X193249514Y-90929790D02*
X193297133Y-91025028D01*
X193297133Y-91025028D02*
X193392371Y-91072647D01*
X193392371Y-91072647D02*
X193439990Y-91072647D01*
X193439990Y-91072647D02*
X193535228Y-91025028D01*
X193535228Y-91025028D02*
X193582847Y-90929790D01*
X193582847Y-90929790D02*
X193582847Y-90786933D01*
X193582847Y-90786933D02*
X193535228Y-90691695D01*
X192916180Y-90215504D02*
X193582847Y-90215504D01*
X193487609Y-90215504D02*
X193535228Y-90167885D01*
X193535228Y-90167885D02*
X193582847Y-90072647D01*
X193582847Y-90072647D02*
X193582847Y-89929790D01*
X193582847Y-89929790D02*
X193535228Y-89834552D01*
X193535228Y-89834552D02*
X193439990Y-89786933D01*
X193439990Y-89786933D02*
X192916180Y-89786933D01*
X193439990Y-89786933D02*
X193535228Y-89739314D01*
X193535228Y-89739314D02*
X193582847Y-89644076D01*
X193582847Y-89644076D02*
X193582847Y-89501219D01*
X193582847Y-89501219D02*
X193535228Y-89405980D01*
X193535228Y-89405980D02*
X193439990Y-89358361D01*
X193439990Y-89358361D02*
X192916180Y-89358361D01*
X192916180Y-88453600D02*
X193439990Y-88453600D01*
X193439990Y-88453600D02*
X193535228Y-88501219D01*
X193535228Y-88501219D02*
X193582847Y-88596457D01*
X193582847Y-88596457D02*
X193582847Y-88786933D01*
X193582847Y-88786933D02*
X193535228Y-88882171D01*
X192963800Y-88453600D02*
X192916180Y-88548838D01*
X192916180Y-88548838D02*
X192916180Y-88786933D01*
X192916180Y-88786933D02*
X192963800Y-88882171D01*
X192963800Y-88882171D02*
X193059038Y-88929790D01*
X193059038Y-88929790D02*
X193154276Y-88929790D01*
X193154276Y-88929790D02*
X193249514Y-88882171D01*
X193249514Y-88882171D02*
X193297133Y-88786933D01*
X193297133Y-88786933D02*
X193297133Y-88548838D01*
X193297133Y-88548838D02*
X193344752Y-88453600D01*
X193582847Y-87977409D02*
X192916180Y-87977409D01*
X193487609Y-87977409D02*
X193535228Y-87929790D01*
X193535228Y-87929790D02*
X193582847Y-87834552D01*
X193582847Y-87834552D02*
X193582847Y-87691695D01*
X193582847Y-87691695D02*
X193535228Y-87596457D01*
X193535228Y-87596457D02*
X193439990Y-87548838D01*
X193439990Y-87548838D02*
X192916180Y-87548838D01*
X193297133Y-86310742D02*
X193297133Y-85548838D01*
X193820942Y-84358361D02*
X193868561Y-84310742D01*
X193868561Y-84310742D02*
X193916180Y-84215504D01*
X193916180Y-84215504D02*
X193916180Y-83977409D01*
X193916180Y-83977409D02*
X193868561Y-83882171D01*
X193868561Y-83882171D02*
X193820942Y-83834552D01*
X193820942Y-83834552D02*
X193725704Y-83786933D01*
X193725704Y-83786933D02*
X193630466Y-83786933D01*
X193630466Y-83786933D02*
X193487609Y-83834552D01*
X193487609Y-83834552D02*
X192916180Y-84405980D01*
X192916180Y-84405980D02*
X192916180Y-83786933D01*
X193916180Y-83167885D02*
X193916180Y-83072647D01*
X193916180Y-83072647D02*
X193868561Y-82977409D01*
X193868561Y-82977409D02*
X193820942Y-82929790D01*
X193820942Y-82929790D02*
X193725704Y-82882171D01*
X193725704Y-82882171D02*
X193535228Y-82834552D01*
X193535228Y-82834552D02*
X193297133Y-82834552D01*
X193297133Y-82834552D02*
X193106657Y-82882171D01*
X193106657Y-82882171D02*
X193011419Y-82929790D01*
X193011419Y-82929790D02*
X192963800Y-82977409D01*
X192963800Y-82977409D02*
X192916180Y-83072647D01*
X192916180Y-83072647D02*
X192916180Y-83167885D01*
X192916180Y-83167885D02*
X192963800Y-83263123D01*
X192963800Y-83263123D02*
X193011419Y-83310742D01*
X193011419Y-83310742D02*
X193106657Y-83358361D01*
X193106657Y-83358361D02*
X193297133Y-83405980D01*
X193297133Y-83405980D02*
X193535228Y-83405980D01*
X193535228Y-83405980D02*
X193725704Y-83358361D01*
X193725704Y-83358361D02*
X193820942Y-83310742D01*
X193820942Y-83310742D02*
X193868561Y-83263123D01*
X193868561Y-83263123D02*
X193916180Y-83167885D01*
X193820942Y-82453599D02*
X193868561Y-82405980D01*
X193868561Y-82405980D02*
X193916180Y-82310742D01*
X193916180Y-82310742D02*
X193916180Y-82072647D01*
X193916180Y-82072647D02*
X193868561Y-81977409D01*
X193868561Y-81977409D02*
X193820942Y-81929790D01*
X193820942Y-81929790D02*
X193725704Y-81882171D01*
X193725704Y-81882171D02*
X193630466Y-81882171D01*
X193630466Y-81882171D02*
X193487609Y-81929790D01*
X193487609Y-81929790D02*
X192916180Y-82501218D01*
X192916180Y-82501218D02*
X192916180Y-81882171D01*
X193582847Y-81025028D02*
X192916180Y-81025028D01*
X193963800Y-81263123D02*
X193249514Y-81501218D01*
X193249514Y-81501218D02*
X193249514Y-80882171D01*
X187613895Y-118328839D02*
X187613895Y-117852649D01*
X187328180Y-118424077D02*
X188328180Y-118090744D01*
X188328180Y-118090744D02*
X187328180Y-117757411D01*
X187328180Y-116995506D02*
X188328180Y-116995506D01*
X187375800Y-116995506D02*
X187328180Y-117090744D01*
X187328180Y-117090744D02*
X187328180Y-117281220D01*
X187328180Y-117281220D02*
X187375800Y-117376458D01*
X187375800Y-117376458D02*
X187423419Y-117424077D01*
X187423419Y-117424077D02*
X187518657Y-117471696D01*
X187518657Y-117471696D02*
X187804371Y-117471696D01*
X187804371Y-117471696D02*
X187899609Y-117424077D01*
X187899609Y-117424077D02*
X187947228Y-117376458D01*
X187947228Y-117376458D02*
X187994847Y-117281220D01*
X187994847Y-117281220D02*
X187994847Y-117090744D01*
X187994847Y-117090744D02*
X187947228Y-116995506D01*
X187328180Y-116090744D02*
X187851990Y-116090744D01*
X187851990Y-116090744D02*
X187947228Y-116138363D01*
X187947228Y-116138363D02*
X187994847Y-116233601D01*
X187994847Y-116233601D02*
X187994847Y-116424077D01*
X187994847Y-116424077D02*
X187947228Y-116519315D01*
X187375800Y-116090744D02*
X187328180Y-116185982D01*
X187328180Y-116185982D02*
X187328180Y-116424077D01*
X187328180Y-116424077D02*
X187375800Y-116519315D01*
X187375800Y-116519315D02*
X187471038Y-116566934D01*
X187471038Y-116566934D02*
X187566276Y-116566934D01*
X187566276Y-116566934D02*
X187661514Y-116519315D01*
X187661514Y-116519315D02*
X187709133Y-116424077D01*
X187709133Y-116424077D02*
X187709133Y-116185982D01*
X187709133Y-116185982D02*
X187756752Y-116090744D01*
X187994847Y-115614553D02*
X186994847Y-115614553D01*
X187947228Y-115614553D02*
X187994847Y-115519315D01*
X187994847Y-115519315D02*
X187994847Y-115328839D01*
X187994847Y-115328839D02*
X187947228Y-115233601D01*
X187947228Y-115233601D02*
X187899609Y-115185982D01*
X187899609Y-115185982D02*
X187804371Y-115138363D01*
X187804371Y-115138363D02*
X187518657Y-115138363D01*
X187518657Y-115138363D02*
X187423419Y-115185982D01*
X187423419Y-115185982D02*
X187375800Y-115233601D01*
X187375800Y-115233601D02*
X187328180Y-115328839D01*
X187328180Y-115328839D02*
X187328180Y-115519315D01*
X187328180Y-115519315D02*
X187375800Y-115614553D01*
X187994847Y-114852648D02*
X187994847Y-114471696D01*
X188328180Y-114709791D02*
X187471038Y-114709791D01*
X187471038Y-114709791D02*
X187375800Y-114662172D01*
X187375800Y-114662172D02*
X187328180Y-114566934D01*
X187328180Y-114566934D02*
X187328180Y-114471696D01*
X187328180Y-113709791D02*
X187851990Y-113709791D01*
X187851990Y-113709791D02*
X187947228Y-113757410D01*
X187947228Y-113757410D02*
X187994847Y-113852648D01*
X187994847Y-113852648D02*
X187994847Y-114043124D01*
X187994847Y-114043124D02*
X187947228Y-114138362D01*
X187375800Y-113709791D02*
X187328180Y-113805029D01*
X187328180Y-113805029D02*
X187328180Y-114043124D01*
X187328180Y-114043124D02*
X187375800Y-114138362D01*
X187375800Y-114138362D02*
X187471038Y-114185981D01*
X187471038Y-114185981D02*
X187566276Y-114185981D01*
X187566276Y-114185981D02*
X187661514Y-114138362D01*
X187661514Y-114138362D02*
X187709133Y-114043124D01*
X187709133Y-114043124D02*
X187709133Y-113805029D01*
X187709133Y-113805029D02*
X187756752Y-113709791D01*
X187994847Y-113376457D02*
X187994847Y-112995505D01*
X188328180Y-113233600D02*
X187471038Y-113233600D01*
X187471038Y-113233600D02*
X187375800Y-113185981D01*
X187375800Y-113185981D02*
X187328180Y-113090743D01*
X187328180Y-113090743D02*
X187328180Y-112995505D01*
X187328180Y-112662171D02*
X187994847Y-112662171D01*
X188328180Y-112662171D02*
X188280561Y-112709790D01*
X188280561Y-112709790D02*
X188232942Y-112662171D01*
X188232942Y-112662171D02*
X188280561Y-112614552D01*
X188280561Y-112614552D02*
X188328180Y-112662171D01*
X188328180Y-112662171D02*
X188232942Y-112662171D01*
X187328180Y-112043124D02*
X187375800Y-112138362D01*
X187375800Y-112138362D02*
X187423419Y-112185981D01*
X187423419Y-112185981D02*
X187518657Y-112233600D01*
X187518657Y-112233600D02*
X187804371Y-112233600D01*
X187804371Y-112233600D02*
X187899609Y-112185981D01*
X187899609Y-112185981D02*
X187947228Y-112138362D01*
X187947228Y-112138362D02*
X187994847Y-112043124D01*
X187994847Y-112043124D02*
X187994847Y-111900267D01*
X187994847Y-111900267D02*
X187947228Y-111805029D01*
X187947228Y-111805029D02*
X187899609Y-111757410D01*
X187899609Y-111757410D02*
X187804371Y-111709791D01*
X187804371Y-111709791D02*
X187518657Y-111709791D01*
X187518657Y-111709791D02*
X187423419Y-111757410D01*
X187423419Y-111757410D02*
X187375800Y-111805029D01*
X187375800Y-111805029D02*
X187328180Y-111900267D01*
X187328180Y-111900267D02*
X187328180Y-112043124D01*
X187994847Y-111281219D02*
X187328180Y-111281219D01*
X187899609Y-111281219D02*
X187947228Y-111233600D01*
X187947228Y-111233600D02*
X187994847Y-111138362D01*
X187994847Y-111138362D02*
X187994847Y-110995505D01*
X187994847Y-110995505D02*
X187947228Y-110900267D01*
X187947228Y-110900267D02*
X187851990Y-110852648D01*
X187851990Y-110852648D02*
X187328180Y-110852648D01*
X187328180Y-109614552D02*
X188328180Y-109614552D01*
X187947228Y-109614552D02*
X187994847Y-109519314D01*
X187994847Y-109519314D02*
X187994847Y-109328838D01*
X187994847Y-109328838D02*
X187947228Y-109233600D01*
X187947228Y-109233600D02*
X187899609Y-109185981D01*
X187899609Y-109185981D02*
X187804371Y-109138362D01*
X187804371Y-109138362D02*
X187518657Y-109138362D01*
X187518657Y-109138362D02*
X187423419Y-109185981D01*
X187423419Y-109185981D02*
X187375800Y-109233600D01*
X187375800Y-109233600D02*
X187328180Y-109328838D01*
X187328180Y-109328838D02*
X187328180Y-109519314D01*
X187328180Y-109519314D02*
X187375800Y-109614552D01*
X187994847Y-108805028D02*
X187328180Y-108566933D01*
X187994847Y-108328838D02*
X187328180Y-108566933D01*
X187328180Y-108566933D02*
X187090085Y-108662171D01*
X187090085Y-108662171D02*
X187042466Y-108709790D01*
X187042466Y-108709790D02*
X186994847Y-108805028D01*
X187375800Y-107233599D02*
X187328180Y-107090742D01*
X187328180Y-107090742D02*
X187328180Y-106852647D01*
X187328180Y-106852647D02*
X187375800Y-106757409D01*
X187375800Y-106757409D02*
X187423419Y-106709790D01*
X187423419Y-106709790D02*
X187518657Y-106662171D01*
X187518657Y-106662171D02*
X187613895Y-106662171D01*
X187613895Y-106662171D02*
X187709133Y-106709790D01*
X187709133Y-106709790D02*
X187756752Y-106757409D01*
X187756752Y-106757409D02*
X187804371Y-106852647D01*
X187804371Y-106852647D02*
X187851990Y-107043123D01*
X187851990Y-107043123D02*
X187899609Y-107138361D01*
X187899609Y-107138361D02*
X187947228Y-107185980D01*
X187947228Y-107185980D02*
X188042466Y-107233599D01*
X188042466Y-107233599D02*
X188137704Y-107233599D01*
X188137704Y-107233599D02*
X188232942Y-107185980D01*
X188232942Y-107185980D02*
X188280561Y-107138361D01*
X188280561Y-107138361D02*
X188328180Y-107043123D01*
X188328180Y-107043123D02*
X188328180Y-106805028D01*
X188328180Y-106805028D02*
X188280561Y-106662171D01*
X187994847Y-106328837D02*
X187328180Y-106090742D01*
X187994847Y-105852647D02*
X187328180Y-106090742D01*
X187328180Y-106090742D02*
X187090085Y-106185980D01*
X187090085Y-106185980D02*
X187042466Y-106233599D01*
X187042466Y-106233599D02*
X186994847Y-106328837D01*
X187994847Y-105471694D02*
X187328180Y-105471694D01*
X187899609Y-105471694D02*
X187947228Y-105424075D01*
X187947228Y-105424075D02*
X187994847Y-105328837D01*
X187994847Y-105328837D02*
X187994847Y-105185980D01*
X187994847Y-105185980D02*
X187947228Y-105090742D01*
X187947228Y-105090742D02*
X187851990Y-105043123D01*
X187851990Y-105043123D02*
X187328180Y-105043123D01*
X187994847Y-104709789D02*
X187994847Y-104328837D01*
X188328180Y-104566932D02*
X187471038Y-104566932D01*
X187471038Y-104566932D02*
X187375800Y-104519313D01*
X187375800Y-104519313D02*
X187328180Y-104424075D01*
X187328180Y-104424075D02*
X187328180Y-104328837D01*
X187328180Y-103995503D02*
X188328180Y-103995503D01*
X187328180Y-103566932D02*
X187851990Y-103566932D01*
X187851990Y-103566932D02*
X187947228Y-103614551D01*
X187947228Y-103614551D02*
X187994847Y-103709789D01*
X187994847Y-103709789D02*
X187994847Y-103852646D01*
X187994847Y-103852646D02*
X187947228Y-103947884D01*
X187947228Y-103947884D02*
X187899609Y-103995503D01*
X187328180Y-103090741D02*
X187994847Y-103090741D01*
X187804371Y-103090741D02*
X187899609Y-103043122D01*
X187899609Y-103043122D02*
X187947228Y-102995503D01*
X187947228Y-102995503D02*
X187994847Y-102900265D01*
X187994847Y-102900265D02*
X187994847Y-102805027D01*
X187328180Y-102328836D02*
X187375800Y-102424074D01*
X187375800Y-102424074D02*
X187423419Y-102471693D01*
X187423419Y-102471693D02*
X187518657Y-102519312D01*
X187518657Y-102519312D02*
X187804371Y-102519312D01*
X187804371Y-102519312D02*
X187899609Y-102471693D01*
X187899609Y-102471693D02*
X187947228Y-102424074D01*
X187947228Y-102424074D02*
X187994847Y-102328836D01*
X187994847Y-102328836D02*
X187994847Y-102185979D01*
X187994847Y-102185979D02*
X187947228Y-102090741D01*
X187947228Y-102090741D02*
X187899609Y-102043122D01*
X187899609Y-102043122D02*
X187804371Y-101995503D01*
X187804371Y-101995503D02*
X187518657Y-101995503D01*
X187518657Y-101995503D02*
X187423419Y-102043122D01*
X187423419Y-102043122D02*
X187375800Y-102090741D01*
X187375800Y-102090741D02*
X187328180Y-102185979D01*
X187328180Y-102185979D02*
X187328180Y-102328836D01*
X187994847Y-101566931D02*
X187328180Y-101566931D01*
X187899609Y-101566931D02*
X187947228Y-101519312D01*
X187947228Y-101519312D02*
X187994847Y-101424074D01*
X187994847Y-101424074D02*
X187994847Y-101281217D01*
X187994847Y-101281217D02*
X187947228Y-101185979D01*
X187947228Y-101185979D02*
X187851990Y-101138360D01*
X187851990Y-101138360D02*
X187328180Y-101138360D01*
X187423419Y-100662169D02*
X187375800Y-100614550D01*
X187375800Y-100614550D02*
X187328180Y-100662169D01*
X187328180Y-100662169D02*
X187375800Y-100709788D01*
X187375800Y-100709788D02*
X187423419Y-100662169D01*
X187423419Y-100662169D02*
X187328180Y-100662169D01*
X187947228Y-100662169D02*
X187899609Y-100614550D01*
X187899609Y-100614550D02*
X187851990Y-100662169D01*
X187851990Y-100662169D02*
X187899609Y-100709788D01*
X187899609Y-100709788D02*
X187947228Y-100662169D01*
X187947228Y-100662169D02*
X187851990Y-100662169D01*
X187328180Y-99424074D02*
X188328180Y-99424074D01*
X187328180Y-98995503D02*
X187851990Y-98995503D01*
X187851990Y-98995503D02*
X187947228Y-99043122D01*
X187947228Y-99043122D02*
X187994847Y-99138360D01*
X187994847Y-99138360D02*
X187994847Y-99281217D01*
X187994847Y-99281217D02*
X187947228Y-99376455D01*
X187947228Y-99376455D02*
X187899609Y-99424074D01*
X187994847Y-98662169D02*
X187994847Y-98281217D01*
X188328180Y-98519312D02*
X187471038Y-98519312D01*
X187471038Y-98519312D02*
X187375800Y-98471693D01*
X187375800Y-98471693D02*
X187328180Y-98376455D01*
X187328180Y-98376455D02*
X187328180Y-98281217D01*
X187994847Y-98090740D02*
X187994847Y-97709788D01*
X188328180Y-97947883D02*
X187471038Y-97947883D01*
X187471038Y-97947883D02*
X187375800Y-97900264D01*
X187375800Y-97900264D02*
X187328180Y-97805026D01*
X187328180Y-97805026D02*
X187328180Y-97709788D01*
X187994847Y-97376454D02*
X186994847Y-97376454D01*
X187947228Y-97376454D02*
X187994847Y-97281216D01*
X187994847Y-97281216D02*
X187994847Y-97090740D01*
X187994847Y-97090740D02*
X187947228Y-96995502D01*
X187947228Y-96995502D02*
X187899609Y-96947883D01*
X187899609Y-96947883D02*
X187804371Y-96900264D01*
X187804371Y-96900264D02*
X187518657Y-96900264D01*
X187518657Y-96900264D02*
X187423419Y-96947883D01*
X187423419Y-96947883D02*
X187375800Y-96995502D01*
X187375800Y-96995502D02*
X187328180Y-97090740D01*
X187328180Y-97090740D02*
X187328180Y-97281216D01*
X187328180Y-97281216D02*
X187375800Y-97376454D01*
X187375800Y-96519311D02*
X187328180Y-96424073D01*
X187328180Y-96424073D02*
X187328180Y-96233597D01*
X187328180Y-96233597D02*
X187375800Y-96138359D01*
X187375800Y-96138359D02*
X187471038Y-96090740D01*
X187471038Y-96090740D02*
X187518657Y-96090740D01*
X187518657Y-96090740D02*
X187613895Y-96138359D01*
X187613895Y-96138359D02*
X187661514Y-96233597D01*
X187661514Y-96233597D02*
X187661514Y-96376454D01*
X187661514Y-96376454D02*
X187709133Y-96471692D01*
X187709133Y-96471692D02*
X187804371Y-96519311D01*
X187804371Y-96519311D02*
X187851990Y-96519311D01*
X187851990Y-96519311D02*
X187947228Y-96471692D01*
X187947228Y-96471692D02*
X187994847Y-96376454D01*
X187994847Y-96376454D02*
X187994847Y-96233597D01*
X187994847Y-96233597D02*
X187947228Y-96138359D01*
X187423419Y-95662168D02*
X187375800Y-95614549D01*
X187375800Y-95614549D02*
X187328180Y-95662168D01*
X187328180Y-95662168D02*
X187375800Y-95709787D01*
X187375800Y-95709787D02*
X187423419Y-95662168D01*
X187423419Y-95662168D02*
X187328180Y-95662168D01*
X187947228Y-95662168D02*
X187899609Y-95614549D01*
X187899609Y-95614549D02*
X187851990Y-95662168D01*
X187851990Y-95662168D02*
X187899609Y-95709787D01*
X187899609Y-95709787D02*
X187947228Y-95662168D01*
X187947228Y-95662168D02*
X187851990Y-95662168D01*
X188375800Y-94471693D02*
X187090085Y-95328835D01*
X188375800Y-93424074D02*
X187090085Y-94281216D01*
X187994847Y-92662169D02*
X187185323Y-92662169D01*
X187185323Y-92662169D02*
X187090085Y-92709788D01*
X187090085Y-92709788D02*
X187042466Y-92757407D01*
X187042466Y-92757407D02*
X186994847Y-92852645D01*
X186994847Y-92852645D02*
X186994847Y-92995502D01*
X186994847Y-92995502D02*
X187042466Y-93090740D01*
X187375800Y-92662169D02*
X187328180Y-92757407D01*
X187328180Y-92757407D02*
X187328180Y-92947883D01*
X187328180Y-92947883D02*
X187375800Y-93043121D01*
X187375800Y-93043121D02*
X187423419Y-93090740D01*
X187423419Y-93090740D02*
X187518657Y-93138359D01*
X187518657Y-93138359D02*
X187804371Y-93138359D01*
X187804371Y-93138359D02*
X187899609Y-93090740D01*
X187899609Y-93090740D02*
X187947228Y-93043121D01*
X187947228Y-93043121D02*
X187994847Y-92947883D01*
X187994847Y-92947883D02*
X187994847Y-92757407D01*
X187994847Y-92757407D02*
X187947228Y-92662169D01*
X187328180Y-92185978D02*
X187994847Y-92185978D01*
X188328180Y-92185978D02*
X188280561Y-92233597D01*
X188280561Y-92233597D02*
X188232942Y-92185978D01*
X188232942Y-92185978D02*
X188280561Y-92138359D01*
X188280561Y-92138359D02*
X188328180Y-92185978D01*
X188328180Y-92185978D02*
X188232942Y-92185978D01*
X187994847Y-91852645D02*
X187994847Y-91471693D01*
X188328180Y-91709788D02*
X187471038Y-91709788D01*
X187471038Y-91709788D02*
X187375800Y-91662169D01*
X187375800Y-91662169D02*
X187328180Y-91566931D01*
X187328180Y-91566931D02*
X187328180Y-91471693D01*
X187328180Y-91138359D02*
X188328180Y-91138359D01*
X187328180Y-90709788D02*
X187851990Y-90709788D01*
X187851990Y-90709788D02*
X187947228Y-90757407D01*
X187947228Y-90757407D02*
X187994847Y-90852645D01*
X187994847Y-90852645D02*
X187994847Y-90995502D01*
X187994847Y-90995502D02*
X187947228Y-91090740D01*
X187947228Y-91090740D02*
X187899609Y-91138359D01*
X187994847Y-89805026D02*
X187328180Y-89805026D01*
X187994847Y-90233597D02*
X187471038Y-90233597D01*
X187471038Y-90233597D02*
X187375800Y-90185978D01*
X187375800Y-90185978D02*
X187328180Y-90090740D01*
X187328180Y-90090740D02*
X187328180Y-89947883D01*
X187328180Y-89947883D02*
X187375800Y-89852645D01*
X187375800Y-89852645D02*
X187423419Y-89805026D01*
X187328180Y-89328835D02*
X188328180Y-89328835D01*
X187947228Y-89328835D02*
X187994847Y-89233597D01*
X187994847Y-89233597D02*
X187994847Y-89043121D01*
X187994847Y-89043121D02*
X187947228Y-88947883D01*
X187947228Y-88947883D02*
X187899609Y-88900264D01*
X187899609Y-88900264D02*
X187804371Y-88852645D01*
X187804371Y-88852645D02*
X187518657Y-88852645D01*
X187518657Y-88852645D02*
X187423419Y-88900264D01*
X187423419Y-88900264D02*
X187375800Y-88947883D01*
X187375800Y-88947883D02*
X187328180Y-89043121D01*
X187328180Y-89043121D02*
X187328180Y-89233597D01*
X187328180Y-89233597D02*
X187375800Y-89328835D01*
X187423419Y-88424073D02*
X187375800Y-88376454D01*
X187375800Y-88376454D02*
X187328180Y-88424073D01*
X187328180Y-88424073D02*
X187375800Y-88471692D01*
X187375800Y-88471692D02*
X187423419Y-88424073D01*
X187423419Y-88424073D02*
X187328180Y-88424073D01*
X187375800Y-87519312D02*
X187328180Y-87614550D01*
X187328180Y-87614550D02*
X187328180Y-87805026D01*
X187328180Y-87805026D02*
X187375800Y-87900264D01*
X187375800Y-87900264D02*
X187423419Y-87947883D01*
X187423419Y-87947883D02*
X187518657Y-87995502D01*
X187518657Y-87995502D02*
X187804371Y-87995502D01*
X187804371Y-87995502D02*
X187899609Y-87947883D01*
X187899609Y-87947883D02*
X187947228Y-87900264D01*
X187947228Y-87900264D02*
X187994847Y-87805026D01*
X187994847Y-87805026D02*
X187994847Y-87614550D01*
X187994847Y-87614550D02*
X187947228Y-87519312D01*
X187328180Y-86947883D02*
X187375800Y-87043121D01*
X187375800Y-87043121D02*
X187423419Y-87090740D01*
X187423419Y-87090740D02*
X187518657Y-87138359D01*
X187518657Y-87138359D02*
X187804371Y-87138359D01*
X187804371Y-87138359D02*
X187899609Y-87090740D01*
X187899609Y-87090740D02*
X187947228Y-87043121D01*
X187947228Y-87043121D02*
X187994847Y-86947883D01*
X187994847Y-86947883D02*
X187994847Y-86805026D01*
X187994847Y-86805026D02*
X187947228Y-86709788D01*
X187947228Y-86709788D02*
X187899609Y-86662169D01*
X187899609Y-86662169D02*
X187804371Y-86614550D01*
X187804371Y-86614550D02*
X187518657Y-86614550D01*
X187518657Y-86614550D02*
X187423419Y-86662169D01*
X187423419Y-86662169D02*
X187375800Y-86709788D01*
X187375800Y-86709788D02*
X187328180Y-86805026D01*
X187328180Y-86805026D02*
X187328180Y-86947883D01*
X187328180Y-86185978D02*
X187994847Y-86185978D01*
X187899609Y-86185978D02*
X187947228Y-86138359D01*
X187947228Y-86138359D02*
X187994847Y-86043121D01*
X187994847Y-86043121D02*
X187994847Y-85900264D01*
X187994847Y-85900264D02*
X187947228Y-85805026D01*
X187947228Y-85805026D02*
X187851990Y-85757407D01*
X187851990Y-85757407D02*
X187328180Y-85757407D01*
X187851990Y-85757407D02*
X187947228Y-85709788D01*
X187947228Y-85709788D02*
X187994847Y-85614550D01*
X187994847Y-85614550D02*
X187994847Y-85471693D01*
X187994847Y-85471693D02*
X187947228Y-85376454D01*
X187947228Y-85376454D02*
X187851990Y-85328835D01*
X187851990Y-85328835D02*
X187328180Y-85328835D01*
X188375800Y-84138360D02*
X187090085Y-84995502D01*
X187375800Y-83852645D02*
X187328180Y-83709788D01*
X187328180Y-83709788D02*
X187328180Y-83471693D01*
X187328180Y-83471693D02*
X187375800Y-83376455D01*
X187375800Y-83376455D02*
X187423419Y-83328836D01*
X187423419Y-83328836D02*
X187518657Y-83281217D01*
X187518657Y-83281217D02*
X187613895Y-83281217D01*
X187613895Y-83281217D02*
X187709133Y-83328836D01*
X187709133Y-83328836D02*
X187756752Y-83376455D01*
X187756752Y-83376455D02*
X187804371Y-83471693D01*
X187804371Y-83471693D02*
X187851990Y-83662169D01*
X187851990Y-83662169D02*
X187899609Y-83757407D01*
X187899609Y-83757407D02*
X187947228Y-83805026D01*
X187947228Y-83805026D02*
X188042466Y-83852645D01*
X188042466Y-83852645D02*
X188137704Y-83852645D01*
X188137704Y-83852645D02*
X188232942Y-83805026D01*
X188232942Y-83805026D02*
X188280561Y-83757407D01*
X188280561Y-83757407D02*
X188328180Y-83662169D01*
X188328180Y-83662169D02*
X188328180Y-83424074D01*
X188328180Y-83424074D02*
X188280561Y-83281217D01*
X187994847Y-82947883D02*
X187328180Y-82709788D01*
X187994847Y-82471693D02*
X187328180Y-82709788D01*
X187328180Y-82709788D02*
X187090085Y-82805026D01*
X187090085Y-82805026D02*
X187042466Y-82852645D01*
X187042466Y-82852645D02*
X186994847Y-82947883D01*
X187994847Y-82090740D02*
X187328180Y-82090740D01*
X187899609Y-82090740D02*
X187947228Y-82043121D01*
X187947228Y-82043121D02*
X187994847Y-81947883D01*
X187994847Y-81947883D02*
X187994847Y-81805026D01*
X187994847Y-81805026D02*
X187947228Y-81709788D01*
X187947228Y-81709788D02*
X187851990Y-81662169D01*
X187851990Y-81662169D02*
X187328180Y-81662169D01*
X187994847Y-81328835D02*
X187994847Y-80947883D01*
X188328180Y-81185978D02*
X187471038Y-81185978D01*
X187471038Y-81185978D02*
X187375800Y-81138359D01*
X187375800Y-81138359D02*
X187328180Y-81043121D01*
X187328180Y-81043121D02*
X187328180Y-80947883D01*
X187328180Y-80614549D02*
X188328180Y-80614549D01*
X187328180Y-80185978D02*
X187851990Y-80185978D01*
X187851990Y-80185978D02*
X187947228Y-80233597D01*
X187947228Y-80233597D02*
X187994847Y-80328835D01*
X187994847Y-80328835D02*
X187994847Y-80471692D01*
X187994847Y-80471692D02*
X187947228Y-80566930D01*
X187947228Y-80566930D02*
X187899609Y-80614549D01*
X187328180Y-79709787D02*
X187994847Y-79709787D01*
X187804371Y-79709787D02*
X187899609Y-79662168D01*
X187899609Y-79662168D02*
X187947228Y-79614549D01*
X187947228Y-79614549D02*
X187994847Y-79519311D01*
X187994847Y-79519311D02*
X187994847Y-79424073D01*
X187328180Y-78947882D02*
X187375800Y-79043120D01*
X187375800Y-79043120D02*
X187423419Y-79090739D01*
X187423419Y-79090739D02*
X187518657Y-79138358D01*
X187518657Y-79138358D02*
X187804371Y-79138358D01*
X187804371Y-79138358D02*
X187899609Y-79090739D01*
X187899609Y-79090739D02*
X187947228Y-79043120D01*
X187947228Y-79043120D02*
X187994847Y-78947882D01*
X187994847Y-78947882D02*
X187994847Y-78805025D01*
X187994847Y-78805025D02*
X187947228Y-78709787D01*
X187947228Y-78709787D02*
X187899609Y-78662168D01*
X187899609Y-78662168D02*
X187804371Y-78614549D01*
X187804371Y-78614549D02*
X187518657Y-78614549D01*
X187518657Y-78614549D02*
X187423419Y-78662168D01*
X187423419Y-78662168D02*
X187375800Y-78709787D01*
X187375800Y-78709787D02*
X187328180Y-78805025D01*
X187328180Y-78805025D02*
X187328180Y-78947882D01*
X187994847Y-78185977D02*
X187328180Y-78185977D01*
X187899609Y-78185977D02*
X187947228Y-78138358D01*
X187947228Y-78138358D02*
X187994847Y-78043120D01*
X187994847Y-78043120D02*
X187994847Y-77900263D01*
X187994847Y-77900263D02*
X187947228Y-77805025D01*
X187947228Y-77805025D02*
X187851990Y-77757406D01*
X187851990Y-77757406D02*
X187328180Y-77757406D01*
X188375800Y-76566930D02*
X187090085Y-77424072D01*
X187328180Y-75757406D02*
X187328180Y-76233596D01*
X187328180Y-76233596D02*
X188328180Y-76233596D01*
X187328180Y-75281215D02*
X187375800Y-75376453D01*
X187375800Y-75376453D02*
X187423419Y-75424072D01*
X187423419Y-75424072D02*
X187518657Y-75471691D01*
X187518657Y-75471691D02*
X187804371Y-75471691D01*
X187804371Y-75471691D02*
X187899609Y-75424072D01*
X187899609Y-75424072D02*
X187947228Y-75376453D01*
X187947228Y-75376453D02*
X187994847Y-75281215D01*
X187994847Y-75281215D02*
X187994847Y-75138358D01*
X187994847Y-75138358D02*
X187947228Y-75043120D01*
X187947228Y-75043120D02*
X187899609Y-74995501D01*
X187899609Y-74995501D02*
X187804371Y-74947882D01*
X187804371Y-74947882D02*
X187518657Y-74947882D01*
X187518657Y-74947882D02*
X187423419Y-74995501D01*
X187423419Y-74995501D02*
X187375800Y-75043120D01*
X187375800Y-75043120D02*
X187328180Y-75138358D01*
X187328180Y-75138358D02*
X187328180Y-75281215D01*
X187994847Y-74090739D02*
X187185323Y-74090739D01*
X187185323Y-74090739D02*
X187090085Y-74138358D01*
X187090085Y-74138358D02*
X187042466Y-74185977D01*
X187042466Y-74185977D02*
X186994847Y-74281215D01*
X186994847Y-74281215D02*
X186994847Y-74424072D01*
X186994847Y-74424072D02*
X187042466Y-74519310D01*
X187375800Y-74090739D02*
X187328180Y-74185977D01*
X187328180Y-74185977D02*
X187328180Y-74376453D01*
X187328180Y-74376453D02*
X187375800Y-74471691D01*
X187375800Y-74471691D02*
X187423419Y-74519310D01*
X187423419Y-74519310D02*
X187518657Y-74566929D01*
X187518657Y-74566929D02*
X187804371Y-74566929D01*
X187804371Y-74566929D02*
X187899609Y-74519310D01*
X187899609Y-74519310D02*
X187947228Y-74471691D01*
X187947228Y-74471691D02*
X187994847Y-74376453D01*
X187994847Y-74376453D02*
X187994847Y-74185977D01*
X187994847Y-74185977D02*
X187947228Y-74090739D01*
X187328180Y-73614548D02*
X187994847Y-73614548D01*
X188328180Y-73614548D02*
X188280561Y-73662167D01*
X188280561Y-73662167D02*
X188232942Y-73614548D01*
X188232942Y-73614548D02*
X188280561Y-73566929D01*
X188280561Y-73566929D02*
X188328180Y-73614548D01*
X188328180Y-73614548D02*
X188232942Y-73614548D01*
X187375800Y-72709787D02*
X187328180Y-72805025D01*
X187328180Y-72805025D02*
X187328180Y-72995501D01*
X187328180Y-72995501D02*
X187375800Y-73090739D01*
X187375800Y-73090739D02*
X187423419Y-73138358D01*
X187423419Y-73138358D02*
X187518657Y-73185977D01*
X187518657Y-73185977D02*
X187804371Y-73185977D01*
X187804371Y-73185977D02*
X187899609Y-73138358D01*
X187899609Y-73138358D02*
X187947228Y-73090739D01*
X187947228Y-73090739D02*
X187994847Y-72995501D01*
X187994847Y-72995501D02*
X187994847Y-72805025D01*
X187994847Y-72805025D02*
X187947228Y-72709787D01*
X187613895Y-72328834D02*
X187613895Y-71852644D01*
X187328180Y-72424072D02*
X188328180Y-72090739D01*
X188328180Y-72090739D02*
X187328180Y-71757406D01*
X187994847Y-71424072D02*
X187328180Y-71424072D01*
X187899609Y-71424072D02*
X187947228Y-71376453D01*
X187947228Y-71376453D02*
X187994847Y-71281215D01*
X187994847Y-71281215D02*
X187994847Y-71138358D01*
X187994847Y-71138358D02*
X187947228Y-71043120D01*
X187947228Y-71043120D02*
X187851990Y-70995501D01*
X187851990Y-70995501D02*
X187328180Y-70995501D01*
X187328180Y-70090739D02*
X187851990Y-70090739D01*
X187851990Y-70090739D02*
X187947228Y-70138358D01*
X187947228Y-70138358D02*
X187994847Y-70233596D01*
X187994847Y-70233596D02*
X187994847Y-70424072D01*
X187994847Y-70424072D02*
X187947228Y-70519310D01*
X187375800Y-70090739D02*
X187328180Y-70185977D01*
X187328180Y-70185977D02*
X187328180Y-70424072D01*
X187328180Y-70424072D02*
X187375800Y-70519310D01*
X187375800Y-70519310D02*
X187471038Y-70566929D01*
X187471038Y-70566929D02*
X187566276Y-70566929D01*
X187566276Y-70566929D02*
X187661514Y-70519310D01*
X187661514Y-70519310D02*
X187709133Y-70424072D01*
X187709133Y-70424072D02*
X187709133Y-70185977D01*
X187709133Y-70185977D02*
X187756752Y-70090739D01*
X187328180Y-69471691D02*
X187375800Y-69566929D01*
X187375800Y-69566929D02*
X187471038Y-69614548D01*
X187471038Y-69614548D02*
X188328180Y-69614548D01*
X187994847Y-69185976D02*
X187328180Y-68947881D01*
X187994847Y-68709786D02*
X187328180Y-68947881D01*
X187328180Y-68947881D02*
X187090085Y-69043119D01*
X187090085Y-69043119D02*
X187042466Y-69090738D01*
X187042466Y-69090738D02*
X186994847Y-69185976D01*
X187994847Y-68424071D02*
X187994847Y-67900262D01*
X187994847Y-67900262D02*
X187328180Y-68424071D01*
X187328180Y-68424071D02*
X187328180Y-67900262D01*
X187375800Y-67138357D02*
X187328180Y-67233595D01*
X187328180Y-67233595D02*
X187328180Y-67424071D01*
X187328180Y-67424071D02*
X187375800Y-67519309D01*
X187375800Y-67519309D02*
X187471038Y-67566928D01*
X187471038Y-67566928D02*
X187851990Y-67566928D01*
X187851990Y-67566928D02*
X187947228Y-67519309D01*
X187947228Y-67519309D02*
X187994847Y-67424071D01*
X187994847Y-67424071D02*
X187994847Y-67233595D01*
X187994847Y-67233595D02*
X187947228Y-67138357D01*
X187947228Y-67138357D02*
X187851990Y-67090738D01*
X187851990Y-67090738D02*
X187756752Y-67090738D01*
X187756752Y-67090738D02*
X187661514Y-67566928D01*
X187328180Y-66662166D02*
X187994847Y-66662166D01*
X187804371Y-66662166D02*
X187899609Y-66614547D01*
X187899609Y-66614547D02*
X187947228Y-66566928D01*
X187947228Y-66566928D02*
X187994847Y-66471690D01*
X187994847Y-66471690D02*
X187994847Y-66376452D01*
%LPC*%
D11*
X157501957Y-126493030D03*
X157507194Y-67484319D03*
D12*
X158750000Y-72898000D03*
D13*
X161290000Y-72898000D03*
X158750000Y-75438000D03*
X161290000Y-75438000D03*
X158750000Y-77978000D03*
X161290000Y-77978000D03*
D14*
X190823000Y-66424000D03*
D15*
X191123000Y-69454000D03*
X195973000Y-69454000D03*
D14*
X196273000Y-66424000D03*
D13*
X184658000Y-66294000D03*
X184658000Y-68834000D03*
D12*
X184658000Y-71374000D03*
D13*
X184658000Y-73914000D03*
X184658000Y-76454000D03*
X184658000Y-78994000D03*
X184658000Y-81534000D03*
D12*
X184658000Y-84074000D03*
D13*
X184658000Y-86614000D03*
X184658000Y-89154000D03*
X184658000Y-91694000D03*
X184658000Y-94234000D03*
D12*
X184658000Y-96774000D03*
D13*
X184658000Y-99314000D03*
X184658000Y-101854000D03*
X184658000Y-104394000D03*
X184658000Y-106934000D03*
D12*
X184658000Y-109474000D03*
D13*
X184658000Y-112014000D03*
X184658000Y-114554000D03*
X202438000Y-114554000D03*
X202438000Y-112014000D03*
D12*
X202438000Y-109474000D03*
D13*
X202438000Y-106934000D03*
X202438000Y-104394000D03*
X202438000Y-101854000D03*
X202438000Y-99314000D03*
D12*
X202438000Y-96774000D03*
D13*
X202438000Y-94234000D03*
X202438000Y-91694000D03*
X202438000Y-89154000D03*
X202438000Y-86614000D03*
D12*
X202438000Y-84074000D03*
D13*
X202438000Y-81534000D03*
X202438000Y-78994000D03*
X202438000Y-76454000D03*
X202438000Y-73914000D03*
D12*
X202438000Y-71374000D03*
D13*
X202438000Y-68834000D03*
X202438000Y-66294000D03*
X191008000Y-114324000D03*
D12*
X193548000Y-114324000D03*
D13*
X196088000Y-114324000D03*
D12*
X161290000Y-120650000D03*
D13*
X158750000Y-120650000D03*
X161290000Y-118110000D03*
X158750000Y-118110000D03*
X161290000Y-115570000D03*
X158750000Y-115570000D03*
X161290000Y-113030000D03*
X158750000Y-113030000D03*
X161290000Y-110490000D03*
X158750000Y-110490000D03*
X161290000Y-107950000D03*
X158750000Y-107950000D03*
X161290000Y-105410000D03*
X158750000Y-105410000D03*
X161290000Y-102870000D03*
X158750000Y-102870000D03*
X161290000Y-100330000D03*
X158750000Y-100330000D03*
X161290000Y-97790000D03*
X158750000Y-97790000D03*
X161290000Y-95250000D03*
X158750000Y-95250000D03*
X161290000Y-92710000D03*
X158750000Y-92710000D03*
X161290000Y-90170000D03*
X158750000Y-90170000D03*
X161290000Y-87630000D03*
X158750000Y-87630000D03*
X161290000Y-85090000D03*
X158750000Y-85090000D03*
X161290000Y-82550000D03*
X158750000Y-82550000D03*
D11*
X206505698Y-126494324D03*
D12*
X166878000Y-68580000D03*
D13*
X169418000Y-68580000D03*
X171958000Y-68580000D03*
%LPD*%
M02*
