G04 #@! TF.GenerationSoftware,KiCad,Pcbnew,8.0.8-8.0.8-0~ubuntu24.04.1*
G04 #@! TF.CreationDate,2025-04-25T21:20:27+02:00*
G04 #@! TF.ProjectId,LogicAnalyzer,4c6f6769-6341-46e6-916c-797a65722e6b,rev?*
G04 #@! TF.SameCoordinates,Original*
G04 #@! TF.FileFunction,Paste,Top*
G04 #@! TF.FilePolarity,Positive*
%FSLAX46Y46*%
G04 Gerber Fmt 4.6, Leading zero omitted, Abs format (unit mm)*
G04 Created by KiCad (PCBNEW 8.0.8-8.0.8-0~ubuntu24.04.1) date 2025-04-25 21:20:27*
%MOMM*%
%LPD*%
G01*
G04 APERTURE LIST*
G04 Aperture macros list*
%AMRoundRect*
0 Rectangle with rounded corners*
0 $1 Rounding radius*
0 $2 $3 $4 $5 $6 $7 $8 $9 X,Y pos of 4 corners*
0 Add a 4 corners polygon primitive as box body*
4,1,4,$2,$3,$4,$5,$6,$7,$8,$9,$2,$3,0*
0 Add four circle primitives for the rounded corners*
1,1,$1+$1,$2,$3*
1,1,$1+$1,$4,$5*
1,1,$1+$1,$6,$7*
1,1,$1+$1,$8,$9*
0 Add four rect primitives between the rounded corners*
20,1,$1+$1,$2,$3,$4,$5,0*
20,1,$1+$1,$4,$5,$6,$7,0*
20,1,$1+$1,$6,$7,$8,$9,0*
20,1,$1+$1,$8,$9,$2,$3,0*%
G04 Aperture macros list end*
%ADD10RoundRect,0.225000X0.225000X0.250000X-0.225000X0.250000X-0.225000X-0.250000X0.225000X-0.250000X0*%
%ADD11RoundRect,0.100000X-0.637500X-0.100000X0.637500X-0.100000X0.637500X0.100000X-0.637500X0.100000X0*%
%ADD12RoundRect,0.200000X-0.200000X-0.275000X0.200000X-0.275000X0.200000X0.275000X-0.200000X0.275000X0*%
%ADD13RoundRect,0.250000X-0.400000X-0.600000X0.400000X-0.600000X0.400000X0.600000X-0.400000X0.600000X0*%
%ADD14RoundRect,0.225000X-0.225000X-0.250000X0.225000X-0.250000X0.225000X0.250000X-0.225000X0.250000X0*%
%ADD15RoundRect,0.200000X-0.275000X0.200000X-0.275000X-0.200000X0.275000X-0.200000X0.275000X0.200000X0*%
G04 APERTURE END LIST*
D10*
X170447000Y-106680000D03*
X168897000Y-106680000D03*
D11*
X169095500Y-86950000D03*
X169095500Y-87600000D03*
X169095500Y-88250000D03*
X169095500Y-88900000D03*
X169095500Y-89550000D03*
X169095500Y-90200000D03*
X169095500Y-90850000D03*
X174820500Y-90850000D03*
X174820500Y-90200000D03*
X174820500Y-89550000D03*
X174820500Y-88900000D03*
X174820500Y-88250000D03*
X174820500Y-87600000D03*
X174820500Y-86950000D03*
X169095500Y-94062000D03*
X169095500Y-94712000D03*
X169095500Y-95362000D03*
X169095500Y-96012000D03*
X169095500Y-96662000D03*
X169095500Y-97312000D03*
X169095500Y-97962000D03*
X174820500Y-97962000D03*
X174820500Y-97312000D03*
X174820500Y-96662000D03*
X174820500Y-96012000D03*
X174820500Y-95362000D03*
X174820500Y-94712000D03*
X174820500Y-94062000D03*
D12*
X167577000Y-73660000D03*
X169227000Y-73660000D03*
D13*
X167668000Y-71628000D03*
X171168000Y-71628000D03*
D11*
X169095500Y-108286000D03*
X169095500Y-108936000D03*
X169095500Y-109586000D03*
X169095500Y-110236000D03*
X169095500Y-110886000D03*
X169095500Y-111536000D03*
X169095500Y-112186000D03*
X174820500Y-112186000D03*
X174820500Y-111536000D03*
X174820500Y-110886000D03*
X174820500Y-110236000D03*
X174820500Y-109586000D03*
X174820500Y-108936000D03*
X174820500Y-108286000D03*
D14*
X173469000Y-113792000D03*
X175019000Y-113792000D03*
D15*
X172974000Y-71565000D03*
X172974000Y-73215000D03*
D11*
X169095500Y-115398000D03*
X169095500Y-116048000D03*
X169095500Y-116698000D03*
X169095500Y-117348000D03*
X169095500Y-117998000D03*
X169095500Y-118648000D03*
X169095500Y-119298000D03*
X174820500Y-119298000D03*
X174820500Y-118648000D03*
X174820500Y-117998000D03*
X174820500Y-117348000D03*
X174820500Y-116698000D03*
X174820500Y-116048000D03*
X174820500Y-115398000D03*
D10*
X170447000Y-92456000D03*
X168897000Y-92456000D03*
D11*
X169095500Y-101174000D03*
X169095500Y-101824000D03*
X169095500Y-102474000D03*
X169095500Y-103124000D03*
X169095500Y-103774000D03*
X169095500Y-104424000D03*
X169095500Y-105074000D03*
X174820500Y-105074000D03*
X174820500Y-104424000D03*
X174820500Y-103774000D03*
X174820500Y-103124000D03*
X174820500Y-102474000D03*
X174820500Y-101824000D03*
X174820500Y-101174000D03*
D10*
X170447000Y-120904000D03*
X168897000Y-120904000D03*
D14*
X173469000Y-85344000D03*
X175019000Y-85344000D03*
X173469000Y-99568000D03*
X175019000Y-99568000D03*
X173469000Y-106680000D03*
X175019000Y-106680000D03*
X173469000Y-92456000D03*
X175019000Y-92456000D03*
D10*
X170447000Y-113792000D03*
X168897000Y-113792000D03*
D11*
X169095500Y-122510000D03*
X169095500Y-123160000D03*
X169095500Y-123810000D03*
X169095500Y-124460000D03*
X169095500Y-125110000D03*
X169095500Y-125760000D03*
X169095500Y-126410000D03*
X174820500Y-126410000D03*
X174820500Y-125760000D03*
X174820500Y-125110000D03*
X174820500Y-124460000D03*
X174820500Y-123810000D03*
X174820500Y-123160000D03*
X174820500Y-122510000D03*
D14*
X173469000Y-120904000D03*
X175019000Y-120904000D03*
D10*
X170447000Y-99568000D03*
X168897000Y-99568000D03*
X170447000Y-85344000D03*
X168897000Y-85344000D03*
M02*
